<?xml version="1.0" encoding="utf-8" standalone="no"?>
<!DOCTYPE svg PUBLIC "-//W3C//DTD SVG 1.1//EN"
  "http://www.w3.org/Graphics/SVG/1.1/DTD/svg11.dtd">
<svg height="335.627187pt" version="1.1" viewBox="0 0 896.700709 335.627187" width="896.700709pt" xmlns="http://www.w3.org/2000/svg" xmlns:xlink="http://www.w3.org/1999/xlink">
 <metadata>
  <rdf:RDF xmlns:cc="http://creativecommons.org/ns#" xmlns:dc="http://purl.org/dc/elements/1.1/" xmlns:rdf="http://www.w3.org/1999/02/22-rdf-syntax-ns#">
   <cc:Work>
    <dc:type rdf:resource="http://purl.org/dc/dcmitype/StillImage"/>
    <dc:date>2022-12-05T12:41:08.841929</dc:date>
    <dc:format>image/svg+xml</dc:format>
    <dc:creator>
     <cc:Agent>
      <dc:title>Matplotlib v3.4.3, https://matplotlib.org/</dc:title>
     </cc:Agent>
    </dc:creator>
   </cc:Work>
  </rdf:RDF>
 </metadata>
 <defs>
  <style type="text/css">*{stroke-linecap:butt;stroke-linejoin:round;}</style>
 </defs>
 <g id="figure_1">
  <g id="patch_1">
   <path d="M 0 335.627187 
L 896.700709 335.627187 
L 896.700709 0 
L 0 0 
z
" style="fill:none;"/>
  </g>
  <g id="axes_1">
   <g id="patch_2">
    <path d="M 42.666875 295.191562 
L 288.843346 295.191562 
L 288.843346 23.391562 
L 42.666875 23.391562 
z
" style="fill:#ffffff;"/>
   </g>
   <g id="matplotlib.axis_1">
    <g id="xtick_1">
     <g id="line2d_1">
      <path clip-path="url(#pc09da1e024)" d="M 42.666875 295.191562 
L 42.666875 23.391562 
" style="fill:none;stroke:#b0b0b0;stroke-linecap:square;stroke-opacity:0.2;stroke-width:0.8;"/>
     </g>
     <g id="line2d_2">
      <defs>
       <path d="M 0 0 
L 0 3.5 
" id="md60ed44bf1" style="stroke:#000000;stroke-width:0.8;"/>
      </defs>
      <g>
       <use style="stroke:#000000;stroke-width:0.8;" x="42.666875" xlink:href="#md60ed44bf1" y="295.191562"/>
      </g>
     </g>
     <g id="text_1">
      <!-- 0 -->
      <g transform="translate(39.330313 310.780937)scale(0.12 -0.12)">
       <defs>
        <path d="M 266 2259 
Q 266 3072 433 3567 
Q 600 4063 929 4331 
Q 1259 4600 1759 4600 
Q 2128 4600 2406 4451 
Q 2684 4303 2865 4023 
Q 3047 3744 3150 3342 
Q 3253 2941 3253 2259 
Q 3253 1453 3087 958 
Q 2922 463 2592 192 
Q 2263 -78 1759 -78 
Q 1097 -78 719 397 
Q 266 969 266 2259 
z
M 844 2259 
Q 844 1131 1108 757 
Q 1372 384 1759 384 
Q 2147 384 2411 759 
Q 2675 1134 2675 2259 
Q 2675 3391 2411 3762 
Q 2147 4134 1753 4134 
Q 1366 4134 1134 3806 
Q 844 3388 844 2259 
z
" id="ArialMT-30" transform="scale(0.015625)"/>
       </defs>
       <use xlink:href="#ArialMT-30"/>
      </g>
     </g>
    </g>
    <g id="xtick_2">
     <g id="line2d_3">
      <path clip-path="url(#pc09da1e024)" d="M 103.332889 295.191562 
L 103.332889 23.391562 
" style="fill:none;stroke:#b0b0b0;stroke-linecap:square;stroke-opacity:0.2;stroke-width:0.8;"/>
     </g>
     <g id="line2d_4">
      <g>
       <use style="stroke:#000000;stroke-width:0.8;" x="103.332889" xlink:href="#md60ed44bf1" y="295.191562"/>
      </g>
     </g>
     <g id="text_2">
      <!-- 500 -->
      <g transform="translate(93.323201 310.780937)scale(0.12 -0.12)">
       <defs>
        <path d="M 266 1200 
L 856 1250 
Q 922 819 1161 601 
Q 1400 384 1738 384 
Q 2144 384 2425 690 
Q 2706 997 2706 1503 
Q 2706 1984 2436 2262 
Q 2166 2541 1728 2541 
Q 1456 2541 1237 2417 
Q 1019 2294 894 2097 
L 366 2166 
L 809 4519 
L 3088 4519 
L 3088 3981 
L 1259 3981 
L 1013 2750 
Q 1425 3038 1878 3038 
Q 2478 3038 2890 2622 
Q 3303 2206 3303 1553 
Q 3303 931 2941 478 
Q 2500 -78 1738 -78 
Q 1113 -78 717 272 
Q 322 622 266 1200 
z
" id="ArialMT-35" transform="scale(0.015625)"/>
       </defs>
       <use xlink:href="#ArialMT-35"/>
       <use x="55.615234" xlink:href="#ArialMT-30"/>
       <use x="111.230469" xlink:href="#ArialMT-30"/>
      </g>
     </g>
    </g>
    <g id="xtick_3">
     <g id="line2d_5">
      <path clip-path="url(#pc09da1e024)" d="M 163.998902 295.191562 
L 163.998902 23.391562 
" style="fill:none;stroke:#b0b0b0;stroke-linecap:square;stroke-opacity:0.2;stroke-width:0.8;"/>
     </g>
     <g id="line2d_6">
      <g>
       <use style="stroke:#000000;stroke-width:0.8;" x="163.998902" xlink:href="#md60ed44bf1" y="295.191562"/>
      </g>
     </g>
     <g id="text_3">
      <!-- 1000 -->
      <g transform="translate(150.652652 310.780937)scale(0.12 -0.12)">
       <defs>
        <path d="M 2384 0 
L 1822 0 
L 1822 3584 
Q 1619 3391 1289 3197 
Q 959 3003 697 2906 
L 697 3450 
Q 1169 3672 1522 3987 
Q 1875 4303 2022 4600 
L 2384 4600 
L 2384 0 
z
" id="ArialMT-31" transform="scale(0.015625)"/>
       </defs>
       <use xlink:href="#ArialMT-31"/>
       <use x="55.615234" xlink:href="#ArialMT-30"/>
       <use x="111.230469" xlink:href="#ArialMT-30"/>
       <use x="166.845703" xlink:href="#ArialMT-30"/>
      </g>
     </g>
    </g>
    <g id="xtick_4">
     <g id="line2d_7">
      <path clip-path="url(#pc09da1e024)" d="M 224.664916 295.191562 
L 224.664916 23.391562 
" style="fill:none;stroke:#b0b0b0;stroke-linecap:square;stroke-opacity:0.2;stroke-width:0.8;"/>
     </g>
     <g id="line2d_8">
      <g>
       <use style="stroke:#000000;stroke-width:0.8;" x="224.664916" xlink:href="#md60ed44bf1" y="295.191562"/>
      </g>
     </g>
     <g id="text_4">
      <!-- 1500 -->
      <g transform="translate(211.318666 310.780937)scale(0.12 -0.12)">
       <use xlink:href="#ArialMT-31"/>
       <use x="55.615234" xlink:href="#ArialMT-35"/>
       <use x="111.230469" xlink:href="#ArialMT-30"/>
       <use x="166.845703" xlink:href="#ArialMT-30"/>
      </g>
     </g>
    </g>
    <g id="xtick_5">
     <g id="line2d_9">
      <path clip-path="url(#pc09da1e024)" d="M 285.33093 295.191562 
L 285.33093 23.391562 
" style="fill:none;stroke:#b0b0b0;stroke-linecap:square;stroke-opacity:0.2;stroke-width:0.8;"/>
     </g>
     <g id="line2d_10">
      <g>
       <use style="stroke:#000000;stroke-width:0.8;" x="285.33093" xlink:href="#md60ed44bf1" y="295.191562"/>
      </g>
     </g>
     <g id="text_5">
      <!-- 2000 -->
      <g transform="translate(271.98468 310.780937)scale(0.12 -0.12)">
       <defs>
        <path d="M 3222 541 
L 3222 0 
L 194 0 
Q 188 203 259 391 
Q 375 700 629 1000 
Q 884 1300 1366 1694 
Q 2113 2306 2375 2664 
Q 2638 3022 2638 3341 
Q 2638 3675 2398 3904 
Q 2159 4134 1775 4134 
Q 1369 4134 1125 3890 
Q 881 3647 878 3216 
L 300 3275 
Q 359 3922 746 4261 
Q 1134 4600 1788 4600 
Q 2447 4600 2831 4234 
Q 3216 3869 3216 3328 
Q 3216 3053 3103 2787 
Q 2991 2522 2730 2228 
Q 2469 1934 1863 1422 
Q 1356 997 1212 845 
Q 1069 694 975 541 
L 3222 541 
z
" id="ArialMT-32" transform="scale(0.015625)"/>
       </defs>
       <use xlink:href="#ArialMT-32"/>
       <use x="55.615234" xlink:href="#ArialMT-30"/>
       <use x="111.230469" xlink:href="#ArialMT-30"/>
       <use x="166.845703" xlink:href="#ArialMT-30"/>
      </g>
     </g>
    </g>
    <g id="text_6">
     <!-- Discharge [cfs] -->
     <g transform="translate(126.077298 325.901562)scale(0.12 -0.12)">
      <defs>
       <path d="M 494 0 
L 494 4581 
L 2072 4581 
Q 2606 4581 2888 4516 
Q 3281 4425 3559 4188 
Q 3922 3881 4101 3404 
Q 4281 2928 4281 2316 
Q 4281 1794 4159 1391 
Q 4038 988 3847 723 
Q 3656 459 3429 307 
Q 3203 156 2883 78 
Q 2563 0 2147 0 
L 494 0 
z
M 1100 541 
L 2078 541 
Q 2531 541 2789 625 
Q 3047 709 3200 863 
Q 3416 1078 3536 1442 
Q 3656 1806 3656 2325 
Q 3656 3044 3420 3430 
Q 3184 3816 2847 3947 
Q 2603 4041 2063 4041 
L 1100 4041 
L 1100 541 
z
" id="ArialMT-44" transform="scale(0.015625)"/>
       <path d="M 425 3934 
L 425 4581 
L 988 4581 
L 988 3934 
L 425 3934 
z
M 425 0 
L 425 3319 
L 988 3319 
L 988 0 
L 425 0 
z
" id="ArialMT-69" transform="scale(0.015625)"/>
       <path d="M 197 991 
L 753 1078 
Q 800 744 1014 566 
Q 1228 388 1613 388 
Q 2000 388 2187 545 
Q 2375 703 2375 916 
Q 2375 1106 2209 1216 
Q 2094 1291 1634 1406 
Q 1016 1563 777 1677 
Q 538 1791 414 1992 
Q 291 2194 291 2438 
Q 291 2659 392 2848 
Q 494 3038 669 3163 
Q 800 3259 1026 3326 
Q 1253 3394 1513 3394 
Q 1903 3394 2198 3281 
Q 2494 3169 2634 2976 
Q 2775 2784 2828 2463 
L 2278 2388 
Q 2241 2644 2061 2787 
Q 1881 2931 1553 2931 
Q 1166 2931 1000 2803 
Q 834 2675 834 2503 
Q 834 2394 903 2306 
Q 972 2216 1119 2156 
Q 1203 2125 1616 2013 
Q 2213 1853 2448 1751 
Q 2684 1650 2818 1456 
Q 2953 1263 2953 975 
Q 2953 694 2789 445 
Q 2625 197 2315 61 
Q 2006 -75 1616 -75 
Q 969 -75 630 194 
Q 291 463 197 991 
z
" id="ArialMT-73" transform="scale(0.015625)"/>
       <path d="M 2588 1216 
L 3141 1144 
Q 3050 572 2676 248 
Q 2303 -75 1759 -75 
Q 1078 -75 664 370 
Q 250 816 250 1647 
Q 250 2184 428 2587 
Q 606 2991 970 3192 
Q 1334 3394 1763 3394 
Q 2303 3394 2647 3120 
Q 2991 2847 3088 2344 
L 2541 2259 
Q 2463 2594 2264 2762 
Q 2066 2931 1784 2931 
Q 1359 2931 1093 2626 
Q 828 2322 828 1663 
Q 828 994 1084 691 
Q 1341 388 1753 388 
Q 2084 388 2306 591 
Q 2528 794 2588 1216 
z
" id="ArialMT-63" transform="scale(0.015625)"/>
       <path d="M 422 0 
L 422 4581 
L 984 4581 
L 984 2938 
Q 1378 3394 1978 3394 
Q 2347 3394 2619 3248 
Q 2891 3103 3008 2847 
Q 3125 2591 3125 2103 
L 3125 0 
L 2563 0 
L 2563 2103 
Q 2563 2525 2380 2717 
Q 2197 2909 1863 2909 
Q 1613 2909 1392 2779 
Q 1172 2650 1078 2428 
Q 984 2206 984 1816 
L 984 0 
L 422 0 
z
" id="ArialMT-68" transform="scale(0.015625)"/>
       <path d="M 2588 409 
Q 2275 144 1986 34 
Q 1697 -75 1366 -75 
Q 819 -75 525 192 
Q 231 459 231 875 
Q 231 1119 342 1320 
Q 453 1522 633 1644 
Q 813 1766 1038 1828 
Q 1203 1872 1538 1913 
Q 2219 1994 2541 2106 
Q 2544 2222 2544 2253 
Q 2544 2597 2384 2738 
Q 2169 2928 1744 2928 
Q 1347 2928 1158 2789 
Q 969 2650 878 2297 
L 328 2372 
Q 403 2725 575 2942 
Q 747 3159 1072 3276 
Q 1397 3394 1825 3394 
Q 2250 3394 2515 3294 
Q 2781 3194 2906 3042 
Q 3031 2891 3081 2659 
Q 3109 2516 3109 2141 
L 3109 1391 
Q 3109 606 3145 398 
Q 3181 191 3288 0 
L 2700 0 
Q 2613 175 2588 409 
z
M 2541 1666 
Q 2234 1541 1622 1453 
Q 1275 1403 1131 1340 
Q 988 1278 909 1158 
Q 831 1038 831 891 
Q 831 666 1001 516 
Q 1172 366 1500 366 
Q 1825 366 2078 508 
Q 2331 650 2450 897 
Q 2541 1088 2541 1459 
L 2541 1666 
z
" id="ArialMT-61" transform="scale(0.015625)"/>
       <path d="M 416 0 
L 416 3319 
L 922 3319 
L 922 2816 
Q 1116 3169 1280 3281 
Q 1444 3394 1641 3394 
Q 1925 3394 2219 3213 
L 2025 2691 
Q 1819 2813 1613 2813 
Q 1428 2813 1281 2702 
Q 1134 2591 1072 2394 
Q 978 2094 978 1738 
L 978 0 
L 416 0 
z
" id="ArialMT-72" transform="scale(0.015625)"/>
       <path d="M 319 -275 
L 866 -356 
Q 900 -609 1056 -725 
Q 1266 -881 1628 -881 
Q 2019 -881 2231 -725 
Q 2444 -569 2519 -288 
Q 2563 -116 2559 434 
Q 2191 0 1641 0 
Q 956 0 581 494 
Q 206 988 206 1678 
Q 206 2153 378 2554 
Q 550 2956 876 3175 
Q 1203 3394 1644 3394 
Q 2231 3394 2613 2919 
L 2613 3319 
L 3131 3319 
L 3131 450 
Q 3131 -325 2973 -648 
Q 2816 -972 2473 -1159 
Q 2131 -1347 1631 -1347 
Q 1038 -1347 672 -1080 
Q 306 -813 319 -275 
z
M 784 1719 
Q 784 1066 1043 766 
Q 1303 466 1694 466 
Q 2081 466 2343 764 
Q 2606 1063 2606 1700 
Q 2606 2309 2336 2618 
Q 2066 2928 1684 2928 
Q 1309 2928 1046 2623 
Q 784 2319 784 1719 
z
" id="ArialMT-67" transform="scale(0.015625)"/>
       <path d="M 2694 1069 
L 3275 997 
Q 3138 488 2766 206 
Q 2394 -75 1816 -75 
Q 1088 -75 661 373 
Q 234 822 234 1631 
Q 234 2469 665 2931 
Q 1097 3394 1784 3394 
Q 2450 3394 2872 2941 
Q 3294 2488 3294 1666 
Q 3294 1616 3291 1516 
L 816 1516 
Q 847 969 1125 678 
Q 1403 388 1819 388 
Q 2128 388 2347 550 
Q 2566 713 2694 1069 
z
M 847 1978 
L 2700 1978 
Q 2663 2397 2488 2606 
Q 2219 2931 1791 2931 
Q 1403 2931 1139 2672 
Q 875 2413 847 1978 
z
" id="ArialMT-65" transform="scale(0.015625)"/>
       <path id="ArialMT-20" transform="scale(0.015625)"/>
       <path d="M 434 -1272 
L 434 4581 
L 1675 4581 
L 1675 4116 
L 997 4116 
L 997 -806 
L 1675 -806 
L 1675 -1272 
L 434 -1272 
z
" id="ArialMT-5b" transform="scale(0.015625)"/>
       <path d="M 556 0 
L 556 2881 
L 59 2881 
L 59 3319 
L 556 3319 
L 556 3672 
Q 556 4006 616 4169 
Q 697 4388 901 4523 
Q 1106 4659 1475 4659 
Q 1713 4659 2000 4603 
L 1916 4113 
Q 1741 4144 1584 4144 
Q 1328 4144 1222 4034 
Q 1116 3925 1116 3625 
L 1116 3319 
L 1763 3319 
L 1763 2881 
L 1116 2881 
L 1116 0 
L 556 0 
z
" id="ArialMT-66" transform="scale(0.015625)"/>
       <path d="M 1363 -1272 
L 122 -1272 
L 122 -806 
L 800 -806 
L 800 4116 
L 122 4116 
L 122 4581 
L 1363 4581 
L 1363 -1272 
z
" id="ArialMT-5d" transform="scale(0.015625)"/>
      </defs>
      <use xlink:href="#ArialMT-44"/>
      <use x="72.216797" xlink:href="#ArialMT-69"/>
      <use x="94.433594" xlink:href="#ArialMT-73"/>
      <use x="144.433594" xlink:href="#ArialMT-63"/>
      <use x="194.433594" xlink:href="#ArialMT-68"/>
      <use x="250.048828" xlink:href="#ArialMT-61"/>
      <use x="305.664062" xlink:href="#ArialMT-72"/>
      <use x="338.964844" xlink:href="#ArialMT-67"/>
      <use x="394.580078" xlink:href="#ArialMT-65"/>
      <use x="450.195312" xlink:href="#ArialMT-20"/>
      <use x="477.978516" xlink:href="#ArialMT-5b"/>
      <use x="505.761719" xlink:href="#ArialMT-63"/>
      <use x="555.761719" xlink:href="#ArialMT-66"/>
      <use x="583.544922" xlink:href="#ArialMT-73"/>
      <use x="633.544922" xlink:href="#ArialMT-5d"/>
     </g>
    </g>
   </g>
   <g id="matplotlib.axis_2">
    <g id="ytick_1">
     <g id="line2d_11">
      <path clip-path="url(#pc09da1e024)" d="M 42.666875 295.191562 
L 288.843346 295.191562 
" style="fill:none;stroke:#b0b0b0;stroke-linecap:square;stroke-opacity:0.2;stroke-width:0.8;"/>
     </g>
     <g id="line2d_12">
      <defs>
       <path d="M 0 0 
L -3.5 0 
" id="m4e3ffe17e0" style="stroke:#000000;stroke-width:0.8;"/>
      </defs>
      <g>
       <use style="stroke:#000000;stroke-width:0.8;" x="42.666875" xlink:href="#m4e3ffe17e0" y="295.191562"/>
      </g>
     </g>
     <g id="text_7">
      <!-- 0 -->
      <g transform="translate(28.99375 299.48625)scale(0.12 -0.12)">
       <use xlink:href="#ArialMT-30"/>
      </g>
     </g>
    </g>
    <g id="ytick_2">
     <g id="line2d_13">
      <path clip-path="url(#pc09da1e024)" d="M 42.666875 240.831562 
L 288.843346 240.831562 
" style="fill:none;stroke:#b0b0b0;stroke-linecap:square;stroke-opacity:0.2;stroke-width:0.8;"/>
     </g>
     <g id="line2d_14">
      <g>
       <use style="stroke:#000000;stroke-width:0.8;" x="42.666875" xlink:href="#m4e3ffe17e0" y="240.831562"/>
      </g>
     </g>
     <g id="text_8">
      <!-- 2 -->
      <g transform="translate(28.99375 245.12625)scale(0.12 -0.12)">
       <use xlink:href="#ArialMT-32"/>
      </g>
     </g>
    </g>
    <g id="ytick_3">
     <g id="line2d_15">
      <path clip-path="url(#pc09da1e024)" d="M 42.666875 186.471562 
L 288.843346 186.471562 
" style="fill:none;stroke:#b0b0b0;stroke-linecap:square;stroke-opacity:0.2;stroke-width:0.8;"/>
     </g>
     <g id="line2d_16">
      <g>
       <use style="stroke:#000000;stroke-width:0.8;" x="42.666875" xlink:href="#m4e3ffe17e0" y="186.471562"/>
      </g>
     </g>
     <g id="text_9">
      <!-- 4 -->
      <g transform="translate(28.99375 190.76625)scale(0.12 -0.12)">
       <defs>
        <path d="M 2069 0 
L 2069 1097 
L 81 1097 
L 81 1613 
L 2172 4581 
L 2631 4581 
L 2631 1613 
L 3250 1613 
L 3250 1097 
L 2631 1097 
L 2631 0 
L 2069 0 
z
M 2069 1613 
L 2069 3678 
L 634 1613 
L 2069 1613 
z
" id="ArialMT-34" transform="scale(0.015625)"/>
       </defs>
       <use xlink:href="#ArialMT-34"/>
      </g>
     </g>
    </g>
    <g id="ytick_4">
     <g id="line2d_17">
      <path clip-path="url(#pc09da1e024)" d="M 42.666875 132.111562 
L 288.843346 132.111562 
" style="fill:none;stroke:#b0b0b0;stroke-linecap:square;stroke-opacity:0.2;stroke-width:0.8;"/>
     </g>
     <g id="line2d_18">
      <g>
       <use style="stroke:#000000;stroke-width:0.8;" x="42.666875" xlink:href="#m4e3ffe17e0" y="132.111562"/>
      </g>
     </g>
     <g id="text_10">
      <!-- 6 -->
      <g transform="translate(28.99375 136.40625)scale(0.12 -0.12)">
       <defs>
        <path d="M 3184 3459 
L 2625 3416 
Q 2550 3747 2413 3897 
Q 2184 4138 1850 4138 
Q 1581 4138 1378 3988 
Q 1113 3794 959 3422 
Q 806 3050 800 2363 
Q 1003 2672 1297 2822 
Q 1591 2972 1913 2972 
Q 2475 2972 2870 2558 
Q 3266 2144 3266 1488 
Q 3266 1056 3080 686 
Q 2894 316 2569 119 
Q 2244 -78 1831 -78 
Q 1128 -78 684 439 
Q 241 956 241 2144 
Q 241 3472 731 4075 
Q 1159 4600 1884 4600 
Q 2425 4600 2770 4297 
Q 3116 3994 3184 3459 
z
M 888 1484 
Q 888 1194 1011 928 
Q 1134 663 1356 523 
Q 1578 384 1822 384 
Q 2178 384 2434 671 
Q 2691 959 2691 1453 
Q 2691 1928 2437 2201 
Q 2184 2475 1800 2475 
Q 1419 2475 1153 2201 
Q 888 1928 888 1484 
z
" id="ArialMT-36" transform="scale(0.015625)"/>
       </defs>
       <use xlink:href="#ArialMT-36"/>
      </g>
     </g>
    </g>
    <g id="ytick_5">
     <g id="line2d_19">
      <path clip-path="url(#pc09da1e024)" d="M 42.666875 77.751562 
L 288.843346 77.751562 
" style="fill:none;stroke:#b0b0b0;stroke-linecap:square;stroke-opacity:0.2;stroke-width:0.8;"/>
     </g>
     <g id="line2d_20">
      <g>
       <use style="stroke:#000000;stroke-width:0.8;" x="42.666875" xlink:href="#m4e3ffe17e0" y="77.751562"/>
      </g>
     </g>
     <g id="text_11">
      <!-- 8 -->
      <g transform="translate(28.99375 82.04625)scale(0.12 -0.12)">
       <defs>
        <path d="M 1131 2484 
Q 781 2613 612 2850 
Q 444 3088 444 3419 
Q 444 3919 803 4259 
Q 1163 4600 1759 4600 
Q 2359 4600 2725 4251 
Q 3091 3903 3091 3403 
Q 3091 3084 2923 2848 
Q 2756 2613 2416 2484 
Q 2838 2347 3058 2040 
Q 3278 1734 3278 1309 
Q 3278 722 2862 322 
Q 2447 -78 1769 -78 
Q 1091 -78 675 323 
Q 259 725 259 1325 
Q 259 1772 486 2073 
Q 713 2375 1131 2484 
z
M 1019 3438 
Q 1019 3113 1228 2906 
Q 1438 2700 1772 2700 
Q 2097 2700 2305 2904 
Q 2513 3109 2513 3406 
Q 2513 3716 2298 3927 
Q 2084 4138 1766 4138 
Q 1444 4138 1231 3931 
Q 1019 3725 1019 3438 
z
M 838 1322 
Q 838 1081 952 856 
Q 1066 631 1291 507 
Q 1516 384 1775 384 
Q 2178 384 2440 643 
Q 2703 903 2703 1303 
Q 2703 1709 2433 1975 
Q 2163 2241 1756 2241 
Q 1359 2241 1098 1978 
Q 838 1716 838 1322 
z
" id="ArialMT-38" transform="scale(0.015625)"/>
       </defs>
       <use xlink:href="#ArialMT-38"/>
      </g>
     </g>
    </g>
    <g id="ytick_6">
     <g id="line2d_21">
      <path clip-path="url(#pc09da1e024)" d="M 42.666875 23.391562 
L 288.843346 23.391562 
" style="fill:none;stroke:#b0b0b0;stroke-linecap:square;stroke-opacity:0.2;stroke-width:0.8;"/>
     </g>
     <g id="line2d_22">
      <g>
       <use style="stroke:#000000;stroke-width:0.8;" x="42.666875" xlink:href="#m4e3ffe17e0" y="23.391562"/>
      </g>
     </g>
     <g id="text_12">
      <!-- 10 -->
      <g transform="translate(22.320625 27.68625)scale(0.12 -0.12)">
       <use xlink:href="#ArialMT-31"/>
       <use x="55.615234" xlink:href="#ArialMT-30"/>
      </g>
     </g>
    </g>
    <g id="text_13">
     <!-- Normal Depth in Pipe [ft] -->
     <g transform="translate(15.935625 224.649375)rotate(-90)scale(0.12 -0.12)">
      <defs>
       <path d="M 488 0 
L 488 4581 
L 1109 4581 
L 3516 984 
L 3516 4581 
L 4097 4581 
L 4097 0 
L 3475 0 
L 1069 3600 
L 1069 0 
L 488 0 
z
" id="ArialMT-4e" transform="scale(0.015625)"/>
       <path d="M 213 1659 
Q 213 2581 725 3025 
Q 1153 3394 1769 3394 
Q 2453 3394 2887 2945 
Q 3322 2497 3322 1706 
Q 3322 1066 3130 698 
Q 2938 331 2570 128 
Q 2203 -75 1769 -75 
Q 1072 -75 642 372 
Q 213 819 213 1659 
z
M 791 1659 
Q 791 1022 1069 705 
Q 1347 388 1769 388 
Q 2188 388 2466 706 
Q 2744 1025 2744 1678 
Q 2744 2294 2464 2611 
Q 2184 2928 1769 2928 
Q 1347 2928 1069 2612 
Q 791 2297 791 1659 
z
" id="ArialMT-6f" transform="scale(0.015625)"/>
       <path d="M 422 0 
L 422 3319 
L 925 3319 
L 925 2853 
Q 1081 3097 1340 3245 
Q 1600 3394 1931 3394 
Q 2300 3394 2536 3241 
Q 2772 3088 2869 2813 
Q 3263 3394 3894 3394 
Q 4388 3394 4653 3120 
Q 4919 2847 4919 2278 
L 4919 0 
L 4359 0 
L 4359 2091 
Q 4359 2428 4304 2576 
Q 4250 2725 4106 2815 
Q 3963 2906 3769 2906 
Q 3419 2906 3187 2673 
Q 2956 2441 2956 1928 
L 2956 0 
L 2394 0 
L 2394 2156 
Q 2394 2531 2256 2718 
Q 2119 2906 1806 2906 
Q 1569 2906 1367 2781 
Q 1166 2656 1075 2415 
Q 984 2175 984 1722 
L 984 0 
L 422 0 
z
" id="ArialMT-6d" transform="scale(0.015625)"/>
       <path d="M 409 0 
L 409 4581 
L 972 4581 
L 972 0 
L 409 0 
z
" id="ArialMT-6c" transform="scale(0.015625)"/>
       <path d="M 422 -1272 
L 422 3319 
L 934 3319 
L 934 2888 
Q 1116 3141 1344 3267 
Q 1572 3394 1897 3394 
Q 2322 3394 2647 3175 
Q 2972 2956 3137 2557 
Q 3303 2159 3303 1684 
Q 3303 1175 3120 767 
Q 2938 359 2589 142 
Q 2241 -75 1856 -75 
Q 1575 -75 1351 44 
Q 1128 163 984 344 
L 984 -1272 
L 422 -1272 
z
M 931 1641 
Q 931 1000 1190 694 
Q 1450 388 1819 388 
Q 2194 388 2461 705 
Q 2728 1022 2728 1688 
Q 2728 2322 2467 2637 
Q 2206 2953 1844 2953 
Q 1484 2953 1207 2617 
Q 931 2281 931 1641 
z
" id="ArialMT-70" transform="scale(0.015625)"/>
       <path d="M 1650 503 
L 1731 6 
Q 1494 -44 1306 -44 
Q 1000 -44 831 53 
Q 663 150 594 308 
Q 525 466 525 972 
L 525 2881 
L 113 2881 
L 113 3319 
L 525 3319 
L 525 4141 
L 1084 4478 
L 1084 3319 
L 1650 3319 
L 1650 2881 
L 1084 2881 
L 1084 941 
Q 1084 700 1114 631 
Q 1144 563 1211 522 
Q 1278 481 1403 481 
Q 1497 481 1650 503 
z
" id="ArialMT-74" transform="scale(0.015625)"/>
       <path d="M 422 0 
L 422 3319 
L 928 3319 
L 928 2847 
Q 1294 3394 1984 3394 
Q 2284 3394 2536 3286 
Q 2788 3178 2913 3003 
Q 3038 2828 3088 2588 
Q 3119 2431 3119 2041 
L 3119 0 
L 2556 0 
L 2556 2019 
Q 2556 2363 2490 2533 
Q 2425 2703 2258 2804 
Q 2091 2906 1866 2906 
Q 1506 2906 1245 2678 
Q 984 2450 984 1813 
L 984 0 
L 422 0 
z
" id="ArialMT-6e" transform="scale(0.015625)"/>
       <path d="M 494 0 
L 494 4581 
L 2222 4581 
Q 2678 4581 2919 4538 
Q 3256 4481 3484 4323 
Q 3713 4166 3852 3881 
Q 3991 3597 3991 3256 
Q 3991 2672 3619 2267 
Q 3247 1863 2275 1863 
L 1100 1863 
L 1100 0 
L 494 0 
z
M 1100 2403 
L 2284 2403 
Q 2872 2403 3119 2622 
Q 3366 2841 3366 3238 
Q 3366 3525 3220 3729 
Q 3075 3934 2838 4000 
Q 2684 4041 2272 4041 
L 1100 4041 
L 1100 2403 
z
" id="ArialMT-50" transform="scale(0.015625)"/>
      </defs>
      <use xlink:href="#ArialMT-4e"/>
      <use x="72.216797" xlink:href="#ArialMT-6f"/>
      <use x="127.832031" xlink:href="#ArialMT-72"/>
      <use x="161.132812" xlink:href="#ArialMT-6d"/>
      <use x="244.433594" xlink:href="#ArialMT-61"/>
      <use x="300.048828" xlink:href="#ArialMT-6c"/>
      <use x="322.265625" xlink:href="#ArialMT-20"/>
      <use x="350.048828" xlink:href="#ArialMT-44"/>
      <use x="422.265625" xlink:href="#ArialMT-65"/>
      <use x="477.880859" xlink:href="#ArialMT-70"/>
      <use x="533.496094" xlink:href="#ArialMT-74"/>
      <use x="561.279297" xlink:href="#ArialMT-68"/>
      <use x="616.894531" xlink:href="#ArialMT-20"/>
      <use x="644.677734" xlink:href="#ArialMT-69"/>
      <use x="666.894531" xlink:href="#ArialMT-6e"/>
      <use x="722.509766" xlink:href="#ArialMT-20"/>
      <use x="750.292969" xlink:href="#ArialMT-50"/>
      <use x="816.992188" xlink:href="#ArialMT-69"/>
      <use x="839.208984" xlink:href="#ArialMT-70"/>
      <use x="894.824219" xlink:href="#ArialMT-65"/>
      <use x="950.439453" xlink:href="#ArialMT-20"/>
      <use x="978.222656" xlink:href="#ArialMT-5b"/>
      <use x="1006.005859" xlink:href="#ArialMT-66"/>
      <use x="1033.789062" xlink:href="#ArialMT-74"/>
      <use x="1061.572266" xlink:href="#ArialMT-5d"/>
     </g>
    </g>
   </g>
   <g id="line2d_23">
    <path clip-path="url(#pc09da1e024)" d="M 42.666877 295.164382 
L 42.776492 290.544326 
L 43.09975 286.386275 
L 43.619076 282.459227 
L 44.353333 278.532179 
L 45.305452 274.605132 
L 46.476002 270.678084 
L 47.952287 266.520033 
L 49.669502 262.361982 
L 51.623703 258.203931 
L 53.938127 253.814878 
L 56.504357 249.425824 
L 59.469303 244.805768 
L 62.69504 240.185711 
L 66.351148 235.334652 
L 70.462922 230.25259 
L 75.052501 224.939525 
L 80.138032 219.395458 
L 85.732744 213.620387 
L 92.084524 207.383311 
L 99.224461 200.684229 
L 107.429654 193.292139 
L 117.259765 184.745035 
L 129.837436 174.118905 
L 166.143472 143.626533 
L 175.024438 135.772437 
L 182.271482 129.073355 
L 188.4401 123.067282 
L 193.583235 117.754217 
L 197.977575 112.903158 
L 201.668894 108.514104 
L 204.883645 104.356053 
L 207.636538 100.429005 
L 209.94624 96.73296 
L 211.718001 93.498921 
L 213.131925 90.495884 
L 214.298411 87.492847 
L 215.130082 84.720813 
L 215.660337 82.179782 
L 215.924964 79.869754 
L 215.96213 77.790729 
L 215.780392 75.711703 
L 215.404253 73.863681 
L 214.785514 72.015658 
L 213.997755 70.398639 
L 213.086951 69.012622 
L 212.106234 67.857608 
L 210.837184 66.702594 
L 209.493795 65.778582 
L 208.13513 65.085574 
L 206.867327 64.623568 
L 205.960476 64.392565 
L 205.960476 64.392565 
" style="fill:none;stroke:#1f77b4;stroke-linecap:square;stroke-width:1.5;"/>
   </g>
   <g id="line2d_24">
    <path clip-path="url(#pc09da1e024)" d="M 42.666876 295.164382 
L 42.779157 289.865098 
L 43.108055 285.095742 
L 43.644534 280.503028 
L 44.399942 275.910315 
L 45.414662 271.140959 
L 46.659329 266.371603 
L 48.185502 261.425604 
L 49.941723 256.479605 
L 51.991084 251.356963 
L 54.425245 245.881036 
L 57.182187 240.228465 
L 60.358417 234.22261 
L 64.070842 227.686825 
L 68.449269 220.44447 
L 73.738468 212.142257 
L 80.885964 201.367045 
L 96.195637 178.403478 
L 101.061243 170.631194 
L 104.791434 164.272053 
L 107.854909 158.619483 
L 110.293173 153.673484 
L 112.313477 149.08077 
L 113.931956 144.841343 
L 115.120863 141.131843 
L 116.022728 137.598987 
L 116.609281 134.419416 
L 116.918927 131.593131 
L 116.991622 128.943489 
L 116.844784 126.647132 
L 116.486939 124.527418 
L 115.967149 122.76099 
L 115.337815 121.347848 
L 114.664214 120.287991 
L 113.850219 119.404777 
L 113.090927 118.874848 
L 112.701993 118.698205 
L 112.701993 118.698205 
" style="fill:none;stroke:#d62728;stroke-linecap:square;stroke-width:1.5;"/>
   </g>
   <g id="line2d_25">
    <path clip-path="url(#pc09da1e024)" d="M 42.666877 295.164382 
L 42.771353 290.544245 
L 43.099564 286.195879 
L 43.630194 282.119287 
L 44.384983 278.042695 
L 45.368041 273.966103 
L 46.581053 269.88951 
L 48.024036 265.812918 
L 49.69577 261.736326 
L 51.728605 257.387961 
L 54.015566 253.039595 
L 56.552171 248.69123 
L 59.51502 244.071092 
L 62.74681 239.450954 
L 66.453277 234.559044 
L 70.442727 229.667133 
L 74.949106 224.503449 
L 79.745762 219.339766 
L 85.093133 213.904309 
L 91.018715 208.19708 
L 97.545802 202.218078 
L 104.692391 195.967303 
L 112.800647 189.172983 
L 121.911134 181.835117 
L 132.402727 173.681932 
L 144.671291 164.441656 
L 160.2173 153.027198 
L 208.626207 117.696731 
L 219.639033 109.271774 
L 228.870152 101.933907 
L 236.718333 95.41136 
L 243.254275 89.704131 
L 249.14433 84.268674 
L 254.127097 79.376763 
L 258.521251 74.756625 
L 262.348345 70.40826 
L 265.634889 66.331668 
L 268.411805 62.526849 
L 270.713924 58.993802 
L 272.579493 55.732528 
L 274.049716 52.743027 
L 275.267958 49.753526 
L 276.134711 47.035798 
L 276.69825 44.589842 
L 277.034147 42.143887 
L 277.11952 39.969705 
L 276.978451 37.795522 
L 276.643565 35.893112 
L 276.080115 33.990702 
L 275.383544 32.360066 
L 274.449207 30.729429 
L 273.446673 29.370565 
L 272.182101 28.0117 
L 270.918149 26.924609 
L 269.329718 25.837518 
L 267.805097 25.022199 
L 265.737578 24.206881 
L 263.576043 23.663335 
L 263.576043 23.663335 
" style="fill:none;stroke:#2ca02c;stroke-linecap:square;stroke-width:1.5;"/>
   </g>
   <g id="line2d_26">
    <path clip-path="url(#pc09da1e024)" d="M 148.711067 295.191562 
L 148.711067 23.391562 
" style="fill:none;stroke:#000000;stroke-dasharray:5.55,2.4;stroke-dashoffset:0;stroke-width:1.5;"/>
   </g>
   <g id="patch_3">
    <path d="M 42.666875 295.191562 
L 42.666875 23.391562 
" style="fill:none;stroke:#000000;stroke-linecap:square;stroke-linejoin:miter;stroke-width:0.8;"/>
   </g>
   <g id="patch_4">
    <path d="M 288.843346 295.191562 
L 288.843346 23.391562 
" style="fill:none;stroke:#000000;stroke-linecap:square;stroke-linejoin:miter;stroke-width:0.8;"/>
   </g>
   <g id="patch_5">
    <path d="M 42.666875 295.191562 
L 288.843346 295.191562 
" style="fill:none;stroke:#000000;stroke-linecap:square;stroke-linejoin:miter;stroke-width:0.8;"/>
   </g>
   <g id="patch_6">
    <path d="M 42.666875 23.391562 
L 288.843346 23.391562 
" style="fill:none;stroke:#000000;stroke-linecap:square;stroke-linejoin:miter;stroke-width:0.8;"/>
   </g>
   <g id="text_14">
    <!-- Distribute Flow Equally -->
    <g transform="translate(88.363548 17.391562)scale(0.14 -0.14)">
     <defs>
      <path d="M 463 4581 
L 2153 4581 
Q 2725 4581 3025 4494 
Q 3428 4375 3715 4072 
Q 4003 3769 4153 3330 
Q 4303 2891 4303 2247 
Q 4303 1681 4163 1272 
Q 3991 772 3672 463 
Q 3431 228 3022 97 
Q 2716 0 2203 0 
L 463 0 
L 463 4581 
z
M 1388 3806 
L 1388 772 
L 2078 772 
Q 2466 772 2638 816 
Q 2863 872 3011 1006 
Q 3159 1141 3253 1448 
Q 3347 1756 3347 2288 
Q 3347 2819 3253 3103 
Q 3159 3388 2990 3547 
Q 2822 3706 2563 3763 
Q 2369 3806 1803 3806 
L 1388 3806 
z
" id="Arial-BoldMT-44" transform="scale(0.015625)"/>
      <path d="M 459 3769 
L 459 4581 
L 1338 4581 
L 1338 3769 
L 459 3769 
z
M 459 0 
L 459 3319 
L 1338 3319 
L 1338 0 
L 459 0 
z
" id="Arial-BoldMT-69" transform="scale(0.015625)"/>
      <path d="M 150 947 
L 1031 1081 
Q 1088 825 1259 692 
Q 1431 559 1741 559 
Q 2081 559 2253 684 
Q 2369 772 2369 919 
Q 2369 1019 2306 1084 
Q 2241 1147 2013 1200 
Q 950 1434 666 1628 
Q 272 1897 272 2375 
Q 272 2806 612 3100 
Q 953 3394 1669 3394 
Q 2350 3394 2681 3172 
Q 3013 2950 3138 2516 
L 2309 2363 
Q 2256 2556 2107 2659 
Q 1959 2763 1684 2763 
Q 1338 2763 1188 2666 
Q 1088 2597 1088 2488 
Q 1088 2394 1175 2328 
Q 1294 2241 1995 2081 
Q 2697 1922 2975 1691 
Q 3250 1456 3250 1038 
Q 3250 581 2869 253 
Q 2488 -75 1741 -75 
Q 1063 -75 667 200 
Q 272 475 150 947 
z
" id="Arial-BoldMT-73" transform="scale(0.015625)"/>
      <path d="M 1981 3319 
L 1981 2619 
L 1381 2619 
L 1381 1281 
Q 1381 875 1398 808 
Q 1416 741 1477 697 
Q 1538 653 1625 653 
Q 1747 653 1978 738 
L 2053 56 
Q 1747 -75 1359 -75 
Q 1122 -75 931 4 
Q 741 84 652 211 
Q 563 338 528 553 
Q 500 706 500 1172 
L 500 2619 
L 97 2619 
L 97 3319 
L 500 3319 
L 500 3978 
L 1381 4491 
L 1381 3319 
L 1981 3319 
z
" id="Arial-BoldMT-74" transform="scale(0.015625)"/>
      <path d="M 1300 0 
L 422 0 
L 422 3319 
L 1238 3319 
L 1238 2847 
Q 1447 3181 1614 3287 
Q 1781 3394 1994 3394 
Q 2294 3394 2572 3228 
L 2300 2463 
Q 2078 2606 1888 2606 
Q 1703 2606 1575 2504 
Q 1447 2403 1373 2137 
Q 1300 1872 1300 1025 
L 1300 0 
z
" id="Arial-BoldMT-72" transform="scale(0.015625)"/>
      <path d="M 422 0 
L 422 4581 
L 1300 4581 
L 1300 2931 
Q 1706 3394 2263 3394 
Q 2869 3394 3266 2955 
Q 3663 2516 3663 1694 
Q 3663 844 3258 384 
Q 2853 -75 2275 -75 
Q 1991 -75 1714 67 
Q 1438 209 1238 488 
L 1238 0 
L 422 0 
z
M 1294 1731 
Q 1294 1216 1456 969 
Q 1684 619 2063 619 
Q 2353 619 2558 867 
Q 2763 1116 2763 1650 
Q 2763 2219 2556 2470 
Q 2350 2722 2028 2722 
Q 1713 2722 1503 2476 
Q 1294 2231 1294 1731 
z
" id="Arial-BoldMT-62" transform="scale(0.015625)"/>
      <path d="M 2644 0 
L 2644 497 
Q 2463 231 2167 78 
Q 1872 -75 1544 -75 
Q 1209 -75 943 72 
Q 678 219 559 484 
Q 441 750 441 1219 
L 441 3319 
L 1319 3319 
L 1319 1794 
Q 1319 1094 1367 936 
Q 1416 778 1544 686 
Q 1672 594 1869 594 
Q 2094 594 2272 717 
Q 2450 841 2515 1023 
Q 2581 1206 2581 1919 
L 2581 3319 
L 3459 3319 
L 3459 0 
L 2644 0 
z
" id="Arial-BoldMT-75" transform="scale(0.015625)"/>
      <path d="M 2381 1056 
L 3256 909 
Q 3088 428 2723 176 
Q 2359 -75 1813 -75 
Q 947 -75 531 491 
Q 203 944 203 1634 
Q 203 2459 634 2926 
Q 1066 3394 1725 3394 
Q 2466 3394 2894 2905 
Q 3322 2416 3303 1406 
L 1103 1406 
Q 1113 1016 1316 798 
Q 1519 581 1822 581 
Q 2028 581 2168 693 
Q 2309 806 2381 1056 
z
M 2431 1944 
Q 2422 2325 2234 2523 
Q 2047 2722 1778 2722 
Q 1491 2722 1303 2513 
Q 1116 2303 1119 1944 
L 2431 1944 
z
" id="Arial-BoldMT-65" transform="scale(0.015625)"/>
      <path id="Arial-BoldMT-20" transform="scale(0.015625)"/>
      <path d="M 472 0 
L 472 4581 
L 3613 4581 
L 3613 3806 
L 1397 3806 
L 1397 2722 
L 3309 2722 
L 3309 1947 
L 1397 1947 
L 1397 0 
L 472 0 
z
" id="Arial-BoldMT-46" transform="scale(0.015625)"/>
      <path d="M 459 0 
L 459 4581 
L 1338 4581 
L 1338 0 
L 459 0 
z
" id="Arial-BoldMT-6c" transform="scale(0.015625)"/>
      <path d="M 256 1706 
Q 256 2144 472 2553 
Q 688 2963 1083 3178 
Q 1478 3394 1966 3394 
Q 2719 3394 3200 2905 
Q 3681 2416 3681 1669 
Q 3681 916 3195 420 
Q 2709 -75 1972 -75 
Q 1516 -75 1102 131 
Q 688 338 472 736 
Q 256 1134 256 1706 
z
M 1156 1659 
Q 1156 1166 1390 903 
Q 1625 641 1969 641 
Q 2313 641 2545 903 
Q 2778 1166 2778 1666 
Q 2778 2153 2545 2415 
Q 2313 2678 1969 2678 
Q 1625 2678 1390 2415 
Q 1156 2153 1156 1659 
z
" id="Arial-BoldMT-6f" transform="scale(0.015625)"/>
      <path d="M 1078 0 
L 28 3319 
L 881 3319 
L 1503 1144 
L 2075 3319 
L 2922 3319 
L 3475 1144 
L 4109 3319 
L 4975 3319 
L 3909 0 
L 3066 0 
L 2494 2134 
L 1931 0 
L 1078 0 
z
" id="Arial-BoldMT-77" transform="scale(0.015625)"/>
      <path d="M 466 0 
L 466 4581 
L 3863 4581 
L 3863 3806 
L 1391 3806 
L 1391 2791 
L 3691 2791 
L 3691 2019 
L 1391 2019 
L 1391 772 
L 3950 772 
L 3950 0 
L 466 0 
z
" id="Arial-BoldMT-45" transform="scale(0.015625)"/>
      <path d="M 2628 -1263 
L 2628 406 
Q 2456 184 2200 54 
Q 1944 -75 1647 -75 
Q 1081 -75 716 350 
Q 284 847 284 1697 
Q 284 2497 689 2945 
Q 1094 3394 1694 3394 
Q 2025 3394 2267 3253 
Q 2509 3113 2697 2828 
L 2697 3319 
L 3506 3319 
L 3506 -1263 
L 2628 -1263 
z
M 2656 1700 
Q 2656 2209 2448 2457 
Q 2241 2706 1928 2706 
Q 1609 2706 1395 2453 
Q 1181 2200 1181 1650 
Q 1181 1103 1387 861 
Q 1594 619 1897 619 
Q 2200 619 2428 891 
Q 2656 1163 2656 1700 
z
" id="Arial-BoldMT-71" transform="scale(0.015625)"/>
      <path d="M 1116 2306 
L 319 2450 
Q 453 2931 781 3162 
Q 1109 3394 1756 3394 
Q 2344 3394 2631 3255 
Q 2919 3116 3036 2902 
Q 3153 2688 3153 2116 
L 3144 1091 
Q 3144 653 3186 445 
Q 3228 238 3344 0 
L 2475 0 
Q 2441 88 2391 259 
Q 2369 338 2359 363 
Q 2134 144 1878 34 
Q 1622 -75 1331 -75 
Q 819 -75 523 203 
Q 228 481 228 906 
Q 228 1188 362 1408 
Q 497 1628 739 1745 
Q 981 1863 1438 1950 
Q 2053 2066 2291 2166 
L 2291 2253 
Q 2291 2506 2166 2614 
Q 2041 2722 1694 2722 
Q 1459 2722 1328 2630 
Q 1197 2538 1116 2306 
z
M 2291 1594 
Q 2122 1538 1756 1459 
Q 1391 1381 1278 1306 
Q 1106 1184 1106 997 
Q 1106 813 1243 678 
Q 1381 544 1594 544 
Q 1831 544 2047 700 
Q 2206 819 2256 991 
Q 2291 1103 2291 1419 
L 2291 1594 
z
" id="Arial-BoldMT-61" transform="scale(0.015625)"/>
      <path d="M 44 3319 
L 978 3319 
L 1772 963 
L 2547 3319 
L 3456 3319 
L 2284 125 
L 2075 -453 
Q 1959 -744 1854 -897 
Q 1750 -1050 1614 -1145 
Q 1478 -1241 1279 -1294 
Q 1081 -1347 831 -1347 
Q 578 -1347 334 -1294 
L 256 -606 
Q 463 -647 628 -647 
Q 934 -647 1081 -467 
Q 1228 -288 1306 -9 
L 44 3319 
z
" id="Arial-BoldMT-79" transform="scale(0.015625)"/>
     </defs>
     <use xlink:href="#Arial-BoldMT-44"/>
     <use x="72.216797" xlink:href="#Arial-BoldMT-69"/>
     <use x="100" xlink:href="#Arial-BoldMT-73"/>
     <use x="155.615234" xlink:href="#Arial-BoldMT-74"/>
     <use x="188.916016" xlink:href="#Arial-BoldMT-72"/>
     <use x="227.832031" xlink:href="#Arial-BoldMT-69"/>
     <use x="255.615234" xlink:href="#Arial-BoldMT-62"/>
     <use x="316.699219" xlink:href="#Arial-BoldMT-75"/>
     <use x="377.783203" xlink:href="#Arial-BoldMT-74"/>
     <use x="411.083984" xlink:href="#Arial-BoldMT-65"/>
     <use x="466.699219" xlink:href="#Arial-BoldMT-20"/>
     <use x="494.482422" xlink:href="#Arial-BoldMT-46"/>
     <use x="555.566406" xlink:href="#Arial-BoldMT-6c"/>
     <use x="583.349609" xlink:href="#Arial-BoldMT-6f"/>
     <use x="644.433594" xlink:href="#Arial-BoldMT-77"/>
     <use x="722.216797" xlink:href="#Arial-BoldMT-20"/>
     <use x="750" xlink:href="#Arial-BoldMT-45"/>
     <use x="816.699219" xlink:href="#Arial-BoldMT-71"/>
     <use x="877.783203" xlink:href="#Arial-BoldMT-75"/>
     <use x="938.867188" xlink:href="#Arial-BoldMT-61"/>
     <use x="994.482422" xlink:href="#Arial-BoldMT-6c"/>
     <use x="1022.265625" xlink:href="#Arial-BoldMT-6c"/>
     <use x="1050.048828" xlink:href="#Arial-BoldMT-79"/>
    </g>
   </g>
   <g id="legend_1">
    <g id="patch_7">
     <path d="M 175.343971 289.191562 
L 280.443346 289.191562 
Q 282.843346 289.191562 282.843346 286.791562 
L 282.843346 236.354062 
Q 282.843346 233.954062 280.443346 233.954062 
L 175.343971 233.954062 
Q 172.943971 233.954062 172.943971 236.354062 
L 172.943971 286.791562 
Q 172.943971 289.191562 175.343971 289.191562 
z
" style="fill:#ffffff;opacity:0.8;stroke:#cccccc;stroke-linejoin:miter;"/>
    </g>
    <g id="line2d_27">
     <path d="M 177.743971 243.143437 
L 201.743971 243.143437 
" style="fill:none;stroke:#1f77b4;stroke-linecap:square;stroke-width:1.5;"/>
    </g>
    <g id="line2d_28"/>
    <g id="text_15">
     <!-- Legado -->
     <g transform="translate(211.343971 247.343437)scale(0.12 -0.12)">
      <defs>
       <path d="M 469 0 
L 469 4581 
L 1075 4581 
L 1075 541 
L 3331 541 
L 3331 0 
L 469 0 
z
" id="ArialMT-4c" transform="scale(0.015625)"/>
       <path d="M 2575 0 
L 2575 419 
Q 2259 -75 1647 -75 
Q 1250 -75 917 144 
Q 584 363 401 755 
Q 219 1147 219 1656 
Q 219 2153 384 2558 
Q 550 2963 881 3178 
Q 1213 3394 1622 3394 
Q 1922 3394 2156 3267 
Q 2391 3141 2538 2938 
L 2538 4581 
L 3097 4581 
L 3097 0 
L 2575 0 
z
M 797 1656 
Q 797 1019 1065 703 
Q 1334 388 1700 388 
Q 2069 388 2326 689 
Q 2584 991 2584 1609 
Q 2584 2291 2321 2609 
Q 2059 2928 1675 2928 
Q 1300 2928 1048 2622 
Q 797 2316 797 1656 
z
" id="ArialMT-64" transform="scale(0.015625)"/>
      </defs>
      <use xlink:href="#ArialMT-4c"/>
      <use x="55.615234" xlink:href="#ArialMT-65"/>
      <use x="111.230469" xlink:href="#ArialMT-67"/>
      <use x="166.845703" xlink:href="#ArialMT-61"/>
      <use x="222.460938" xlink:href="#ArialMT-64"/>
      <use x="278.076172" xlink:href="#ArialMT-6f"/>
     </g>
    </g>
    <g id="line2d_29">
     <path d="M 177.743971 260.404687 
L 201.743971 260.404687 
" style="fill:none;stroke:#d62728;stroke-linecap:square;stroke-width:1.5;"/>
    </g>
    <g id="line2d_30"/>
    <g id="text_16">
     <!-- Los Coyotes -->
     <g transform="translate(211.343971 264.604687)scale(0.12 -0.12)">
      <defs>
       <path d="M 3763 1606 
L 4369 1453 
Q 4178 706 3683 314 
Q 3188 -78 2472 -78 
Q 1731 -78 1267 223 
Q 803 525 561 1097 
Q 319 1669 319 2325 
Q 319 3041 592 3573 
Q 866 4106 1370 4382 
Q 1875 4659 2481 4659 
Q 3169 4659 3637 4309 
Q 4106 3959 4291 3325 
L 3694 3184 
Q 3534 3684 3231 3912 
Q 2928 4141 2469 4141 
Q 1941 4141 1586 3887 
Q 1231 3634 1087 3207 
Q 944 2781 944 2328 
Q 944 1744 1114 1308 
Q 1284 872 1643 656 
Q 2003 441 2422 441 
Q 2931 441 3284 734 
Q 3638 1028 3763 1606 
z
" id="ArialMT-43" transform="scale(0.015625)"/>
       <path d="M 397 -1278 
L 334 -750 
Q 519 -800 656 -800 
Q 844 -800 956 -737 
Q 1069 -675 1141 -563 
Q 1194 -478 1313 -144 
Q 1328 -97 1363 -6 
L 103 3319 
L 709 3319 
L 1400 1397 
Q 1534 1031 1641 628 
Q 1738 1016 1872 1384 
L 2581 3319 
L 3144 3319 
L 1881 -56 
Q 1678 -603 1566 -809 
Q 1416 -1088 1222 -1217 
Q 1028 -1347 759 -1347 
Q 597 -1347 397 -1278 
z
" id="ArialMT-79" transform="scale(0.015625)"/>
      </defs>
      <use xlink:href="#ArialMT-4c"/>
      <use x="55.615234" xlink:href="#ArialMT-6f"/>
      <use x="111.230469" xlink:href="#ArialMT-73"/>
      <use x="161.230469" xlink:href="#ArialMT-20"/>
      <use x="189.013672" xlink:href="#ArialMT-43"/>
      <use x="261.230469" xlink:href="#ArialMT-6f"/>
      <use x="316.845703" xlink:href="#ArialMT-79"/>
      <use x="366.845703" xlink:href="#ArialMT-6f"/>
      <use x="422.460938" xlink:href="#ArialMT-74"/>
      <use x="450.244141" xlink:href="#ArialMT-65"/>
      <use x="505.859375" xlink:href="#ArialMT-73"/>
     </g>
    </g>
    <g id="line2d_31">
     <path d="M 177.743971 277.665937 
L 201.743971 277.665937 
" style="fill:none;stroke:#2ca02c;stroke-linecap:square;stroke-width:1.5;"/>
    </g>
    <g id="line2d_32"/>
    <g id="text_17">
     <!-- Gibby Road -->
     <g transform="translate(211.343971 281.865937)scale(0.12 -0.12)">
      <defs>
       <path d="M 2638 1797 
L 2638 2334 
L 4578 2338 
L 4578 638 
Q 4131 281 3656 101 
Q 3181 -78 2681 -78 
Q 2006 -78 1454 211 
Q 903 500 622 1047 
Q 341 1594 341 2269 
Q 341 2938 620 3517 
Q 900 4097 1425 4378 
Q 1950 4659 2634 4659 
Q 3131 4659 3532 4498 
Q 3934 4338 4162 4050 
Q 4391 3763 4509 3300 
L 3963 3150 
Q 3859 3500 3706 3700 
Q 3553 3900 3268 4020 
Q 2984 4141 2638 4141 
Q 2222 4141 1919 4014 
Q 1616 3888 1430 3681 
Q 1244 3475 1141 3228 
Q 966 2803 966 2306 
Q 966 1694 1177 1281 
Q 1388 869 1791 669 
Q 2194 469 2647 469 
Q 3041 469 3416 620 
Q 3791 772 3984 944 
L 3984 1797 
L 2638 1797 
z
" id="ArialMT-47" transform="scale(0.015625)"/>
       <path d="M 941 0 
L 419 0 
L 419 4581 
L 981 4581 
L 981 2947 
Q 1338 3394 1891 3394 
Q 2197 3394 2470 3270 
Q 2744 3147 2920 2923 
Q 3097 2700 3197 2384 
Q 3297 2069 3297 1709 
Q 3297 856 2875 390 
Q 2453 -75 1863 -75 
Q 1275 -75 941 416 
L 941 0 
z
M 934 1684 
Q 934 1088 1097 822 
Q 1363 388 1816 388 
Q 2184 388 2453 708 
Q 2722 1028 2722 1663 
Q 2722 2313 2464 2622 
Q 2206 2931 1841 2931 
Q 1472 2931 1203 2611 
Q 934 2291 934 1684 
z
" id="ArialMT-62" transform="scale(0.015625)"/>
       <path d="M 503 0 
L 503 4581 
L 2534 4581 
Q 3147 4581 3465 4457 
Q 3784 4334 3975 4021 
Q 4166 3709 4166 3331 
Q 4166 2844 3850 2509 
Q 3534 2175 2875 2084 
Q 3116 1969 3241 1856 
Q 3506 1613 3744 1247 
L 4541 0 
L 3778 0 
L 3172 953 
Q 2906 1366 2734 1584 
Q 2563 1803 2427 1890 
Q 2291 1978 2150 2013 
Q 2047 2034 1813 2034 
L 1109 2034 
L 1109 0 
L 503 0 
z
M 1109 2559 
L 2413 2559 
Q 2828 2559 3062 2645 
Q 3297 2731 3419 2920 
Q 3541 3109 3541 3331 
Q 3541 3656 3305 3865 
Q 3069 4075 2559 4075 
L 1109 4075 
L 1109 2559 
z
" id="ArialMT-52" transform="scale(0.015625)"/>
      </defs>
      <use xlink:href="#ArialMT-47"/>
      <use x="77.783203" xlink:href="#ArialMT-69"/>
      <use x="100" xlink:href="#ArialMT-62"/>
      <use x="155.615234" xlink:href="#ArialMT-62"/>
      <use x="211.230469" xlink:href="#ArialMT-79"/>
      <use x="261.230469" xlink:href="#ArialMT-20"/>
      <use x="289.013672" xlink:href="#ArialMT-52"/>
      <use x="361.230469" xlink:href="#ArialMT-6f"/>
      <use x="416.845703" xlink:href="#ArialMT-61"/>
      <use x="472.460938" xlink:href="#ArialMT-64"/>
     </g>
    </g>
   </g>
  </g>
  <g id="axes_2">
   <g id="patch_8">
    <path d="M 338.07864 295.191562 
L 584.25511 295.191562 
L 584.25511 23.391562 
L 338.07864 23.391562 
z
" style="fill:#ffffff;"/>
   </g>
   <g id="line2d_33">
    <path clip-path="url(#pd0d2d1bd7c)" d="M 452.375895 295.191562 
L 452.375895 23.391562 
" style="fill:none;stroke:#1f77b4;stroke-dasharray:5.55,2.4;stroke-dashoffset:0;stroke-width:1.5;"/>
   </g>
   <g id="line2d_34">
    <path clip-path="url(#pd0d2d1bd7c)" d="M 387.101293 295.191562 
L 387.101293 23.391562 
" style="fill:none;stroke:#d62728;stroke-dasharray:5.55,2.4;stroke-dashoffset:0;stroke-width:1.5;"/>
   </g>
   <g id="line2d_35">
    <path clip-path="url(#pd0d2d1bd7c)" d="M 492.701392 295.191562 
L 492.701392 23.391562 
" style="fill:none;stroke:#2ca02c;stroke-dasharray:5.55,2.4;stroke-dashoffset:0;stroke-width:1.5;"/>
   </g>
   <g id="matplotlib.axis_3">
    <g id="xtick_6">
     <g id="line2d_36">
      <path clip-path="url(#pd0d2d1bd7c)" d="M 338.07864 295.191562 
L 338.07864 23.391562 
" style="fill:none;stroke:#b0b0b0;stroke-linecap:square;stroke-opacity:0.2;stroke-width:0.8;"/>
     </g>
     <g id="line2d_37">
      <g>
       <use style="stroke:#000000;stroke-width:0.8;" x="338.07864" xlink:href="#md60ed44bf1" y="295.191562"/>
      </g>
     </g>
     <g id="text_18">
      <!-- 0 -->
      <g transform="translate(334.742077 310.780937)scale(0.12 -0.12)">
       <use xlink:href="#ArialMT-30"/>
      </g>
     </g>
    </g>
    <g id="xtick_7">
     <g id="line2d_38">
      <path clip-path="url(#pd0d2d1bd7c)" d="M 398.744653 295.191562 
L 398.744653 23.391562 
" style="fill:none;stroke:#b0b0b0;stroke-linecap:square;stroke-opacity:0.2;stroke-width:0.8;"/>
     </g>
     <g id="line2d_39">
      <g>
       <use style="stroke:#000000;stroke-width:0.8;" x="398.744653" xlink:href="#md60ed44bf1" y="295.191562"/>
      </g>
     </g>
     <g id="text_19">
      <!-- 500 -->
      <g transform="translate(388.734966 310.780937)scale(0.12 -0.12)">
       <use xlink:href="#ArialMT-35"/>
       <use x="55.615234" xlink:href="#ArialMT-30"/>
       <use x="111.230469" xlink:href="#ArialMT-30"/>
      </g>
     </g>
    </g>
    <g id="xtick_8">
     <g id="line2d_40">
      <path clip-path="url(#pd0d2d1bd7c)" d="M 459.410667 295.191562 
L 459.410667 23.391562 
" style="fill:none;stroke:#b0b0b0;stroke-linecap:square;stroke-opacity:0.2;stroke-width:0.8;"/>
     </g>
     <g id="line2d_41">
      <g>
       <use style="stroke:#000000;stroke-width:0.8;" x="459.410667" xlink:href="#md60ed44bf1" y="295.191562"/>
      </g>
     </g>
     <g id="text_20">
      <!-- 1000 -->
      <g transform="translate(446.064417 310.780937)scale(0.12 -0.12)">
       <use xlink:href="#ArialMT-31"/>
       <use x="55.615234" xlink:href="#ArialMT-30"/>
       <use x="111.230469" xlink:href="#ArialMT-30"/>
       <use x="166.845703" xlink:href="#ArialMT-30"/>
      </g>
     </g>
    </g>
    <g id="xtick_9">
     <g id="line2d_42">
      <path clip-path="url(#pd0d2d1bd7c)" d="M 520.076681 295.191562 
L 520.076681 23.391562 
" style="fill:none;stroke:#b0b0b0;stroke-linecap:square;stroke-opacity:0.2;stroke-width:0.8;"/>
     </g>
     <g id="line2d_43">
      <g>
       <use style="stroke:#000000;stroke-width:0.8;" x="520.076681" xlink:href="#md60ed44bf1" y="295.191562"/>
      </g>
     </g>
     <g id="text_21">
      <!-- 1500 -->
      <g transform="translate(506.730431 310.780937)scale(0.12 -0.12)">
       <use xlink:href="#ArialMT-31"/>
       <use x="55.615234" xlink:href="#ArialMT-35"/>
       <use x="111.230469" xlink:href="#ArialMT-30"/>
       <use x="166.845703" xlink:href="#ArialMT-30"/>
      </g>
     </g>
    </g>
    <g id="xtick_10">
     <g id="line2d_44">
      <path clip-path="url(#pd0d2d1bd7c)" d="M 580.742695 295.191562 
L 580.742695 23.391562 
" style="fill:none;stroke:#b0b0b0;stroke-linecap:square;stroke-opacity:0.2;stroke-width:0.8;"/>
     </g>
     <g id="line2d_45">
      <g>
       <use style="stroke:#000000;stroke-width:0.8;" x="580.742695" xlink:href="#md60ed44bf1" y="295.191562"/>
      </g>
     </g>
     <g id="text_22">
      <!-- 2000 -->
      <g transform="translate(567.396445 310.780937)scale(0.12 -0.12)">
       <use xlink:href="#ArialMT-32"/>
       <use x="55.615234" xlink:href="#ArialMT-30"/>
       <use x="111.230469" xlink:href="#ArialMT-30"/>
       <use x="166.845703" xlink:href="#ArialMT-30"/>
      </g>
     </g>
    </g>
    <g id="text_23">
     <!-- Discharge [cfs] -->
     <g transform="translate(421.489062 325.901562)scale(0.12 -0.12)">
      <use xlink:href="#ArialMT-44"/>
      <use x="72.216797" xlink:href="#ArialMT-69"/>
      <use x="94.433594" xlink:href="#ArialMT-73"/>
      <use x="144.433594" xlink:href="#ArialMT-63"/>
      <use x="194.433594" xlink:href="#ArialMT-68"/>
      <use x="250.048828" xlink:href="#ArialMT-61"/>
      <use x="305.664062" xlink:href="#ArialMT-72"/>
      <use x="338.964844" xlink:href="#ArialMT-67"/>
      <use x="394.580078" xlink:href="#ArialMT-65"/>
      <use x="450.195312" xlink:href="#ArialMT-20"/>
      <use x="477.978516" xlink:href="#ArialMT-5b"/>
      <use x="505.761719" xlink:href="#ArialMT-63"/>
      <use x="555.761719" xlink:href="#ArialMT-66"/>
      <use x="583.544922" xlink:href="#ArialMT-73"/>
      <use x="633.544922" xlink:href="#ArialMT-5d"/>
     </g>
    </g>
   </g>
   <g id="matplotlib.axis_4">
    <g id="ytick_7">
     <g id="line2d_46">
      <path clip-path="url(#pd0d2d1bd7c)" d="M 338.07864 295.191562 
L 584.25511 295.191562 
" style="fill:none;stroke:#b0b0b0;stroke-linecap:square;stroke-opacity:0.2;stroke-width:0.8;"/>
     </g>
     <g id="line2d_47">
      <g>
       <use style="stroke:#000000;stroke-width:0.8;" x="338.07864" xlink:href="#m4e3ffe17e0" y="295.191562"/>
      </g>
     </g>
     <g id="text_24">
      <!-- 0 -->
      <g transform="translate(324.405515 299.48625)scale(0.12 -0.12)">
       <use xlink:href="#ArialMT-30"/>
      </g>
     </g>
    </g>
    <g id="ytick_8">
     <g id="line2d_48">
      <path clip-path="url(#pd0d2d1bd7c)" d="M 338.07864 240.831562 
L 584.25511 240.831562 
" style="fill:none;stroke:#b0b0b0;stroke-linecap:square;stroke-opacity:0.2;stroke-width:0.8;"/>
     </g>
     <g id="line2d_49">
      <g>
       <use style="stroke:#000000;stroke-width:0.8;" x="338.07864" xlink:href="#m4e3ffe17e0" y="240.831562"/>
      </g>
     </g>
     <g id="text_25">
      <!-- 2 -->
      <g transform="translate(324.405515 245.12625)scale(0.12 -0.12)">
       <use xlink:href="#ArialMT-32"/>
      </g>
     </g>
    </g>
    <g id="ytick_9">
     <g id="line2d_50">
      <path clip-path="url(#pd0d2d1bd7c)" d="M 338.07864 186.471562 
L 584.25511 186.471562 
" style="fill:none;stroke:#b0b0b0;stroke-linecap:square;stroke-opacity:0.2;stroke-width:0.8;"/>
     </g>
     <g id="line2d_51">
      <g>
       <use style="stroke:#000000;stroke-width:0.8;" x="338.07864" xlink:href="#m4e3ffe17e0" y="186.471562"/>
      </g>
     </g>
     <g id="text_26">
      <!-- 4 -->
      <g transform="translate(324.405515 190.76625)scale(0.12 -0.12)">
       <use xlink:href="#ArialMT-34"/>
      </g>
     </g>
    </g>
    <g id="ytick_10">
     <g id="line2d_52">
      <path clip-path="url(#pd0d2d1bd7c)" d="M 338.07864 132.111562 
L 584.25511 132.111562 
" style="fill:none;stroke:#b0b0b0;stroke-linecap:square;stroke-opacity:0.2;stroke-width:0.8;"/>
     </g>
     <g id="line2d_53">
      <g>
       <use style="stroke:#000000;stroke-width:0.8;" x="338.07864" xlink:href="#m4e3ffe17e0" y="132.111562"/>
      </g>
     </g>
     <g id="text_27">
      <!-- 6 -->
      <g transform="translate(324.405515 136.40625)scale(0.12 -0.12)">
       <use xlink:href="#ArialMT-36"/>
      </g>
     </g>
    </g>
    <g id="ytick_11">
     <g id="line2d_54">
      <path clip-path="url(#pd0d2d1bd7c)" d="M 338.07864 77.751562 
L 584.25511 77.751562 
" style="fill:none;stroke:#b0b0b0;stroke-linecap:square;stroke-opacity:0.2;stroke-width:0.8;"/>
     </g>
     <g id="line2d_55">
      <g>
       <use style="stroke:#000000;stroke-width:0.8;" x="338.07864" xlink:href="#m4e3ffe17e0" y="77.751562"/>
      </g>
     </g>
     <g id="text_28">
      <!-- 8 -->
      <g transform="translate(324.405515 82.04625)scale(0.12 -0.12)">
       <use xlink:href="#ArialMT-38"/>
      </g>
     </g>
    </g>
    <g id="ytick_12">
     <g id="line2d_56">
      <path clip-path="url(#pd0d2d1bd7c)" d="M 338.07864 23.391562 
L 584.25511 23.391562 
" style="fill:none;stroke:#b0b0b0;stroke-linecap:square;stroke-opacity:0.2;stroke-width:0.8;"/>
     </g>
     <g id="line2d_57">
      <g>
       <use style="stroke:#000000;stroke-width:0.8;" x="338.07864" xlink:href="#m4e3ffe17e0" y="23.391562"/>
      </g>
     </g>
     <g id="text_29">
      <!-- 10 -->
      <g transform="translate(317.73239 27.68625)scale(0.12 -0.12)">
       <use xlink:href="#ArialMT-31"/>
       <use x="55.615234" xlink:href="#ArialMT-30"/>
      </g>
     </g>
    </g>
    <g id="text_30">
     <!-- Normal Depth in Pipe [ft] -->
     <g transform="translate(311.34739 224.649375)rotate(-90)scale(0.12 -0.12)">
      <use xlink:href="#ArialMT-4e"/>
      <use x="72.216797" xlink:href="#ArialMT-6f"/>
      <use x="127.832031" xlink:href="#ArialMT-72"/>
      <use x="161.132812" xlink:href="#ArialMT-6d"/>
      <use x="244.433594" xlink:href="#ArialMT-61"/>
      <use x="300.048828" xlink:href="#ArialMT-6c"/>
      <use x="322.265625" xlink:href="#ArialMT-20"/>
      <use x="350.048828" xlink:href="#ArialMT-44"/>
      <use x="422.265625" xlink:href="#ArialMT-65"/>
      <use x="477.880859" xlink:href="#ArialMT-70"/>
      <use x="533.496094" xlink:href="#ArialMT-74"/>
      <use x="561.279297" xlink:href="#ArialMT-68"/>
      <use x="616.894531" xlink:href="#ArialMT-20"/>
      <use x="644.677734" xlink:href="#ArialMT-69"/>
      <use x="666.894531" xlink:href="#ArialMT-6e"/>
      <use x="722.509766" xlink:href="#ArialMT-20"/>
      <use x="750.292969" xlink:href="#ArialMT-50"/>
      <use x="816.992188" xlink:href="#ArialMT-69"/>
      <use x="839.208984" xlink:href="#ArialMT-70"/>
      <use x="894.824219" xlink:href="#ArialMT-65"/>
      <use x="950.439453" xlink:href="#ArialMT-20"/>
      <use x="978.222656" xlink:href="#ArialMT-5b"/>
      <use x="1006.005859" xlink:href="#ArialMT-66"/>
      <use x="1033.789062" xlink:href="#ArialMT-74"/>
      <use x="1061.572266" xlink:href="#ArialMT-5d"/>
     </g>
    </g>
   </g>
   <g id="line2d_58">
    <path clip-path="url(#pd0d2d1bd7c)" d="M 338.078641 295.164382 
L 338.188257 290.544326 
L 338.511515 286.386275 
L 339.030841 282.459227 
L 339.765098 278.532179 
L 340.717216 274.605132 
L 341.887766 270.678084 
L 343.364051 266.520033 
L 345.081267 262.361982 
L 347.035468 258.203931 
L 349.349892 253.814878 
L 351.916122 249.425824 
L 354.881068 244.805768 
L 358.106804 240.185711 
L 361.762912 235.334652 
L 365.874686 230.25259 
L 370.464266 224.939525 
L 375.549796 219.395458 
L 381.144508 213.620387 
L 387.496289 207.383311 
L 394.636226 200.684229 
L 402.841419 193.292139 
L 412.671529 184.745035 
L 425.249201 174.118905 
L 461.555237 143.626533 
L 470.436203 135.772437 
L 477.683247 129.073355 
L 483.851865 123.067282 
L 488.995 117.754217 
L 493.38934 112.903158 
L 497.080659 108.514104 
L 500.29541 104.356053 
L 503.048303 100.429005 
L 505.358005 96.73296 
L 507.129765 93.498921 
L 508.543689 90.495884 
L 509.710175 87.492847 
L 510.541847 84.720813 
L 511.072102 82.179782 
L 511.336729 79.869754 
L 511.373895 77.790729 
L 511.192156 75.711703 
L 510.816018 73.863681 
L 510.197279 72.015658 
L 509.40952 70.398639 
L 508.498716 69.012622 
L 507.517999 67.857608 
L 506.248949 66.702594 
L 504.905559 65.778582 
L 503.546895 65.085574 
L 502.279092 64.623568 
L 501.372241 64.392565 
L 501.372241 64.392565 
" style="fill:none;stroke:#1f77b4;stroke-linecap:square;stroke-width:1.5;"/>
   </g>
   <g id="line2d_59">
    <defs>
     <path d="M 0 5 
C 1.326016 5 2.597899 4.473168 3.535534 3.535534 
C 4.473168 2.597899 5 1.326016 5 0 
C 5 -1.326016 4.473168 -2.597899 3.535534 -3.535534 
C 2.597899 -4.473168 1.326016 -5 0 -5 
C -1.326016 -5 -2.597899 -4.473168 -3.535534 -3.535534 
C -4.473168 -2.597899 -5 -1.326016 -5 0 
C -5 1.326016 -4.473168 2.597899 -3.535534 3.535534 
C -2.597899 4.473168 -1.326016 5 0 5 
z
" id="maa9b40f60a" style="stroke:#000000;"/>
    </defs>
    <g clip-path="url(#pd0d2d1bd7c)">
     <use style="fill:#ffffff;stroke:#000000;" x="452.375895" xlink:href="#maa9b40f60a" y="151.480628"/>
    </g>
   </g>
   <g id="line2d_60">
    <path clip-path="url(#pd0d2d1bd7c)" d="M 338.078641 295.164382 
L 338.190921 289.865098 
L 338.51982 285.095742 
L 339.056298 280.503028 
L 339.811706 275.910315 
L 340.826427 271.140959 
L 342.071094 266.371603 
L 343.597266 261.425604 
L 345.353488 256.479605 
L 347.402849 251.356963 
L 349.83701 245.881036 
L 352.593951 240.228465 
L 355.770182 234.22261 
L 359.482607 227.686825 
L 363.861034 220.44447 
L 369.150233 212.142257 
L 376.297729 201.367045 
L 391.607402 178.403478 
L 396.473008 170.631194 
L 400.203199 164.272053 
L 403.266674 158.619483 
L 405.704937 153.673484 
L 407.725242 149.08077 
L 409.343721 144.841343 
L 410.532628 141.131843 
L 411.434493 137.598987 
L 412.021046 134.419416 
L 412.330692 131.593131 
L 412.403387 128.943489 
L 412.256548 126.647132 
L 411.898704 124.527418 
L 411.378914 122.76099 
L 410.74958 121.347848 
L 410.075979 120.287991 
L 409.261983 119.404777 
L 408.502691 118.874848 
L 408.113758 118.698205 
L 408.113758 118.698205 
" style="fill:none;stroke:#d62728;stroke-linecap:square;stroke-width:1.5;"/>
   </g>
   <g id="line2d_61">
    <g clip-path="url(#pd0d2d1bd7c)">
     <use style="fill:#ffffff;stroke:#000000;" x="387.101293" xlink:href="#maa9b40f60a" y="185.292548"/>
    </g>
   </g>
   <g id="line2d_62">
    <path clip-path="url(#pd0d2d1bd7c)" d="M 338.078641 295.164382 
L 338.183118 290.544245 
L 338.511328 286.195879 
L 339.041958 282.119287 
L 339.796748 278.042695 
L 340.779806 273.966103 
L 341.992818 269.88951 
L 343.435801 265.812918 
L 345.107535 261.736326 
L 347.140369 257.387961 
L 349.427331 253.039595 
L 351.963936 248.69123 
L 354.926785 244.071092 
L 358.158575 239.450954 
L 361.865041 234.559044 
L 365.854491 229.667133 
L 370.360871 224.503449 
L 375.157527 219.339766 
L 380.504897 213.904309 
L 386.43048 208.19708 
L 392.957567 202.218078 
L 400.104156 195.967303 
L 408.212412 189.172983 
L 417.322898 181.835117 
L 427.814492 173.681932 
L 440.083056 164.441656 
L 455.629065 153.027198 
L 504.037972 117.696731 
L 515.050798 109.271774 
L 524.281917 101.933907 
L 532.130098 95.41136 
L 538.66604 89.704131 
L 544.556094 84.268674 
L 549.538862 79.376763 
L 553.933016 74.756625 
L 557.76011 70.40826 
L 561.046653 66.331668 
L 563.82357 62.526849 
L 566.125688 58.993802 
L 567.991258 55.732528 
L 569.46148 52.743027 
L 570.679722 49.753526 
L 571.546475 47.035798 
L 572.110015 44.589842 
L 572.445912 42.143887 
L 572.531284 39.969705 
L 572.390216 37.795522 
L 572.055329 35.893112 
L 571.49188 33.990702 
L 570.795308 32.360066 
L 569.860971 30.729429 
L 568.858438 29.370565 
L 567.593866 28.0117 
L 566.329914 26.924609 
L 564.741482 25.837518 
L 563.216861 25.022199 
L 561.149342 24.206881 
L 558.987808 23.663335 
L 558.987808 23.663335 
" style="fill:none;stroke:#2ca02c;stroke-linecap:square;stroke-width:1.5;"/>
   </g>
   <g id="line2d_63">
    <g clip-path="url(#pd0d2d1bd7c)">
     <use style="fill:#ffffff;stroke:#000000;" x="492.701392" xlink:href="#maa9b40f60a" y="126.121688"/>
    </g>
   </g>
   <g id="patch_9">
    <path d="M 338.07864 295.191562 
L 338.07864 23.391562 
" style="fill:none;stroke:#000000;stroke-linecap:square;stroke-linejoin:miter;stroke-width:0.8;"/>
   </g>
   <g id="patch_10">
    <path d="M 584.25511 295.191562 
L 584.25511 23.391562 
" style="fill:none;stroke:#000000;stroke-linecap:square;stroke-linejoin:miter;stroke-width:0.8;"/>
   </g>
   <g id="patch_11">
    <path d="M 338.07864 295.191562 
L 584.25511 295.191562 
" style="fill:none;stroke:#000000;stroke-linecap:square;stroke-linejoin:miter;stroke-width:0.8;"/>
   </g>
   <g id="patch_12">
    <path d="M 338.07864 23.391562 
L 584.25511 23.391562 
" style="fill:none;stroke:#000000;stroke-linecap:square;stroke-linejoin:miter;stroke-width:0.8;"/>
   </g>
   <g id="text_31">
    <!-- 5.3 ft -->
    <g transform="translate(463.805621 151.480628)scale(0.12 -0.12)">
     <defs>
      <path d="M 581 0 
L 581 641 
L 1222 641 
L 1222 0 
L 581 0 
z
" id="ArialMT-2e" transform="scale(0.015625)"/>
      <path d="M 269 1209 
L 831 1284 
Q 928 806 1161 595 
Q 1394 384 1728 384 
Q 2125 384 2398 659 
Q 2672 934 2672 1341 
Q 2672 1728 2419 1979 
Q 2166 2231 1775 2231 
Q 1616 2231 1378 2169 
L 1441 2663 
Q 1497 2656 1531 2656 
Q 1891 2656 2178 2843 
Q 2466 3031 2466 3422 
Q 2466 3731 2256 3934 
Q 2047 4138 1716 4138 
Q 1388 4138 1169 3931 
Q 950 3725 888 3313 
L 325 3413 
Q 428 3978 793 4289 
Q 1159 4600 1703 4600 
Q 2078 4600 2393 4439 
Q 2709 4278 2876 4000 
Q 3044 3722 3044 3409 
Q 3044 3113 2884 2869 
Q 2725 2625 2413 2481 
Q 2819 2388 3044 2092 
Q 3269 1797 3269 1353 
Q 3269 753 2831 336 
Q 2394 -81 1725 -81 
Q 1122 -81 723 278 
Q 325 638 269 1209 
z
" id="ArialMT-33" transform="scale(0.015625)"/>
     </defs>
     <use xlink:href="#ArialMT-35"/>
     <use x="55.615234" xlink:href="#ArialMT-2e"/>
     <use x="83.398438" xlink:href="#ArialMT-33"/>
     <use x="139.013672" xlink:href="#ArialMT-20"/>
     <use x="166.796875" xlink:href="#ArialMT-66"/>
     <use x="194.580078" xlink:href="#ArialMT-74"/>
    </g>
   </g>
   <g id="text_32">
    <!-- 4.0 ft -->
    <g transform="translate(392.003559 185.292548)scale(0.12 -0.12)">
     <use xlink:href="#ArialMT-34"/>
     <use x="55.615234" xlink:href="#ArialMT-2e"/>
     <use x="83.398438" xlink:href="#ArialMT-30"/>
     <use x="139.013672" xlink:href="#ArialMT-20"/>
     <use x="166.796875" xlink:href="#ArialMT-66"/>
     <use x="194.580078" xlink:href="#ArialMT-74"/>
    </g>
   </g>
   <g id="text_33">
    <!-- 6.2 ft -->
    <g transform="translate(508.163667 126.121688)scale(0.12 -0.12)">
     <use xlink:href="#ArialMT-36"/>
     <use x="55.615234" xlink:href="#ArialMT-2e"/>
     <use x="83.398438" xlink:href="#ArialMT-32"/>
     <use x="139.013672" xlink:href="#ArialMT-20"/>
     <use x="166.796875" xlink:href="#ArialMT-66"/>
     <use x="194.580078" xlink:href="#ArialMT-74"/>
    </g>
   </g>
   <g id="text_34">
    <!-- Distribute Flow by SD Capacity -->
    <g transform="translate(357.71125 17.391562)scale(0.14 -0.14)">
     <defs>
      <path d="M 231 1491 
L 1131 1578 
Q 1213 1125 1461 912 
Q 1709 700 2131 700 
Q 2578 700 2804 889 
Q 3031 1078 3031 1331 
Q 3031 1494 2936 1608 
Q 2841 1722 2603 1806 
Q 2441 1863 1863 2006 
Q 1119 2191 819 2459 
Q 397 2838 397 3381 
Q 397 3731 595 4036 
Q 794 4341 1167 4500 
Q 1541 4659 2069 4659 
Q 2931 4659 3367 4281 
Q 3803 3903 3825 3272 
L 2900 3231 
Q 2841 3584 2645 3739 
Q 2450 3894 2059 3894 
Q 1656 3894 1428 3728 
Q 1281 3622 1281 3444 
Q 1281 3281 1419 3166 
Q 1594 3019 2269 2859 
Q 2944 2700 3267 2529 
Q 3591 2359 3773 2064 
Q 3956 1769 3956 1334 
Q 3956 941 3737 597 
Q 3519 253 3119 86 
Q 2719 -81 2122 -81 
Q 1253 -81 787 320 
Q 322 722 231 1491 
z
" id="Arial-BoldMT-53" transform="scale(0.015625)"/>
      <path d="M 3397 1684 
L 4294 1400 
Q 4088 650 3608 286 
Q 3128 -78 2391 -78 
Q 1478 -78 890 545 
Q 303 1169 303 2250 
Q 303 3394 893 4026 
Q 1484 4659 2447 4659 
Q 3288 4659 3813 4163 
Q 4125 3869 4281 3319 
L 3366 3100 
Q 3284 3456 3026 3662 
Q 2769 3869 2400 3869 
Q 1891 3869 1573 3503 
Q 1256 3138 1256 2319 
Q 1256 1450 1568 1081 
Q 1881 713 2381 713 
Q 2750 713 3015 947 
Q 3281 1181 3397 1684 
z
" id="Arial-BoldMT-43" transform="scale(0.015625)"/>
      <path d="M 434 3319 
L 1253 3319 
L 1253 2831 
Q 1413 3081 1684 3237 
Q 1956 3394 2288 3394 
Q 2866 3394 3269 2941 
Q 3672 2488 3672 1678 
Q 3672 847 3265 386 
Q 2859 -75 2281 -75 
Q 2006 -75 1782 34 
Q 1559 144 1313 409 
L 1313 -1263 
L 434 -1263 
L 434 3319 
z
M 1303 1716 
Q 1303 1156 1525 889 
Q 1747 622 2066 622 
Q 2372 622 2575 867 
Q 2778 1113 2778 1672 
Q 2778 2194 2568 2447 
Q 2359 2700 2050 2700 
Q 1728 2700 1515 2451 
Q 1303 2203 1303 1716 
z
" id="Arial-BoldMT-70" transform="scale(0.015625)"/>
      <path d="M 3353 2338 
L 2488 2181 
Q 2444 2441 2289 2572 
Q 2134 2703 1888 2703 
Q 1559 2703 1364 2476 
Q 1169 2250 1169 1719 
Q 1169 1128 1367 884 
Q 1566 641 1900 641 
Q 2150 641 2309 783 
Q 2469 925 2534 1272 
L 3397 1125 
Q 3263 531 2881 228 
Q 2500 -75 1859 -75 
Q 1131 -75 698 384 
Q 266 844 266 1656 
Q 266 2478 700 2936 
Q 1134 3394 1875 3394 
Q 2481 3394 2839 3133 
Q 3197 2872 3353 2338 
z
" id="Arial-BoldMT-63" transform="scale(0.015625)"/>
     </defs>
     <use xlink:href="#Arial-BoldMT-44"/>
     <use x="72.216797" xlink:href="#Arial-BoldMT-69"/>
     <use x="100" xlink:href="#Arial-BoldMT-73"/>
     <use x="155.615234" xlink:href="#Arial-BoldMT-74"/>
     <use x="188.916016" xlink:href="#Arial-BoldMT-72"/>
     <use x="227.832031" xlink:href="#Arial-BoldMT-69"/>
     <use x="255.615234" xlink:href="#Arial-BoldMT-62"/>
     <use x="316.699219" xlink:href="#Arial-BoldMT-75"/>
     <use x="377.783203" xlink:href="#Arial-BoldMT-74"/>
     <use x="411.083984" xlink:href="#Arial-BoldMT-65"/>
     <use x="466.699219" xlink:href="#Arial-BoldMT-20"/>
     <use x="494.482422" xlink:href="#Arial-BoldMT-46"/>
     <use x="555.566406" xlink:href="#Arial-BoldMT-6c"/>
     <use x="583.349609" xlink:href="#Arial-BoldMT-6f"/>
     <use x="644.433594" xlink:href="#Arial-BoldMT-77"/>
     <use x="722.216797" xlink:href="#Arial-BoldMT-20"/>
     <use x="750" xlink:href="#Arial-BoldMT-62"/>
     <use x="811.083984" xlink:href="#Arial-BoldMT-79"/>
     <use x="866.699219" xlink:href="#Arial-BoldMT-20"/>
     <use x="894.482422" xlink:href="#Arial-BoldMT-53"/>
     <use x="961.181641" xlink:href="#Arial-BoldMT-44"/>
     <use x="1033.398438" xlink:href="#Arial-BoldMT-20"/>
     <use x="1061.181641" xlink:href="#Arial-BoldMT-43"/>
     <use x="1133.398438" xlink:href="#Arial-BoldMT-61"/>
     <use x="1189.013672" xlink:href="#Arial-BoldMT-70"/>
     <use x="1250.097656" xlink:href="#Arial-BoldMT-61"/>
     <use x="1305.712891" xlink:href="#Arial-BoldMT-63"/>
     <use x="1361.328125" xlink:href="#Arial-BoldMT-69"/>
     <use x="1389.111328" xlink:href="#Arial-BoldMT-74"/>
     <use x="1422.412109" xlink:href="#Arial-BoldMT-79"/>
    </g>
   </g>
  </g>
  <g id="axes_3">
   <g id="patch_13">
    <path d="M 633.490404 295.191562 
L 879.666875 295.191562 
L 879.666875 23.391562 
L 633.490404 23.391562 
z
" style="fill:#ffffff;"/>
   </g>
   <g id="line2d_64">
    <path clip-path="url(#pf89be38026)" d="M 806.796054 295.191562 
L 806.796054 23.391562 
" style="fill:none;stroke:#1f77b4;stroke-dasharray:5.55,2.4;stroke-dashoffset:0;stroke-width:1.5;"/>
   </g>
   <g id="line2d_65">
    <path clip-path="url(#pf89be38026)" d="M 679.328029 295.191562 
L 679.328029 23.391562 
" style="fill:none;stroke:#d62728;stroke-dasharray:5.55,2.4;stroke-dashoffset:0;stroke-width:1.5;"/>
   </g>
   <g id="line2d_66">
    <path clip-path="url(#pf89be38026)" d="M 705.285027 295.191562 
L 705.285027 23.391562 
" style="fill:none;stroke:#2ca02c;stroke-dasharray:5.55,2.4;stroke-dashoffset:0;stroke-width:1.5;"/>
   </g>
   <g id="matplotlib.axis_5">
    <g id="xtick_11">
     <g id="line2d_67">
      <path clip-path="url(#pf89be38026)" d="M 633.490404 295.191562 
L 633.490404 23.391562 
" style="fill:none;stroke:#b0b0b0;stroke-linecap:square;stroke-opacity:0.2;stroke-width:0.8;"/>
     </g>
     <g id="line2d_68">
      <g>
       <use style="stroke:#000000;stroke-width:0.8;" x="633.490404" xlink:href="#md60ed44bf1" y="295.191562"/>
      </g>
     </g>
     <g id="text_35">
      <!-- 0 -->
      <g transform="translate(630.153842 310.780937)scale(0.12 -0.12)">
       <use xlink:href="#ArialMT-30"/>
      </g>
     </g>
    </g>
    <g id="xtick_12">
     <g id="line2d_69">
      <path clip-path="url(#pf89be38026)" d="M 694.156418 295.191562 
L 694.156418 23.391562 
" style="fill:none;stroke:#b0b0b0;stroke-linecap:square;stroke-opacity:0.2;stroke-width:0.8;"/>
     </g>
     <g id="line2d_70">
      <g>
       <use style="stroke:#000000;stroke-width:0.8;" x="694.156418" xlink:href="#md60ed44bf1" y="295.191562"/>
      </g>
     </g>
     <g id="text_36">
      <!-- 500 -->
      <g transform="translate(684.146731 310.780937)scale(0.12 -0.12)">
       <use xlink:href="#ArialMT-35"/>
       <use x="55.615234" xlink:href="#ArialMT-30"/>
       <use x="111.230469" xlink:href="#ArialMT-30"/>
      </g>
     </g>
    </g>
    <g id="xtick_13">
     <g id="line2d_71">
      <path clip-path="url(#pf89be38026)" d="M 754.822432 295.191562 
L 754.822432 23.391562 
" style="fill:none;stroke:#b0b0b0;stroke-linecap:square;stroke-opacity:0.2;stroke-width:0.8;"/>
     </g>
     <g id="line2d_72">
      <g>
       <use style="stroke:#000000;stroke-width:0.8;" x="754.822432" xlink:href="#md60ed44bf1" y="295.191562"/>
      </g>
     </g>
     <g id="text_37">
      <!-- 1000 -->
      <g transform="translate(741.476182 310.780937)scale(0.12 -0.12)">
       <use xlink:href="#ArialMT-31"/>
       <use x="55.615234" xlink:href="#ArialMT-30"/>
       <use x="111.230469" xlink:href="#ArialMT-30"/>
       <use x="166.845703" xlink:href="#ArialMT-30"/>
      </g>
     </g>
    </g>
    <g id="xtick_14">
     <g id="line2d_73">
      <path clip-path="url(#pf89be38026)" d="M 815.488446 295.191562 
L 815.488446 23.391562 
" style="fill:none;stroke:#b0b0b0;stroke-linecap:square;stroke-opacity:0.2;stroke-width:0.8;"/>
     </g>
     <g id="line2d_74">
      <g>
       <use style="stroke:#000000;stroke-width:0.8;" x="815.488446" xlink:href="#md60ed44bf1" y="295.191562"/>
      </g>
     </g>
     <g id="text_38">
      <!-- 1500 -->
      <g transform="translate(802.142196 310.780937)scale(0.12 -0.12)">
       <use xlink:href="#ArialMT-31"/>
       <use x="55.615234" xlink:href="#ArialMT-35"/>
       <use x="111.230469" xlink:href="#ArialMT-30"/>
       <use x="166.845703" xlink:href="#ArialMT-30"/>
      </g>
     </g>
    </g>
    <g id="xtick_15">
     <g id="line2d_75">
      <path clip-path="url(#pf89be38026)" d="M 876.154459 295.191562 
L 876.154459 23.391562 
" style="fill:none;stroke:#b0b0b0;stroke-linecap:square;stroke-opacity:0.2;stroke-width:0.8;"/>
     </g>
     <g id="line2d_76">
      <g>
       <use style="stroke:#000000;stroke-width:0.8;" x="876.154459" xlink:href="#md60ed44bf1" y="295.191562"/>
      </g>
     </g>
     <g id="text_39">
      <!-- 2000 -->
      <g transform="translate(862.808209 310.780937)scale(0.12 -0.12)">
       <use xlink:href="#ArialMT-32"/>
       <use x="55.615234" xlink:href="#ArialMT-30"/>
       <use x="111.230469" xlink:href="#ArialMT-30"/>
       <use x="166.845703" xlink:href="#ArialMT-30"/>
      </g>
     </g>
    </g>
    <g id="text_40">
     <!-- Discharge [cfs] -->
     <g transform="translate(716.900827 325.901562)scale(0.12 -0.12)">
      <use xlink:href="#ArialMT-44"/>
      <use x="72.216797" xlink:href="#ArialMT-69"/>
      <use x="94.433594" xlink:href="#ArialMT-73"/>
      <use x="144.433594" xlink:href="#ArialMT-63"/>
      <use x="194.433594" xlink:href="#ArialMT-68"/>
      <use x="250.048828" xlink:href="#ArialMT-61"/>
      <use x="305.664062" xlink:href="#ArialMT-72"/>
      <use x="338.964844" xlink:href="#ArialMT-67"/>
      <use x="394.580078" xlink:href="#ArialMT-65"/>
      <use x="450.195312" xlink:href="#ArialMT-20"/>
      <use x="477.978516" xlink:href="#ArialMT-5b"/>
      <use x="505.761719" xlink:href="#ArialMT-63"/>
      <use x="555.761719" xlink:href="#ArialMT-66"/>
      <use x="583.544922" xlink:href="#ArialMT-73"/>
      <use x="633.544922" xlink:href="#ArialMT-5d"/>
     </g>
    </g>
   </g>
   <g id="matplotlib.axis_6">
    <g id="ytick_13">
     <g id="line2d_77">
      <path clip-path="url(#pf89be38026)" d="M 633.490404 295.191562 
L 879.666875 295.191562 
" style="fill:none;stroke:#b0b0b0;stroke-linecap:square;stroke-opacity:0.2;stroke-width:0.8;"/>
     </g>
     <g id="line2d_78">
      <g>
       <use style="stroke:#000000;stroke-width:0.8;" x="633.490404" xlink:href="#m4e3ffe17e0" y="295.191562"/>
      </g>
     </g>
     <g id="text_41">
      <!-- 0 -->
      <g transform="translate(619.817279 299.48625)scale(0.12 -0.12)">
       <use xlink:href="#ArialMT-30"/>
      </g>
     </g>
    </g>
    <g id="ytick_14">
     <g id="line2d_79">
      <path clip-path="url(#pf89be38026)" d="M 633.490404 240.831562 
L 879.666875 240.831562 
" style="fill:none;stroke:#b0b0b0;stroke-linecap:square;stroke-opacity:0.2;stroke-width:0.8;"/>
     </g>
     <g id="line2d_80">
      <g>
       <use style="stroke:#000000;stroke-width:0.8;" x="633.490404" xlink:href="#m4e3ffe17e0" y="240.831562"/>
      </g>
     </g>
     <g id="text_42">
      <!-- 2 -->
      <g transform="translate(619.817279 245.12625)scale(0.12 -0.12)">
       <use xlink:href="#ArialMT-32"/>
      </g>
     </g>
    </g>
    <g id="ytick_15">
     <g id="line2d_81">
      <path clip-path="url(#pf89be38026)" d="M 633.490404 186.471562 
L 879.666875 186.471562 
" style="fill:none;stroke:#b0b0b0;stroke-linecap:square;stroke-opacity:0.2;stroke-width:0.8;"/>
     </g>
     <g id="line2d_82">
      <g>
       <use style="stroke:#000000;stroke-width:0.8;" x="633.490404" xlink:href="#m4e3ffe17e0" y="186.471562"/>
      </g>
     </g>
     <g id="text_43">
      <!-- 4 -->
      <g transform="translate(619.817279 190.76625)scale(0.12 -0.12)">
       <use xlink:href="#ArialMT-34"/>
      </g>
     </g>
    </g>
    <g id="ytick_16">
     <g id="line2d_83">
      <path clip-path="url(#pf89be38026)" d="M 633.490404 132.111562 
L 879.666875 132.111562 
" style="fill:none;stroke:#b0b0b0;stroke-linecap:square;stroke-opacity:0.2;stroke-width:0.8;"/>
     </g>
     <g id="line2d_84">
      <g>
       <use style="stroke:#000000;stroke-width:0.8;" x="633.490404" xlink:href="#m4e3ffe17e0" y="132.111562"/>
      </g>
     </g>
     <g id="text_44">
      <!-- 6 -->
      <g transform="translate(619.817279 136.40625)scale(0.12 -0.12)">
       <use xlink:href="#ArialMT-36"/>
      </g>
     </g>
    </g>
    <g id="ytick_17">
     <g id="line2d_85">
      <path clip-path="url(#pf89be38026)" d="M 633.490404 77.751562 
L 879.666875 77.751562 
" style="fill:none;stroke:#b0b0b0;stroke-linecap:square;stroke-opacity:0.2;stroke-width:0.8;"/>
     </g>
     <g id="line2d_86">
      <g>
       <use style="stroke:#000000;stroke-width:0.8;" x="633.490404" xlink:href="#m4e3ffe17e0" y="77.751562"/>
      </g>
     </g>
     <g id="text_45">
      <!-- 8 -->
      <g transform="translate(619.817279 82.04625)scale(0.12 -0.12)">
       <use xlink:href="#ArialMT-38"/>
      </g>
     </g>
    </g>
    <g id="ytick_18">
     <g id="line2d_87">
      <path clip-path="url(#pf89be38026)" d="M 633.490404 23.391562 
L 879.666875 23.391562 
" style="fill:none;stroke:#b0b0b0;stroke-linecap:square;stroke-opacity:0.2;stroke-width:0.8;"/>
     </g>
     <g id="line2d_88">
      <g>
       <use style="stroke:#000000;stroke-width:0.8;" x="633.490404" xlink:href="#m4e3ffe17e0" y="23.391562"/>
      </g>
     </g>
     <g id="text_46">
      <!-- 10 -->
      <g transform="translate(613.144154 27.68625)scale(0.12 -0.12)">
       <use xlink:href="#ArialMT-31"/>
       <use x="55.615234" xlink:href="#ArialMT-30"/>
      </g>
     </g>
    </g>
    <g id="text_47">
     <!-- Normal Depth in Pipe [ft] -->
     <g transform="translate(606.759154 224.649375)rotate(-90)scale(0.12 -0.12)">
      <use xlink:href="#ArialMT-4e"/>
      <use x="72.216797" xlink:href="#ArialMT-6f"/>
      <use x="127.832031" xlink:href="#ArialMT-72"/>
      <use x="161.132812" xlink:href="#ArialMT-6d"/>
      <use x="244.433594" xlink:href="#ArialMT-61"/>
      <use x="300.048828" xlink:href="#ArialMT-6c"/>
      <use x="322.265625" xlink:href="#ArialMT-20"/>
      <use x="350.048828" xlink:href="#ArialMT-44"/>
      <use x="422.265625" xlink:href="#ArialMT-65"/>
      <use x="477.880859" xlink:href="#ArialMT-70"/>
      <use x="533.496094" xlink:href="#ArialMT-74"/>
      <use x="561.279297" xlink:href="#ArialMT-68"/>
      <use x="616.894531" xlink:href="#ArialMT-20"/>
      <use x="644.677734" xlink:href="#ArialMT-69"/>
      <use x="666.894531" xlink:href="#ArialMT-6e"/>
      <use x="722.509766" xlink:href="#ArialMT-20"/>
      <use x="750.292969" xlink:href="#ArialMT-50"/>
      <use x="816.992188" xlink:href="#ArialMT-69"/>
      <use x="839.208984" xlink:href="#ArialMT-70"/>
      <use x="894.824219" xlink:href="#ArialMT-65"/>
      <use x="950.439453" xlink:href="#ArialMT-20"/>
      <use x="978.222656" xlink:href="#ArialMT-5b"/>
      <use x="1006.005859" xlink:href="#ArialMT-66"/>
      <use x="1033.789062" xlink:href="#ArialMT-74"/>
      <use x="1061.572266" xlink:href="#ArialMT-5d"/>
     </g>
    </g>
   </g>
   <g id="line2d_89">
    <path clip-path="url(#pf89be38026)" d="M 633.490406 295.164382 
L 633.600022 290.544326 
L 633.92328 286.386275 
L 634.442605 282.459227 
L 635.176863 278.532179 
L 636.128981 274.605132 
L 637.299531 270.678084 
L 638.775816 266.520033 
L 640.493031 262.361982 
L 642.447232 258.203931 
L 644.761656 253.814878 
L 647.327886 249.425824 
L 650.292833 244.805768 
L 653.518569 240.185711 
L 657.174677 235.334652 
L 661.286451 230.25259 
L 665.876031 224.939525 
L 670.961561 219.395458 
L 676.556273 213.620387 
L 682.908054 207.383311 
L 690.047991 200.684229 
L 698.253184 193.292139 
L 708.083294 184.745035 
L 720.660966 174.118905 
L 756.967002 143.626533 
L 765.847968 135.772437 
L 773.095012 129.073355 
L 779.26363 123.067282 
L 784.406764 117.754217 
L 788.801105 112.903158 
L 792.492424 108.514104 
L 795.707175 104.356053 
L 798.460068 100.429005 
L 800.769769 96.73296 
L 802.54153 93.498921 
L 803.955454 90.495884 
L 805.12194 87.492847 
L 805.953611 84.720813 
L 806.483867 82.179782 
L 806.748493 79.869754 
L 806.78566 77.790729 
L 806.603921 75.711703 
L 806.227782 73.863681 
L 805.609044 72.015658 
L 804.821285 70.398639 
L 803.91048 69.012622 
L 802.929764 67.857608 
L 801.660714 66.702594 
L 800.317324 65.778582 
L 798.95866 65.085574 
L 797.690857 64.623568 
L 796.784006 64.392565 
L 796.784006 64.392565 
" style="fill:none;stroke:#1f77b4;stroke-linecap:square;stroke-width:1.5;"/>
   </g>
   <g id="line2d_90">
    <g clip-path="url(#pf89be38026)">
     <use style="fill:#ffffff;stroke:#000000;" x="806.796054" xlink:href="#maa9b40f60a" y="78.483737"/>
    </g>
   </g>
   <g id="line2d_91">
    <path clip-path="url(#pf89be38026)" d="M 633.490406 295.164382 
L 633.602686 289.865098 
L 633.931585 285.095742 
L 634.468063 280.503028 
L 635.223471 275.910315 
L 636.238191 271.140959 
L 637.482859 266.371603 
L 639.009031 261.425604 
L 640.765253 256.479605 
L 642.814614 251.356963 
L 645.248775 245.881036 
L 648.005716 240.228465 
L 651.181947 234.22261 
L 654.894372 227.686825 
L 659.272798 220.44447 
L 664.561998 212.142257 
L 671.709494 201.367045 
L 687.019167 178.403478 
L 691.884772 170.631194 
L 695.614963 164.272053 
L 698.678439 158.619483 
L 701.116702 153.673484 
L 703.137006 149.08077 
L 704.755485 144.841343 
L 705.944392 141.131843 
L 706.846257 137.598987 
L 707.432811 134.419416 
L 707.742457 131.593131 
L 707.815151 128.943489 
L 707.668313 126.647132 
L 707.310468 124.527418 
L 706.790679 122.76099 
L 706.161344 121.347848 
L 705.487744 120.287991 
L 704.673748 119.404777 
L 703.914456 118.874848 
L 703.525523 118.698205 
L 703.525523 118.698205 
" style="fill:none;stroke:#d62728;stroke-linecap:square;stroke-width:1.5;"/>
   </g>
   <g id="line2d_92">
    <g clip-path="url(#pf89be38026)">
     <use style="fill:#ffffff;stroke:#000000;" x="679.328029" xlink:href="#maa9b40f60a" y="190.061905"/>
    </g>
   </g>
   <g id="line2d_93">
    <path clip-path="url(#pf89be38026)" d="M 633.490406 295.164382 
L 633.594883 290.544245 
L 633.923093 286.195879 
L 634.453723 282.119287 
L 635.208513 278.042695 
L 636.191571 273.966103 
L 637.404583 269.88951 
L 638.847566 265.812918 
L 640.5193 261.736326 
L 642.552134 257.387961 
L 644.839096 253.039595 
L 647.3757 248.69123 
L 650.338549 244.071092 
L 653.570339 239.450954 
L 657.276806 234.559044 
L 661.266256 229.667133 
L 665.772635 224.503449 
L 670.569291 219.339766 
L 675.916662 213.904309 
L 681.842245 208.19708 
L 688.369332 202.218078 
L 695.515921 195.967303 
L 703.624177 189.172983 
L 712.734663 181.835117 
L 723.226256 173.681932 
L 735.49482 164.441656 
L 751.040829 153.027198 
L 799.449737 117.696731 
L 810.462563 109.271774 
L 819.693681 101.933907 
L 827.541863 95.41136 
L 834.077805 89.704131 
L 839.967859 84.268674 
L 844.950626 79.376763 
L 849.34478 74.756625 
L 853.171875 70.40826 
L 856.458418 66.331668 
L 859.235335 62.526849 
L 861.537453 58.993802 
L 863.403022 55.732528 
L 864.873245 52.743027 
L 866.091487 49.753526 
L 866.95824 47.035798 
L 867.521779 44.589842 
L 867.857677 42.143887 
L 867.943049 39.969705 
L 867.801981 37.795522 
L 867.467094 35.893112 
L 866.903644 33.990702 
L 866.207073 32.360066 
L 865.272736 30.729429 
L 864.270203 29.370565 
L 863.005631 28.0117 
L 861.741679 26.924609 
L 860.153247 25.837518 
L 858.628626 25.022199 
L 856.561107 24.206881 
L 854.399573 23.663335 
L 854.399573 23.663335 
" style="fill:none;stroke:#2ca02c;stroke-linecap:square;stroke-width:1.5;"/>
   </g>
   <g id="line2d_94">
    <g clip-path="url(#pf89be38026)">
     <use style="fill:#ffffff;stroke:#000000;" x="705.285027" xlink:href="#maa9b40f60a" y="187.814119"/>
    </g>
   </g>
   <g id="patch_14">
    <path d="M 633.490404 295.191562 
L 633.490404 23.391562 
" style="fill:none;stroke:#000000;stroke-linecap:square;stroke-linejoin:miter;stroke-width:0.8;"/>
   </g>
   <g id="patch_15">
    <path d="M 879.666875 295.191562 
L 879.666875 23.391562 
" style="fill:none;stroke:#000000;stroke-linecap:square;stroke-linejoin:miter;stroke-width:0.8;"/>
   </g>
   <g id="patch_16">
    <path d="M 633.490404 295.191562 
L 879.666875 295.191562 
" style="fill:none;stroke:#000000;stroke-linecap:square;stroke-linejoin:miter;stroke-width:0.8;"/>
   </g>
   <g id="patch_17">
    <path d="M 633.490404 23.391562 
L 879.666875 23.391562 
" style="fill:none;stroke:#000000;stroke-linecap:square;stroke-linejoin:miter;stroke-width:0.8;"/>
   </g>
   <g id="text_48">
    <!-- 8.0 ft -->
    <g transform="translate(824.126619 78.483737)scale(0.12 -0.12)">
     <use xlink:href="#ArialMT-38"/>
     <use x="55.615234" xlink:href="#ArialMT-2e"/>
     <use x="83.398438" xlink:href="#ArialMT-30"/>
     <use x="139.013672" xlink:href="#ArialMT-20"/>
     <use x="166.796875" xlink:href="#ArialMT-66"/>
     <use x="194.580078" xlink:href="#ArialMT-74"/>
    </g>
   </g>
   <g id="text_49">
    <!-- 3.9 ft -->
    <g transform="translate(683.911791 190.061905)scale(0.12 -0.12)">
     <defs>
      <path d="M 350 1059 
L 891 1109 
Q 959 728 1153 556 
Q 1347 384 1650 384 
Q 1909 384 2104 503 
Q 2300 622 2425 820 
Q 2550 1019 2634 1356 
Q 2719 1694 2719 2044 
Q 2719 2081 2716 2156 
Q 2547 1888 2255 1720 
Q 1963 1553 1622 1553 
Q 1053 1553 659 1965 
Q 266 2378 266 3053 
Q 266 3750 677 4175 
Q 1088 4600 1706 4600 
Q 2153 4600 2523 4359 
Q 2894 4119 3086 3673 
Q 3278 3228 3278 2384 
Q 3278 1506 3087 986 
Q 2897 466 2520 194 
Q 2144 -78 1638 -78 
Q 1100 -78 759 220 
Q 419 519 350 1059 
z
M 2653 3081 
Q 2653 3566 2395 3850 
Q 2138 4134 1775 4134 
Q 1400 4134 1122 3828 
Q 844 3522 844 3034 
Q 844 2597 1108 2323 
Q 1372 2050 1759 2050 
Q 2150 2050 2401 2323 
Q 2653 2597 2653 3081 
z
" id="ArialMT-39" transform="scale(0.015625)"/>
     </defs>
     <use xlink:href="#ArialMT-33"/>
     <use x="55.615234" xlink:href="#ArialMT-2e"/>
     <use x="83.398438" xlink:href="#ArialMT-39"/>
     <use x="139.013672" xlink:href="#ArialMT-20"/>
     <use x="166.796875" xlink:href="#ArialMT-66"/>
     <use x="194.580078" xlink:href="#ArialMT-74"/>
    </g>
   </g>
   <g id="text_50">
    <!-- 4.0 ft -->
    <g transform="translate(712.46449 187.814119)scale(0.12 -0.12)">
     <use xlink:href="#ArialMT-34"/>
     <use x="55.615234" xlink:href="#ArialMT-2e"/>
     <use x="83.398438" xlink:href="#ArialMT-30"/>
     <use x="139.013672" xlink:href="#ArialMT-20"/>
     <use x="166.796875" xlink:href="#ArialMT-66"/>
     <use x="194.580078" xlink:href="#ArialMT-74"/>
    </g>
   </g>
   <g id="text_51">
    <!-- Distribute Flow by Consultant Analyses -->
    <g transform="translate(624.999421 17.391562)scale(0.14 -0.14)">
     <defs>
      <path d="M 3478 0 
L 2600 0 
L 2600 1694 
Q 2600 2231 2544 2389 
Q 2488 2547 2361 2634 
Q 2234 2722 2056 2722 
Q 1828 2722 1647 2597 
Q 1466 2472 1398 2265 
Q 1331 2059 1331 1503 
L 1331 0 
L 453 0 
L 453 3319 
L 1269 3319 
L 1269 2831 
Q 1703 3394 2363 3394 
Q 2653 3394 2893 3289 
Q 3134 3184 3257 3021 
Q 3381 2859 3429 2653 
Q 3478 2447 3478 2063 
L 3478 0 
z
" id="Arial-BoldMT-6e" transform="scale(0.015625)"/>
      <path d="M 4597 0 
L 3591 0 
L 3191 1041 
L 1359 1041 
L 981 0 
L 0 0 
L 1784 4581 
L 2763 4581 
L 4597 0 
z
M 2894 1813 
L 2263 3513 
L 1644 1813 
L 2894 1813 
z
" id="Arial-BoldMT-41" transform="scale(0.015625)"/>
     </defs>
     <use xlink:href="#Arial-BoldMT-44"/>
     <use x="72.216797" xlink:href="#Arial-BoldMT-69"/>
     <use x="100" xlink:href="#Arial-BoldMT-73"/>
     <use x="155.615234" xlink:href="#Arial-BoldMT-74"/>
     <use x="188.916016" xlink:href="#Arial-BoldMT-72"/>
     <use x="227.832031" xlink:href="#Arial-BoldMT-69"/>
     <use x="255.615234" xlink:href="#Arial-BoldMT-62"/>
     <use x="316.699219" xlink:href="#Arial-BoldMT-75"/>
     <use x="377.783203" xlink:href="#Arial-BoldMT-74"/>
     <use x="411.083984" xlink:href="#Arial-BoldMT-65"/>
     <use x="466.699219" xlink:href="#Arial-BoldMT-20"/>
     <use x="494.482422" xlink:href="#Arial-BoldMT-46"/>
     <use x="555.566406" xlink:href="#Arial-BoldMT-6c"/>
     <use x="583.349609" xlink:href="#Arial-BoldMT-6f"/>
     <use x="644.433594" xlink:href="#Arial-BoldMT-77"/>
     <use x="722.216797" xlink:href="#Arial-BoldMT-20"/>
     <use x="750" xlink:href="#Arial-BoldMT-62"/>
     <use x="811.083984" xlink:href="#Arial-BoldMT-79"/>
     <use x="866.699219" xlink:href="#Arial-BoldMT-20"/>
     <use x="894.482422" xlink:href="#Arial-BoldMT-43"/>
     <use x="966.699219" xlink:href="#Arial-BoldMT-6f"/>
     <use x="1027.783203" xlink:href="#Arial-BoldMT-6e"/>
     <use x="1088.867188" xlink:href="#Arial-BoldMT-73"/>
     <use x="1144.482422" xlink:href="#Arial-BoldMT-75"/>
     <use x="1205.566406" xlink:href="#Arial-BoldMT-6c"/>
     <use x="1233.349609" xlink:href="#Arial-BoldMT-74"/>
     <use x="1266.650391" xlink:href="#Arial-BoldMT-61"/>
     <use x="1322.265625" xlink:href="#Arial-BoldMT-6e"/>
     <use x="1383.349609" xlink:href="#Arial-BoldMT-74"/>
     <use x="1416.650391" xlink:href="#Arial-BoldMT-20"/>
     <use x="1440.683594" xlink:href="#Arial-BoldMT-41"/>
     <use x="1512.900391" xlink:href="#Arial-BoldMT-6e"/>
     <use x="1573.984375" xlink:href="#Arial-BoldMT-61"/>
     <use x="1629.599609" xlink:href="#Arial-BoldMT-6c"/>
     <use x="1657.382812" xlink:href="#Arial-BoldMT-79"/>
     <use x="1712.998047" xlink:href="#Arial-BoldMT-73"/>
     <use x="1768.613281" xlink:href="#Arial-BoldMT-65"/>
     <use x="1824.228516" xlink:href="#Arial-BoldMT-73"/>
    </g>
   </g>
  </g>
 </g>
 <defs>
  <clipPath id="pc09da1e024">
   <rect height="271.8" width="246.176471" x="42.666875" y="23.391562"/>
  </clipPath>
  <clipPath id="pd0d2d1bd7c">
   <rect height="271.8" width="246.176471" x="338.07864" y="23.391562"/>
  </clipPath>
  <clipPath id="pf89be38026">
   <rect height="271.8" width="246.176471" x="633.490404" y="23.391562"/>
  </clipPath>
 </defs>
</svg>
