<?xml version="1.0" encoding="utf-8" standalone="no"?>
<!DOCTYPE svg PUBLIC "-//W3C//DTD SVG 1.1//EN"
  "http://www.w3.org/Graphics/SVG/1.1/DTD/svg11.dtd">
<svg height="335.627187pt" version="1.1" viewBox="0 0 886.866875 335.627187" width="886.866875pt" xmlns="http://www.w3.org/2000/svg" xmlns:xlink="http://www.w3.org/1999/xlink">
 <metadata>
  <rdf:RDF xmlns:cc="http://creativecommons.org/ns#" xmlns:dc="http://purl.org/dc/elements/1.1/" xmlns:rdf="http://www.w3.org/1999/02/22-rdf-syntax-ns#">
   <cc:Work>
    <dc:type rdf:resource="http://purl.org/dc/dcmitype/StillImage"/>
    <dc:date>2022-12-05T12:52:38.041858</dc:date>
    <dc:format>image/svg+xml</dc:format>
    <dc:creator>
     <cc:Agent>
      <dc:title>Matplotlib v3.4.3, https://matplotlib.org/</dc:title>
     </cc:Agent>
    </dc:creator>
   </cc:Work>
  </rdf:RDF>
 </metadata>
 <defs>
  <style type="text/css">*{stroke-linecap:butt;stroke-linejoin:round;}</style>
 </defs>
 <g id="figure_1">
  <g id="patch_1">
   <path d="M 0 335.627187 
L 886.866875 335.627187 
L 886.866875 0 
L 0 0 
z
" style="fill:none;"/>
  </g>
  <g id="axes_1">
   <g id="patch_2">
    <path d="M 42.666875 295.191562 
L 288.843346 295.191562 
L 288.843346 23.391562 
L 42.666875 23.391562 
z
" style="fill:#ffffff;"/>
   </g>
   <g id="line2d_1">
    <path clip-path="url(#pc1f2a09991)" d="M 266.617787 41.511562 
L 253.562353 59.631562 
L 243.519711 77.751562 
L 233.477069 95.871562 
L 222.430163 113.991562 
L 212.387521 132.111562 
L 200.336351 150.231562 
L 187.280917 168.351562 
L 173.221218 186.471562 
L 159.16152 204.591562 
L 144.097557 222.711562 
L 116.982424 240.831562 
L 80.828914 258.951562 
L 42.666875 277.071562 
L 42.666875 295.191562 
" style="fill:none;stroke:#808080;stroke-linecap:square;stroke-opacity:0.2;stroke-width:7.5;"/>
   </g>
   <g id="matplotlib.axis_1">
    <g id="xtick_1">
     <g id="line2d_2">
      <path clip-path="url(#pc1f2a09991)" d="M 42.666875 295.191562 
L 42.666875 23.391562 
" style="fill:none;stroke:#b0b0b0;stroke-linecap:square;stroke-opacity:0.2;stroke-width:0.8;"/>
     </g>
     <g id="line2d_3">
      <defs>
       <path d="M 0 0 
L 0 3.5 
" id="me55c9e174e" style="stroke:#000000;stroke-width:0.8;"/>
      </defs>
      <g>
       <use style="stroke:#000000;stroke-width:0.8;" x="42.666875" xlink:href="#me55c9e174e" y="295.191562"/>
      </g>
     </g>
     <g id="text_1">
      <!-- 0 -->
      <g transform="translate(39.330313 310.780937)scale(0.12 -0.12)">
       <defs>
        <path d="M 266 2259 
Q 266 3072 433 3567 
Q 600 4063 929 4331 
Q 1259 4600 1759 4600 
Q 2128 4600 2406 4451 
Q 2684 4303 2865 4023 
Q 3047 3744 3150 3342 
Q 3253 2941 3253 2259 
Q 3253 1453 3087 958 
Q 2922 463 2592 192 
Q 2263 -78 1759 -78 
Q 1097 -78 719 397 
Q 266 969 266 2259 
z
M 844 2259 
Q 844 1131 1108 757 
Q 1372 384 1759 384 
Q 2147 384 2411 759 
Q 2675 1134 2675 2259 
Q 2675 3391 2411 3762 
Q 2147 4134 1753 4134 
Q 1366 4134 1134 3806 
Q 844 3388 844 2259 
z
" id="ArialMT-30" transform="scale(0.015625)"/>
       </defs>
       <use xlink:href="#ArialMT-30"/>
      </g>
     </g>
    </g>
    <g id="xtick_2">
     <g id="line2d_4">
      <path clip-path="url(#pc1f2a09991)" d="M 92.880084 295.191562 
L 92.880084 23.391562 
" style="fill:none;stroke:#b0b0b0;stroke-linecap:square;stroke-opacity:0.2;stroke-width:0.8;"/>
     </g>
     <g id="line2d_5">
      <g>
       <use style="stroke:#000000;stroke-width:0.8;" x="92.880084" xlink:href="#me55c9e174e" y="295.191562"/>
      </g>
     </g>
     <g id="text_2">
      <!-- 50 -->
      <g transform="translate(86.206959 310.780937)scale(0.12 -0.12)">
       <defs>
        <path d="M 266 1200 
L 856 1250 
Q 922 819 1161 601 
Q 1400 384 1738 384 
Q 2144 384 2425 690 
Q 2706 997 2706 1503 
Q 2706 1984 2436 2262 
Q 2166 2541 1728 2541 
Q 1456 2541 1237 2417 
Q 1019 2294 894 2097 
L 366 2166 
L 809 4519 
L 3088 4519 
L 3088 3981 
L 1259 3981 
L 1013 2750 
Q 1425 3038 1878 3038 
Q 2478 3038 2890 2622 
Q 3303 2206 3303 1553 
Q 3303 931 2941 478 
Q 2500 -78 1738 -78 
Q 1113 -78 717 272 
Q 322 622 266 1200 
z
" id="ArialMT-35" transform="scale(0.015625)"/>
       </defs>
       <use xlink:href="#ArialMT-35"/>
       <use x="55.615234" xlink:href="#ArialMT-30"/>
      </g>
     </g>
    </g>
    <g id="xtick_3">
     <g id="line2d_6">
      <path clip-path="url(#pc1f2a09991)" d="M 143.093293 295.191562 
L 143.093293 23.391562 
" style="fill:none;stroke:#b0b0b0;stroke-linecap:square;stroke-opacity:0.2;stroke-width:0.8;"/>
     </g>
     <g id="line2d_7">
      <g>
       <use style="stroke:#000000;stroke-width:0.8;" x="143.093293" xlink:href="#me55c9e174e" y="295.191562"/>
      </g>
     </g>
     <g id="text_3">
      <!-- 100 -->
      <g transform="translate(133.083606 310.780937)scale(0.12 -0.12)">
       <defs>
        <path d="M 2384 0 
L 1822 0 
L 1822 3584 
Q 1619 3391 1289 3197 
Q 959 3003 697 2906 
L 697 3450 
Q 1169 3672 1522 3987 
Q 1875 4303 2022 4600 
L 2384 4600 
L 2384 0 
z
" id="ArialMT-31" transform="scale(0.015625)"/>
       </defs>
       <use xlink:href="#ArialMT-31"/>
       <use x="55.615234" xlink:href="#ArialMT-30"/>
       <use x="111.230469" xlink:href="#ArialMT-30"/>
      </g>
     </g>
    </g>
    <g id="xtick_4">
     <g id="line2d_8">
      <path clip-path="url(#pc1f2a09991)" d="M 193.306502 295.191562 
L 193.306502 23.391562 
" style="fill:none;stroke:#b0b0b0;stroke-linecap:square;stroke-opacity:0.2;stroke-width:0.8;"/>
     </g>
     <g id="line2d_9">
      <g>
       <use style="stroke:#000000;stroke-width:0.8;" x="193.306502" xlink:href="#me55c9e174e" y="295.191562"/>
      </g>
     </g>
     <g id="text_4">
      <!-- 150 -->
      <g transform="translate(183.296815 310.780937)scale(0.12 -0.12)">
       <use xlink:href="#ArialMT-31"/>
       <use x="55.615234" xlink:href="#ArialMT-35"/>
       <use x="111.230469" xlink:href="#ArialMT-30"/>
      </g>
     </g>
    </g>
    <g id="xtick_5">
     <g id="line2d_10">
      <path clip-path="url(#pc1f2a09991)" d="M 243.519711 295.191562 
L 243.519711 23.391562 
" style="fill:none;stroke:#b0b0b0;stroke-linecap:square;stroke-opacity:0.2;stroke-width:0.8;"/>
     </g>
     <g id="line2d_11">
      <g>
       <use style="stroke:#000000;stroke-width:0.8;" x="243.519711" xlink:href="#me55c9e174e" y="295.191562"/>
      </g>
     </g>
     <g id="text_5">
      <!-- 200 -->
      <g transform="translate(233.510024 310.780937)scale(0.12 -0.12)">
       <defs>
        <path d="M 3222 541 
L 3222 0 
L 194 0 
Q 188 203 259 391 
Q 375 700 629 1000 
Q 884 1300 1366 1694 
Q 2113 2306 2375 2664 
Q 2638 3022 2638 3341 
Q 2638 3675 2398 3904 
Q 2159 4134 1775 4134 
Q 1369 4134 1125 3890 
Q 881 3647 878 3216 
L 300 3275 
Q 359 3922 746 4261 
Q 1134 4600 1788 4600 
Q 2447 4600 2831 4234 
Q 3216 3869 3216 3328 
Q 3216 3053 3103 2787 
Q 2991 2522 2730 2228 
Q 2469 1934 1863 1422 
Q 1356 997 1212 845 
Q 1069 694 975 541 
L 3222 541 
z
" id="ArialMT-32" transform="scale(0.015625)"/>
       </defs>
       <use xlink:href="#ArialMT-32"/>
       <use x="55.615234" xlink:href="#ArialMT-30"/>
       <use x="111.230469" xlink:href="#ArialMT-30"/>
      </g>
     </g>
    </g>
    <g id="text_6">
     <!-- Discharge [cfs] -->
     <g transform="translate(126.077298 325.901562)scale(0.12 -0.12)">
      <defs>
       <path d="M 494 0 
L 494 4581 
L 2072 4581 
Q 2606 4581 2888 4516 
Q 3281 4425 3559 4188 
Q 3922 3881 4101 3404 
Q 4281 2928 4281 2316 
Q 4281 1794 4159 1391 
Q 4038 988 3847 723 
Q 3656 459 3429 307 
Q 3203 156 2883 78 
Q 2563 0 2147 0 
L 494 0 
z
M 1100 541 
L 2078 541 
Q 2531 541 2789 625 
Q 3047 709 3200 863 
Q 3416 1078 3536 1442 
Q 3656 1806 3656 2325 
Q 3656 3044 3420 3430 
Q 3184 3816 2847 3947 
Q 2603 4041 2063 4041 
L 1100 4041 
L 1100 541 
z
" id="ArialMT-44" transform="scale(0.015625)"/>
       <path d="M 425 3934 
L 425 4581 
L 988 4581 
L 988 3934 
L 425 3934 
z
M 425 0 
L 425 3319 
L 988 3319 
L 988 0 
L 425 0 
z
" id="ArialMT-69" transform="scale(0.015625)"/>
       <path d="M 197 991 
L 753 1078 
Q 800 744 1014 566 
Q 1228 388 1613 388 
Q 2000 388 2187 545 
Q 2375 703 2375 916 
Q 2375 1106 2209 1216 
Q 2094 1291 1634 1406 
Q 1016 1563 777 1677 
Q 538 1791 414 1992 
Q 291 2194 291 2438 
Q 291 2659 392 2848 
Q 494 3038 669 3163 
Q 800 3259 1026 3326 
Q 1253 3394 1513 3394 
Q 1903 3394 2198 3281 
Q 2494 3169 2634 2976 
Q 2775 2784 2828 2463 
L 2278 2388 
Q 2241 2644 2061 2787 
Q 1881 2931 1553 2931 
Q 1166 2931 1000 2803 
Q 834 2675 834 2503 
Q 834 2394 903 2306 
Q 972 2216 1119 2156 
Q 1203 2125 1616 2013 
Q 2213 1853 2448 1751 
Q 2684 1650 2818 1456 
Q 2953 1263 2953 975 
Q 2953 694 2789 445 
Q 2625 197 2315 61 
Q 2006 -75 1616 -75 
Q 969 -75 630 194 
Q 291 463 197 991 
z
" id="ArialMT-73" transform="scale(0.015625)"/>
       <path d="M 2588 1216 
L 3141 1144 
Q 3050 572 2676 248 
Q 2303 -75 1759 -75 
Q 1078 -75 664 370 
Q 250 816 250 1647 
Q 250 2184 428 2587 
Q 606 2991 970 3192 
Q 1334 3394 1763 3394 
Q 2303 3394 2647 3120 
Q 2991 2847 3088 2344 
L 2541 2259 
Q 2463 2594 2264 2762 
Q 2066 2931 1784 2931 
Q 1359 2931 1093 2626 
Q 828 2322 828 1663 
Q 828 994 1084 691 
Q 1341 388 1753 388 
Q 2084 388 2306 591 
Q 2528 794 2588 1216 
z
" id="ArialMT-63" transform="scale(0.015625)"/>
       <path d="M 422 0 
L 422 4581 
L 984 4581 
L 984 2938 
Q 1378 3394 1978 3394 
Q 2347 3394 2619 3248 
Q 2891 3103 3008 2847 
Q 3125 2591 3125 2103 
L 3125 0 
L 2563 0 
L 2563 2103 
Q 2563 2525 2380 2717 
Q 2197 2909 1863 2909 
Q 1613 2909 1392 2779 
Q 1172 2650 1078 2428 
Q 984 2206 984 1816 
L 984 0 
L 422 0 
z
" id="ArialMT-68" transform="scale(0.015625)"/>
       <path d="M 2588 409 
Q 2275 144 1986 34 
Q 1697 -75 1366 -75 
Q 819 -75 525 192 
Q 231 459 231 875 
Q 231 1119 342 1320 
Q 453 1522 633 1644 
Q 813 1766 1038 1828 
Q 1203 1872 1538 1913 
Q 2219 1994 2541 2106 
Q 2544 2222 2544 2253 
Q 2544 2597 2384 2738 
Q 2169 2928 1744 2928 
Q 1347 2928 1158 2789 
Q 969 2650 878 2297 
L 328 2372 
Q 403 2725 575 2942 
Q 747 3159 1072 3276 
Q 1397 3394 1825 3394 
Q 2250 3394 2515 3294 
Q 2781 3194 2906 3042 
Q 3031 2891 3081 2659 
Q 3109 2516 3109 2141 
L 3109 1391 
Q 3109 606 3145 398 
Q 3181 191 3288 0 
L 2700 0 
Q 2613 175 2588 409 
z
M 2541 1666 
Q 2234 1541 1622 1453 
Q 1275 1403 1131 1340 
Q 988 1278 909 1158 
Q 831 1038 831 891 
Q 831 666 1001 516 
Q 1172 366 1500 366 
Q 1825 366 2078 508 
Q 2331 650 2450 897 
Q 2541 1088 2541 1459 
L 2541 1666 
z
" id="ArialMT-61" transform="scale(0.015625)"/>
       <path d="M 416 0 
L 416 3319 
L 922 3319 
L 922 2816 
Q 1116 3169 1280 3281 
Q 1444 3394 1641 3394 
Q 1925 3394 2219 3213 
L 2025 2691 
Q 1819 2813 1613 2813 
Q 1428 2813 1281 2702 
Q 1134 2591 1072 2394 
Q 978 2094 978 1738 
L 978 0 
L 416 0 
z
" id="ArialMT-72" transform="scale(0.015625)"/>
       <path d="M 319 -275 
L 866 -356 
Q 900 -609 1056 -725 
Q 1266 -881 1628 -881 
Q 2019 -881 2231 -725 
Q 2444 -569 2519 -288 
Q 2563 -116 2559 434 
Q 2191 0 1641 0 
Q 956 0 581 494 
Q 206 988 206 1678 
Q 206 2153 378 2554 
Q 550 2956 876 3175 
Q 1203 3394 1644 3394 
Q 2231 3394 2613 2919 
L 2613 3319 
L 3131 3319 
L 3131 450 
Q 3131 -325 2973 -648 
Q 2816 -972 2473 -1159 
Q 2131 -1347 1631 -1347 
Q 1038 -1347 672 -1080 
Q 306 -813 319 -275 
z
M 784 1719 
Q 784 1066 1043 766 
Q 1303 466 1694 466 
Q 2081 466 2343 764 
Q 2606 1063 2606 1700 
Q 2606 2309 2336 2618 
Q 2066 2928 1684 2928 
Q 1309 2928 1046 2623 
Q 784 2319 784 1719 
z
" id="ArialMT-67" transform="scale(0.015625)"/>
       <path d="M 2694 1069 
L 3275 997 
Q 3138 488 2766 206 
Q 2394 -75 1816 -75 
Q 1088 -75 661 373 
Q 234 822 234 1631 
Q 234 2469 665 2931 
Q 1097 3394 1784 3394 
Q 2450 3394 2872 2941 
Q 3294 2488 3294 1666 
Q 3294 1616 3291 1516 
L 816 1516 
Q 847 969 1125 678 
Q 1403 388 1819 388 
Q 2128 388 2347 550 
Q 2566 713 2694 1069 
z
M 847 1978 
L 2700 1978 
Q 2663 2397 2488 2606 
Q 2219 2931 1791 2931 
Q 1403 2931 1139 2672 
Q 875 2413 847 1978 
z
" id="ArialMT-65" transform="scale(0.015625)"/>
       <path id="ArialMT-20" transform="scale(0.015625)"/>
       <path d="M 434 -1272 
L 434 4581 
L 1675 4581 
L 1675 4116 
L 997 4116 
L 997 -806 
L 1675 -806 
L 1675 -1272 
L 434 -1272 
z
" id="ArialMT-5b" transform="scale(0.015625)"/>
       <path d="M 556 0 
L 556 2881 
L 59 2881 
L 59 3319 
L 556 3319 
L 556 3672 
Q 556 4006 616 4169 
Q 697 4388 901 4523 
Q 1106 4659 1475 4659 
Q 1713 4659 2000 4603 
L 1916 4113 
Q 1741 4144 1584 4144 
Q 1328 4144 1222 4034 
Q 1116 3925 1116 3625 
L 1116 3319 
L 1763 3319 
L 1763 2881 
L 1116 2881 
L 1116 0 
L 556 0 
z
" id="ArialMT-66" transform="scale(0.015625)"/>
       <path d="M 1363 -1272 
L 122 -1272 
L 122 -806 
L 800 -806 
L 800 4116 
L 122 4116 
L 122 4581 
L 1363 4581 
L 1363 -1272 
z
" id="ArialMT-5d" transform="scale(0.015625)"/>
      </defs>
      <use xlink:href="#ArialMT-44"/>
      <use x="72.216797" xlink:href="#ArialMT-69"/>
      <use x="94.433594" xlink:href="#ArialMT-73"/>
      <use x="144.433594" xlink:href="#ArialMT-63"/>
      <use x="194.433594" xlink:href="#ArialMT-68"/>
      <use x="250.048828" xlink:href="#ArialMT-61"/>
      <use x="305.664062" xlink:href="#ArialMT-72"/>
      <use x="338.964844" xlink:href="#ArialMT-67"/>
      <use x="394.580078" xlink:href="#ArialMT-65"/>
      <use x="450.195312" xlink:href="#ArialMT-20"/>
      <use x="477.978516" xlink:href="#ArialMT-5b"/>
      <use x="505.761719" xlink:href="#ArialMT-63"/>
      <use x="555.761719" xlink:href="#ArialMT-66"/>
      <use x="583.544922" xlink:href="#ArialMT-73"/>
      <use x="633.544922" xlink:href="#ArialMT-5d"/>
     </g>
    </g>
   </g>
   <g id="matplotlib.axis_2">
    <g id="ytick_1">
     <g id="line2d_12">
      <path clip-path="url(#pc1f2a09991)" d="M 42.666875 295.191562 
L 288.843346 295.191562 
" style="fill:none;stroke:#b0b0b0;stroke-linecap:square;stroke-opacity:0.2;stroke-width:0.8;"/>
     </g>
     <g id="line2d_13">
      <defs>
       <path d="M 0 0 
L -3.5 0 
" id="mbdda40d29e" style="stroke:#000000;stroke-width:0.8;"/>
      </defs>
      <g>
       <use style="stroke:#000000;stroke-width:0.8;" x="42.666875" xlink:href="#mbdda40d29e" y="295.191562"/>
      </g>
     </g>
     <g id="text_7">
      <!-- 0 -->
      <g transform="translate(28.99375 299.48625)scale(0.12 -0.12)">
       <use xlink:href="#ArialMT-30"/>
      </g>
     </g>
    </g>
    <g id="ytick_2">
     <g id="line2d_14">
      <path clip-path="url(#pc1f2a09991)" d="M 42.666875 258.951562 
L 288.843346 258.951562 
" style="fill:none;stroke:#b0b0b0;stroke-linecap:square;stroke-opacity:0.2;stroke-width:0.8;"/>
     </g>
     <g id="line2d_15">
      <g>
       <use style="stroke:#000000;stroke-width:0.8;" x="42.666875" xlink:href="#mbdda40d29e" y="258.951562"/>
      </g>
     </g>
     <g id="text_8">
      <!-- 2 -->
      <g transform="translate(28.99375 263.24625)scale(0.12 -0.12)">
       <use xlink:href="#ArialMT-32"/>
      </g>
     </g>
    </g>
    <g id="ytick_3">
     <g id="line2d_16">
      <path clip-path="url(#pc1f2a09991)" d="M 42.666875 222.711562 
L 288.843346 222.711562 
" style="fill:none;stroke:#b0b0b0;stroke-linecap:square;stroke-opacity:0.2;stroke-width:0.8;"/>
     </g>
     <g id="line2d_17">
      <g>
       <use style="stroke:#000000;stroke-width:0.8;" x="42.666875" xlink:href="#mbdda40d29e" y="222.711562"/>
      </g>
     </g>
     <g id="text_9">
      <!-- 4 -->
      <g transform="translate(28.99375 227.00625)scale(0.12 -0.12)">
       <defs>
        <path d="M 2069 0 
L 2069 1097 
L 81 1097 
L 81 1613 
L 2172 4581 
L 2631 4581 
L 2631 1613 
L 3250 1613 
L 3250 1097 
L 2631 1097 
L 2631 0 
L 2069 0 
z
M 2069 1613 
L 2069 3678 
L 634 1613 
L 2069 1613 
z
" id="ArialMT-34" transform="scale(0.015625)"/>
       </defs>
       <use xlink:href="#ArialMT-34"/>
      </g>
     </g>
    </g>
    <g id="ytick_4">
     <g id="line2d_18">
      <path clip-path="url(#pc1f2a09991)" d="M 42.666875 186.471562 
L 288.843346 186.471562 
" style="fill:none;stroke:#b0b0b0;stroke-linecap:square;stroke-opacity:0.2;stroke-width:0.8;"/>
     </g>
     <g id="line2d_19">
      <g>
       <use style="stroke:#000000;stroke-width:0.8;" x="42.666875" xlink:href="#mbdda40d29e" y="186.471562"/>
      </g>
     </g>
     <g id="text_10">
      <!-- 6 -->
      <g transform="translate(28.99375 190.76625)scale(0.12 -0.12)">
       <defs>
        <path d="M 3184 3459 
L 2625 3416 
Q 2550 3747 2413 3897 
Q 2184 4138 1850 4138 
Q 1581 4138 1378 3988 
Q 1113 3794 959 3422 
Q 806 3050 800 2363 
Q 1003 2672 1297 2822 
Q 1591 2972 1913 2972 
Q 2475 2972 2870 2558 
Q 3266 2144 3266 1488 
Q 3266 1056 3080 686 
Q 2894 316 2569 119 
Q 2244 -78 1831 -78 
Q 1128 -78 684 439 
Q 241 956 241 2144 
Q 241 3472 731 4075 
Q 1159 4600 1884 4600 
Q 2425 4600 2770 4297 
Q 3116 3994 3184 3459 
z
M 888 1484 
Q 888 1194 1011 928 
Q 1134 663 1356 523 
Q 1578 384 1822 384 
Q 2178 384 2434 671 
Q 2691 959 2691 1453 
Q 2691 1928 2437 2201 
Q 2184 2475 1800 2475 
Q 1419 2475 1153 2201 
Q 888 1928 888 1484 
z
" id="ArialMT-36" transform="scale(0.015625)"/>
       </defs>
       <use xlink:href="#ArialMT-36"/>
      </g>
     </g>
    </g>
    <g id="ytick_5">
     <g id="line2d_20">
      <path clip-path="url(#pc1f2a09991)" d="M 42.666875 150.231562 
L 288.843346 150.231562 
" style="fill:none;stroke:#b0b0b0;stroke-linecap:square;stroke-opacity:0.2;stroke-width:0.8;"/>
     </g>
     <g id="line2d_21">
      <g>
       <use style="stroke:#000000;stroke-width:0.8;" x="42.666875" xlink:href="#mbdda40d29e" y="150.231562"/>
      </g>
     </g>
     <g id="text_11">
      <!-- 8 -->
      <g transform="translate(28.99375 154.52625)scale(0.12 -0.12)">
       <defs>
        <path d="M 1131 2484 
Q 781 2613 612 2850 
Q 444 3088 444 3419 
Q 444 3919 803 4259 
Q 1163 4600 1759 4600 
Q 2359 4600 2725 4251 
Q 3091 3903 3091 3403 
Q 3091 3084 2923 2848 
Q 2756 2613 2416 2484 
Q 2838 2347 3058 2040 
Q 3278 1734 3278 1309 
Q 3278 722 2862 322 
Q 2447 -78 1769 -78 
Q 1091 -78 675 323 
Q 259 725 259 1325 
Q 259 1772 486 2073 
Q 713 2375 1131 2484 
z
M 1019 3438 
Q 1019 3113 1228 2906 
Q 1438 2700 1772 2700 
Q 2097 2700 2305 2904 
Q 2513 3109 2513 3406 
Q 2513 3716 2298 3927 
Q 2084 4138 1766 4138 
Q 1444 4138 1231 3931 
Q 1019 3725 1019 3438 
z
M 838 1322 
Q 838 1081 952 856 
Q 1066 631 1291 507 
Q 1516 384 1775 384 
Q 2178 384 2440 643 
Q 2703 903 2703 1303 
Q 2703 1709 2433 1975 
Q 2163 2241 1756 2241 
Q 1359 2241 1098 1978 
Q 838 1716 838 1322 
z
" id="ArialMT-38" transform="scale(0.015625)"/>
       </defs>
       <use xlink:href="#ArialMT-38"/>
      </g>
     </g>
    </g>
    <g id="ytick_6">
     <g id="line2d_22">
      <path clip-path="url(#pc1f2a09991)" d="M 42.666875 113.991562 
L 288.843346 113.991562 
" style="fill:none;stroke:#b0b0b0;stroke-linecap:square;stroke-opacity:0.2;stroke-width:0.8;"/>
     </g>
     <g id="line2d_23">
      <g>
       <use style="stroke:#000000;stroke-width:0.8;" x="42.666875" xlink:href="#mbdda40d29e" y="113.991562"/>
      </g>
     </g>
     <g id="text_12">
      <!-- 10 -->
      <g transform="translate(22.320625 118.28625)scale(0.12 -0.12)">
       <use xlink:href="#ArialMT-31"/>
       <use x="55.615234" xlink:href="#ArialMT-30"/>
      </g>
     </g>
    </g>
    <g id="ytick_7">
     <g id="line2d_24">
      <path clip-path="url(#pc1f2a09991)" d="M 42.666875 77.751562 
L 288.843346 77.751562 
" style="fill:none;stroke:#b0b0b0;stroke-linecap:square;stroke-opacity:0.2;stroke-width:0.8;"/>
     </g>
     <g id="line2d_25">
      <g>
       <use style="stroke:#000000;stroke-width:0.8;" x="42.666875" xlink:href="#mbdda40d29e" y="77.751562"/>
      </g>
     </g>
     <g id="text_13">
      <!-- 12 -->
      <g transform="translate(22.320625 82.04625)scale(0.12 -0.12)">
       <use xlink:href="#ArialMT-31"/>
       <use x="55.615234" xlink:href="#ArialMT-32"/>
      </g>
     </g>
    </g>
    <g id="ytick_8">
     <g id="line2d_26">
      <path clip-path="url(#pc1f2a09991)" d="M 42.666875 41.511562 
L 288.843346 41.511562 
" style="fill:none;stroke:#b0b0b0;stroke-linecap:square;stroke-opacity:0.2;stroke-width:0.8;"/>
     </g>
     <g id="line2d_27">
      <g>
       <use style="stroke:#000000;stroke-width:0.8;" x="42.666875" xlink:href="#mbdda40d29e" y="41.511562"/>
      </g>
     </g>
     <g id="text_14">
      <!-- 14 -->
      <g transform="translate(22.320625 45.80625)scale(0.12 -0.12)">
       <use xlink:href="#ArialMT-31"/>
       <use x="55.615234" xlink:href="#ArialMT-34"/>
      </g>
     </g>
    </g>
    <g id="text_15">
     <!-- Headwater Depth [ft] -->
     <g transform="translate(15.935625 214.31625)rotate(-90)scale(0.12 -0.12)">
      <defs>
       <path d="M 513 0 
L 513 4581 
L 1119 4581 
L 1119 2700 
L 3500 2700 
L 3500 4581 
L 4106 4581 
L 4106 0 
L 3500 0 
L 3500 2159 
L 1119 2159 
L 1119 0 
L 513 0 
z
" id="ArialMT-48" transform="scale(0.015625)"/>
       <path d="M 2575 0 
L 2575 419 
Q 2259 -75 1647 -75 
Q 1250 -75 917 144 
Q 584 363 401 755 
Q 219 1147 219 1656 
Q 219 2153 384 2558 
Q 550 2963 881 3178 
Q 1213 3394 1622 3394 
Q 1922 3394 2156 3267 
Q 2391 3141 2538 2938 
L 2538 4581 
L 3097 4581 
L 3097 0 
L 2575 0 
z
M 797 1656 
Q 797 1019 1065 703 
Q 1334 388 1700 388 
Q 2069 388 2326 689 
Q 2584 991 2584 1609 
Q 2584 2291 2321 2609 
Q 2059 2928 1675 2928 
Q 1300 2928 1048 2622 
Q 797 2316 797 1656 
z
" id="ArialMT-64" transform="scale(0.015625)"/>
       <path d="M 1034 0 
L 19 3319 
L 600 3319 
L 1128 1403 
L 1325 691 
Q 1338 744 1497 1375 
L 2025 3319 
L 2603 3319 
L 3100 1394 
L 3266 759 
L 3456 1400 
L 4025 3319 
L 4572 3319 
L 3534 0 
L 2950 0 
L 2422 1988 
L 2294 2553 
L 1622 0 
L 1034 0 
z
" id="ArialMT-77" transform="scale(0.015625)"/>
       <path d="M 1650 503 
L 1731 6 
Q 1494 -44 1306 -44 
Q 1000 -44 831 53 
Q 663 150 594 308 
Q 525 466 525 972 
L 525 2881 
L 113 2881 
L 113 3319 
L 525 3319 
L 525 4141 
L 1084 4478 
L 1084 3319 
L 1650 3319 
L 1650 2881 
L 1084 2881 
L 1084 941 
Q 1084 700 1114 631 
Q 1144 563 1211 522 
Q 1278 481 1403 481 
Q 1497 481 1650 503 
z
" id="ArialMT-74" transform="scale(0.015625)"/>
       <path d="M 422 -1272 
L 422 3319 
L 934 3319 
L 934 2888 
Q 1116 3141 1344 3267 
Q 1572 3394 1897 3394 
Q 2322 3394 2647 3175 
Q 2972 2956 3137 2557 
Q 3303 2159 3303 1684 
Q 3303 1175 3120 767 
Q 2938 359 2589 142 
Q 2241 -75 1856 -75 
Q 1575 -75 1351 44 
Q 1128 163 984 344 
L 984 -1272 
L 422 -1272 
z
M 931 1641 
Q 931 1000 1190 694 
Q 1450 388 1819 388 
Q 2194 388 2461 705 
Q 2728 1022 2728 1688 
Q 2728 2322 2467 2637 
Q 2206 2953 1844 2953 
Q 1484 2953 1207 2617 
Q 931 2281 931 1641 
z
" id="ArialMT-70" transform="scale(0.015625)"/>
      </defs>
      <use xlink:href="#ArialMT-48"/>
      <use x="72.216797" xlink:href="#ArialMT-65"/>
      <use x="127.832031" xlink:href="#ArialMT-61"/>
      <use x="183.447266" xlink:href="#ArialMT-64"/>
      <use x="239.0625" xlink:href="#ArialMT-77"/>
      <use x="311.279297" xlink:href="#ArialMT-61"/>
      <use x="366.894531" xlink:href="#ArialMT-74"/>
      <use x="394.677734" xlink:href="#ArialMT-65"/>
      <use x="450.292969" xlink:href="#ArialMT-72"/>
      <use x="483.59375" xlink:href="#ArialMT-20"/>
      <use x="511.376953" xlink:href="#ArialMT-44"/>
      <use x="583.59375" xlink:href="#ArialMT-65"/>
      <use x="639.208984" xlink:href="#ArialMT-70"/>
      <use x="694.824219" xlink:href="#ArialMT-74"/>
      <use x="722.607422" xlink:href="#ArialMT-68"/>
      <use x="778.222656" xlink:href="#ArialMT-20"/>
      <use x="806.005859" xlink:href="#ArialMT-5b"/>
      <use x="833.789062" xlink:href="#ArialMT-66"/>
      <use x="861.572266" xlink:href="#ArialMT-74"/>
      <use x="889.355469" xlink:href="#ArialMT-5d"/>
     </g>
    </g>
   </g>
   <g id="line2d_28">
    <path clip-path="url(#pc1f2a09991)" d="M 42.666883 295.173442 
L 42.774978 293.724205 
L 43.090918 292.419891 
L 43.633758 291.115577 
L 44.461323 289.738801 
L 45.553759 288.362026 
L 46.990019 286.912788 
L 48.811426 285.391089 
L 51.168367 283.724465 
L 54.021288 281.98538 
L 57.550188 280.101371 
L 61.83819 278.072439 
L 66.962921 275.898582 
L 73.190041 273.50734 
L 80.626035 270.898713 
L 89.584623 268.000237 
L 100.403693 264.739453 
L 114.187762 260.826511 
L 134.747092 255.246947 
L 164.323013 247.203678 
L 177.028342 243.508122 
L 186.231211 240.609647 
L 193.337072 238.145943 
L 198.744418 236.044548 
L 202.822943 234.233001 
L 205.885161 232.63884 
L 208.06769 231.262064 
L 209.522279 230.102674 
L 210.465081 229.088208 
L 210.992713 228.218665 
L 211.215296 227.421585 
L 211.183699 226.769428 
L 210.928178 226.117271 
L 210.406167 225.465114 
L 209.551602 224.812957 
L 208.420566 224.233262 
L 206.767815 223.653567 
L 204.925905 223.218796 
L 202.371499 222.856486 
L 202.371499 222.856486 
" style="fill:none;stroke:#d62728;stroke-linecap:square;stroke-width:1.5;"/>
   </g>
   <g id="line2d_29">
    <path clip-path="url(#pc1f2a09991)" d="M 145.649586 222.693442 
L 151.402303 216.599536 
L 157.259059 210.07035 
L 163.205848 203.105886 
L 169.231008 195.706142 
L 175.324773 187.871119 
L 181.478927 179.600818 
L 187.838444 170.677597 
L 194.233308 161.319098 
L 200.799764 151.30768 
L 207.384018 140.860983 
L 214.113988 129.761368 
L 220.974181 118.008834 
L 227.830819 105.821021 
L 234.800703 92.980289 
L 241.872722 79.486639 
L 249.037087 65.34007 
L 256.389988 50.322943 
L 263.812243 34.652898 
L 271.297639 18.329934 
L 277.120657 5.271562 
L 277.120657 5.271562 
" style="fill:none;stroke:#1f77b4;stroke-linecap:square;stroke-width:1.5;"/>
   </g>
   <g id="line2d_30">
    <path clip-path="url(#pc1f2a09991)" d="M 44.748556 295.173442 
L 53.074862 294.738599 
L 58.924655 294.086333 
L 64.399363 293.216646 
L 69.727604 292.129536 
L 74.98191 290.825005 
L 80.19335 289.303052 
L 85.377618 287.563677 
L 90.543541 285.60688 
L 95.696482 283.432661 
L 101.285098 280.823598 
L 106.792138 277.997114 
L 112.236976 274.953208 
L 117.633167 271.691879 
L 123.313536 267.995707 
L 128.921261 264.082114 
L 134.752418 259.733676 
L 140.501796 255.167817 
L 146.433869 250.167113 
L 152.282123 244.948988 
L 158.284387 239.296019 
L 164.417885 233.208207 
L 170.663752 226.68555 
L 177.006316 219.72805 
L 183.247695 212.553128 
L 189.577872 204.943362 
L 196.155325 196.681331 
L 202.787331 187.984456 
L 209.467383 178.852737 
L 216.189932 169.286174 
L 223.094373 159.067346 
L 230.021901 148.413673 
L 237.103803 137.107736 
L 244.19485 125.366954 
L 251.418689 112.973907 
L 258.762002 99.928594 
L 266.213017 86.231016 
L 270.589539 77.968984 
L 270.589539 77.968984 
" style="fill:none;stroke:#2ca02c;stroke-linecap:square;stroke-width:1.5;"/>
   </g>
   <g id="line2d_31">
    <path clip-path="url(#pc1f2a09991)" d="M 42.666875 222.711562 
L 288.843346 222.711562 
" style="fill:none;stroke:#000000;stroke-dasharray:1.5,2.475;stroke-dashoffset:0;stroke-width:1.5;"/>
   </g>
   <g id="line2d_32">
    <path clip-path="url(#pc1f2a09991)" d="M 42.666875 78.239679 
L 288.843346 78.239679 
" style="fill:none;stroke:#800080;stroke-dasharray:1.5,2.475;stroke-dashoffset:0;stroke-width:1.5;"/>
   </g>
   <g id="line2d_33">
    <path clip-path="url(#pc1f2a09991)" d="M 42.666875 68.691562 
L 288.843346 68.691562 
" style="fill:none;stroke:#000000;stroke-dasharray:5.55,2.4;stroke-dashoffset:0;stroke-width:1.5;"/>
   </g>
   <g id="line2d_34">
    <defs>
     <path d="M 0 5 
C 1.326016 5 2.597899 4.473168 3.535534 3.535534 
C 4.473168 2.597899 5 1.326016 5 0 
C 5 -1.326016 4.473168 -2.597899 3.535534 -3.535534 
C 2.597899 -4.473168 1.326016 -5 0 -5 
C -1.326016 -5 -2.597899 -4.473168 -3.535534 -3.535534 
C -4.473168 -2.597899 -5 -1.326016 -5 0 
C -5 1.326016 -4.473168 2.597899 -3.535534 3.535534 
C -2.597899 4.473168 -1.326016 5 0 5 
z
" id="m38a6999b79" style="stroke:#800080;"/>
    </defs>
    <g clip-path="url(#pc1f2a09991)">
     <use style="fill:#ffffff;stroke:#800080;" x="242.544365" xlink:href="#m38a6999b79" y="78.180802"/>
    </g>
   </g>
   <g id="patch_3">
    <path d="M 42.666875 295.191562 
L 42.666875 23.391562 
" style="fill:none;stroke:#000000;stroke-linecap:square;stroke-linejoin:miter;stroke-width:0.8;"/>
   </g>
   <g id="patch_4">
    <path d="M 288.843346 295.191562 
L 288.843346 23.391562 
" style="fill:none;stroke:#000000;stroke-linecap:square;stroke-linejoin:miter;stroke-width:0.8;"/>
   </g>
   <g id="patch_5">
    <path d="M 42.666875 295.191562 
L 288.843346 295.191562 
" style="fill:none;stroke:#000000;stroke-linecap:square;stroke-linejoin:miter;stroke-width:0.8;"/>
   </g>
   <g id="patch_6">
    <path d="M 42.666875 23.391562 
L 288.843346 23.391562 
" style="fill:none;stroke:#000000;stroke-linecap:square;stroke-linejoin:miter;stroke-width:0.8;"/>
   </g>
   <g id="text_16">
    <!-- 199 cfs -->
    <g transform="translate(242.544365 99.881878)scale(0.12 -0.12)">
     <defs>
      <path d="M 350 1059 
L 891 1109 
Q 959 728 1153 556 
Q 1347 384 1650 384 
Q 1909 384 2104 503 
Q 2300 622 2425 820 
Q 2550 1019 2634 1356 
Q 2719 1694 2719 2044 
Q 2719 2081 2716 2156 
Q 2547 1888 2255 1720 
Q 1963 1553 1622 1553 
Q 1053 1553 659 1965 
Q 266 2378 266 3053 
Q 266 3750 677 4175 
Q 1088 4600 1706 4600 
Q 2153 4600 2523 4359 
Q 2894 4119 3086 3673 
Q 3278 3228 3278 2384 
Q 3278 1506 3087 986 
Q 2897 466 2520 194 
Q 2144 -78 1638 -78 
Q 1100 -78 759 220 
Q 419 519 350 1059 
z
M 2653 3081 
Q 2653 3566 2395 3850 
Q 2138 4134 1775 4134 
Q 1400 4134 1122 3828 
Q 844 3522 844 3034 
Q 844 2597 1108 2323 
Q 1372 2050 1759 2050 
Q 2150 2050 2401 2323 
Q 2653 2597 2653 3081 
z
" id="ArialMT-39" transform="scale(0.015625)"/>
     </defs>
     <use xlink:href="#ArialMT-31"/>
     <use x="55.615234" xlink:href="#ArialMT-39"/>
     <use x="111.230469" xlink:href="#ArialMT-39"/>
     <use x="166.845703" xlink:href="#ArialMT-20"/>
     <use x="194.628906" xlink:href="#ArialMT-63"/>
     <use x="244.628906" xlink:href="#ArialMT-66"/>
     <use x="272.412109" xlink:href="#ArialMT-73"/>
    </g>
   </g>
   <g id="text_17">
    <!-- Legado Diversion -->
    <g transform="translate(107.02511 17.391562)scale(0.14 -0.14)">
     <defs>
      <path d="M 491 0 
L 491 4544 
L 1416 4544 
L 1416 772 
L 3716 772 
L 3716 0 
L 491 0 
z
" id="Arial-BoldMT-4c" transform="scale(0.015625)"/>
      <path d="M 2381 1056 
L 3256 909 
Q 3088 428 2723 176 
Q 2359 -75 1813 -75 
Q 947 -75 531 491 
Q 203 944 203 1634 
Q 203 2459 634 2926 
Q 1066 3394 1725 3394 
Q 2466 3394 2894 2905 
Q 3322 2416 3303 1406 
L 1103 1406 
Q 1113 1016 1316 798 
Q 1519 581 1822 581 
Q 2028 581 2168 693 
Q 2309 806 2381 1056 
z
M 2431 1944 
Q 2422 2325 2234 2523 
Q 2047 2722 1778 2722 
Q 1491 2722 1303 2513 
Q 1116 2303 1119 1944 
L 2431 1944 
z
" id="Arial-BoldMT-65" transform="scale(0.015625)"/>
      <path d="M 378 -219 
L 1381 -341 
Q 1406 -516 1497 -581 
Q 1622 -675 1891 -675 
Q 2234 -675 2406 -572 
Q 2522 -503 2581 -350 
Q 2622 -241 2622 53 
L 2622 538 
Q 2228 0 1628 0 
Q 959 0 569 566 
Q 263 1013 263 1678 
Q 263 2513 664 2953 
Q 1066 3394 1663 3394 
Q 2278 3394 2678 2853 
L 2678 3319 
L 3500 3319 
L 3500 341 
Q 3500 -247 3403 -537 
Q 3306 -828 3131 -993 
Q 2956 -1159 2664 -1253 
Q 2372 -1347 1925 -1347 
Q 1081 -1347 728 -1058 
Q 375 -769 375 -325 
Q 375 -281 378 -219 
z
M 1163 1728 
Q 1163 1200 1367 954 
Q 1572 709 1872 709 
Q 2194 709 2416 961 
Q 2638 1213 2638 1706 
Q 2638 2222 2425 2472 
Q 2213 2722 1888 2722 
Q 1572 2722 1367 2476 
Q 1163 2231 1163 1728 
z
" id="Arial-BoldMT-67" transform="scale(0.015625)"/>
      <path d="M 1116 2306 
L 319 2450 
Q 453 2931 781 3162 
Q 1109 3394 1756 3394 
Q 2344 3394 2631 3255 
Q 2919 3116 3036 2902 
Q 3153 2688 3153 2116 
L 3144 1091 
Q 3144 653 3186 445 
Q 3228 238 3344 0 
L 2475 0 
Q 2441 88 2391 259 
Q 2369 338 2359 363 
Q 2134 144 1878 34 
Q 1622 -75 1331 -75 
Q 819 -75 523 203 
Q 228 481 228 906 
Q 228 1188 362 1408 
Q 497 1628 739 1745 
Q 981 1863 1438 1950 
Q 2053 2066 2291 2166 
L 2291 2253 
Q 2291 2506 2166 2614 
Q 2041 2722 1694 2722 
Q 1459 2722 1328 2630 
Q 1197 2538 1116 2306 
z
M 2291 1594 
Q 2122 1538 1756 1459 
Q 1391 1381 1278 1306 
Q 1106 1184 1106 997 
Q 1106 813 1243 678 
Q 1381 544 1594 544 
Q 1831 544 2047 700 
Q 2206 819 2256 991 
Q 2291 1103 2291 1419 
L 2291 1594 
z
" id="Arial-BoldMT-61" transform="scale(0.015625)"/>
      <path d="M 3503 0 
L 2688 0 
L 2688 488 
Q 2484 203 2207 64 
Q 1931 -75 1650 -75 
Q 1078 -75 670 386 
Q 263 847 263 1672 
Q 263 2516 659 2955 
Q 1056 3394 1663 3394 
Q 2219 3394 2625 2931 
L 2625 4581 
L 3503 4581 
L 3503 0 
z
M 1159 1731 
Q 1159 1200 1306 963 
Q 1519 619 1900 619 
Q 2203 619 2415 876 
Q 2628 1134 2628 1647 
Q 2628 2219 2422 2470 
Q 2216 2722 1894 2722 
Q 1581 2722 1370 2473 
Q 1159 2225 1159 1731 
z
" id="Arial-BoldMT-64" transform="scale(0.015625)"/>
      <path d="M 256 1706 
Q 256 2144 472 2553 
Q 688 2963 1083 3178 
Q 1478 3394 1966 3394 
Q 2719 3394 3200 2905 
Q 3681 2416 3681 1669 
Q 3681 916 3195 420 
Q 2709 -75 1972 -75 
Q 1516 -75 1102 131 
Q 688 338 472 736 
Q 256 1134 256 1706 
z
M 1156 1659 
Q 1156 1166 1390 903 
Q 1625 641 1969 641 
Q 2313 641 2545 903 
Q 2778 1166 2778 1666 
Q 2778 2153 2545 2415 
Q 2313 2678 1969 2678 
Q 1625 2678 1390 2415 
Q 1156 2153 1156 1659 
z
" id="Arial-BoldMT-6f" transform="scale(0.015625)"/>
      <path id="Arial-BoldMT-20" transform="scale(0.015625)"/>
      <path d="M 463 4581 
L 2153 4581 
Q 2725 4581 3025 4494 
Q 3428 4375 3715 4072 
Q 4003 3769 4153 3330 
Q 4303 2891 4303 2247 
Q 4303 1681 4163 1272 
Q 3991 772 3672 463 
Q 3431 228 3022 97 
Q 2716 0 2203 0 
L 463 0 
L 463 4581 
z
M 1388 3806 
L 1388 772 
L 2078 772 
Q 2466 772 2638 816 
Q 2863 872 3011 1006 
Q 3159 1141 3253 1448 
Q 3347 1756 3347 2288 
Q 3347 2819 3253 3103 
Q 3159 3388 2990 3547 
Q 2822 3706 2563 3763 
Q 2369 3806 1803 3806 
L 1388 3806 
z
" id="Arial-BoldMT-44" transform="scale(0.015625)"/>
      <path d="M 459 3769 
L 459 4581 
L 1338 4581 
L 1338 3769 
L 459 3769 
z
M 459 0 
L 459 3319 
L 1338 3319 
L 1338 0 
L 459 0 
z
" id="Arial-BoldMT-69" transform="scale(0.015625)"/>
      <path d="M 1372 0 
L 34 3319 
L 956 3319 
L 1581 1625 
L 1763 1059 
Q 1834 1275 1853 1344 
Q 1897 1484 1947 1625 
L 2578 3319 
L 3481 3319 
L 2163 0 
L 1372 0 
z
" id="Arial-BoldMT-76" transform="scale(0.015625)"/>
      <path d="M 1300 0 
L 422 0 
L 422 3319 
L 1238 3319 
L 1238 2847 
Q 1447 3181 1614 3287 
Q 1781 3394 1994 3394 
Q 2294 3394 2572 3228 
L 2300 2463 
Q 2078 2606 1888 2606 
Q 1703 2606 1575 2504 
Q 1447 2403 1373 2137 
Q 1300 1872 1300 1025 
L 1300 0 
z
" id="Arial-BoldMT-72" transform="scale(0.015625)"/>
      <path d="M 150 947 
L 1031 1081 
Q 1088 825 1259 692 
Q 1431 559 1741 559 
Q 2081 559 2253 684 
Q 2369 772 2369 919 
Q 2369 1019 2306 1084 
Q 2241 1147 2013 1200 
Q 950 1434 666 1628 
Q 272 1897 272 2375 
Q 272 2806 612 3100 
Q 953 3394 1669 3394 
Q 2350 3394 2681 3172 
Q 3013 2950 3138 2516 
L 2309 2363 
Q 2256 2556 2107 2659 
Q 1959 2763 1684 2763 
Q 1338 2763 1188 2666 
Q 1088 2597 1088 2488 
Q 1088 2394 1175 2328 
Q 1294 2241 1995 2081 
Q 2697 1922 2975 1691 
Q 3250 1456 3250 1038 
Q 3250 581 2869 253 
Q 2488 -75 1741 -75 
Q 1063 -75 667 200 
Q 272 475 150 947 
z
" id="Arial-BoldMT-73" transform="scale(0.015625)"/>
      <path d="M 3478 0 
L 2600 0 
L 2600 1694 
Q 2600 2231 2544 2389 
Q 2488 2547 2361 2634 
Q 2234 2722 2056 2722 
Q 1828 2722 1647 2597 
Q 1466 2472 1398 2265 
Q 1331 2059 1331 1503 
L 1331 0 
L 453 0 
L 453 3319 
L 1269 3319 
L 1269 2831 
Q 1703 3394 2363 3394 
Q 2653 3394 2893 3289 
Q 3134 3184 3257 3021 
Q 3381 2859 3429 2653 
Q 3478 2447 3478 2063 
L 3478 0 
z
" id="Arial-BoldMT-6e" transform="scale(0.015625)"/>
     </defs>
     <use xlink:href="#Arial-BoldMT-4c"/>
     <use x="61.083984" xlink:href="#Arial-BoldMT-65"/>
     <use x="116.699219" xlink:href="#Arial-BoldMT-67"/>
     <use x="177.783203" xlink:href="#Arial-BoldMT-61"/>
     <use x="233.398438" xlink:href="#Arial-BoldMT-64"/>
     <use x="294.482422" xlink:href="#Arial-BoldMT-6f"/>
     <use x="355.566406" xlink:href="#Arial-BoldMT-20"/>
     <use x="383.349609" xlink:href="#Arial-BoldMT-44"/>
     <use x="455.566406" xlink:href="#Arial-BoldMT-69"/>
     <use x="483.349609" xlink:href="#Arial-BoldMT-76"/>
     <use x="538.964844" xlink:href="#Arial-BoldMT-65"/>
     <use x="594.580078" xlink:href="#Arial-BoldMT-72"/>
     <use x="633.496094" xlink:href="#Arial-BoldMT-73"/>
     <use x="689.111328" xlink:href="#Arial-BoldMT-69"/>
     <use x="716.894531" xlink:href="#Arial-BoldMT-6f"/>
     <use x="777.978516" xlink:href="#Arial-BoldMT-6e"/>
    </g>
   </g>
   <g id="legend_1">
    <g id="patch_7">
     <path d="M 51.066875 152.265937 
L 195.520625 152.265937 
Q 197.920625 152.265937 197.920625 149.865937 
L 197.920625 31.791562 
Q 197.920625 29.391562 195.520625 29.391562 
L 51.066875 29.391562 
Q 48.666875 29.391562 48.666875 31.791562 
L 48.666875 149.865937 
Q 48.666875 152.265937 51.066875 152.265937 
z
" style="fill:#ffffff;opacity:0.8;stroke:#cccccc;stroke-linejoin:miter;"/>
    </g>
    <g id="line2d_35">
     <path d="M 53.466875 38.734687 
L 77.466875 38.734687 
" style="fill:none;stroke:#d62728;stroke-linecap:square;stroke-width:1.5;"/>
    </g>
    <g id="line2d_36"/>
    <g id="text_18">
     <!-- Open Channel Flow -->
     <g transform="translate(87.066875 42.934687)scale(0.12 -0.12)">
      <defs>
       <path d="M 309 2231 
Q 309 3372 921 4017 
Q 1534 4663 2503 4663 
Q 3138 4663 3647 4359 
Q 4156 4056 4423 3514 
Q 4691 2972 4691 2284 
Q 4691 1588 4409 1038 
Q 4128 488 3612 205 
Q 3097 -78 2500 -78 
Q 1853 -78 1343 234 
Q 834 547 571 1087 
Q 309 1628 309 2231 
z
M 934 2222 
Q 934 1394 1379 917 
Q 1825 441 2497 441 
Q 3181 441 3623 922 
Q 4066 1403 4066 2288 
Q 4066 2847 3877 3264 
Q 3688 3681 3323 3911 
Q 2959 4141 2506 4141 
Q 1863 4141 1398 3698 
Q 934 3256 934 2222 
z
" id="ArialMT-4f" transform="scale(0.015625)"/>
       <path d="M 422 0 
L 422 3319 
L 928 3319 
L 928 2847 
Q 1294 3394 1984 3394 
Q 2284 3394 2536 3286 
Q 2788 3178 2913 3003 
Q 3038 2828 3088 2588 
Q 3119 2431 3119 2041 
L 3119 0 
L 2556 0 
L 2556 2019 
Q 2556 2363 2490 2533 
Q 2425 2703 2258 2804 
Q 2091 2906 1866 2906 
Q 1506 2906 1245 2678 
Q 984 2450 984 1813 
L 984 0 
L 422 0 
z
" id="ArialMT-6e" transform="scale(0.015625)"/>
       <path d="M 3763 1606 
L 4369 1453 
Q 4178 706 3683 314 
Q 3188 -78 2472 -78 
Q 1731 -78 1267 223 
Q 803 525 561 1097 
Q 319 1669 319 2325 
Q 319 3041 592 3573 
Q 866 4106 1370 4382 
Q 1875 4659 2481 4659 
Q 3169 4659 3637 4309 
Q 4106 3959 4291 3325 
L 3694 3184 
Q 3534 3684 3231 3912 
Q 2928 4141 2469 4141 
Q 1941 4141 1586 3887 
Q 1231 3634 1087 3207 
Q 944 2781 944 2328 
Q 944 1744 1114 1308 
Q 1284 872 1643 656 
Q 2003 441 2422 441 
Q 2931 441 3284 734 
Q 3638 1028 3763 1606 
z
" id="ArialMT-43" transform="scale(0.015625)"/>
       <path d="M 409 0 
L 409 4581 
L 972 4581 
L 972 0 
L 409 0 
z
" id="ArialMT-6c" transform="scale(0.015625)"/>
       <path d="M 525 0 
L 525 4581 
L 3616 4581 
L 3616 4041 
L 1131 4041 
L 1131 2622 
L 3281 2622 
L 3281 2081 
L 1131 2081 
L 1131 0 
L 525 0 
z
" id="ArialMT-46" transform="scale(0.015625)"/>
       <path d="M 213 1659 
Q 213 2581 725 3025 
Q 1153 3394 1769 3394 
Q 2453 3394 2887 2945 
Q 3322 2497 3322 1706 
Q 3322 1066 3130 698 
Q 2938 331 2570 128 
Q 2203 -75 1769 -75 
Q 1072 -75 642 372 
Q 213 819 213 1659 
z
M 791 1659 
Q 791 1022 1069 705 
Q 1347 388 1769 388 
Q 2188 388 2466 706 
Q 2744 1025 2744 1678 
Q 2744 2294 2464 2611 
Q 2184 2928 1769 2928 
Q 1347 2928 1069 2612 
Q 791 2297 791 1659 
z
" id="ArialMT-6f" transform="scale(0.015625)"/>
      </defs>
      <use xlink:href="#ArialMT-4f"/>
      <use x="77.783203" xlink:href="#ArialMT-70"/>
      <use x="133.398438" xlink:href="#ArialMT-65"/>
      <use x="189.013672" xlink:href="#ArialMT-6e"/>
      <use x="244.628906" xlink:href="#ArialMT-20"/>
      <use x="272.412109" xlink:href="#ArialMT-43"/>
      <use x="344.628906" xlink:href="#ArialMT-68"/>
      <use x="400.244141" xlink:href="#ArialMT-61"/>
      <use x="455.859375" xlink:href="#ArialMT-6e"/>
      <use x="511.474609" xlink:href="#ArialMT-6e"/>
      <use x="567.089844" xlink:href="#ArialMT-65"/>
      <use x="622.705078" xlink:href="#ArialMT-6c"/>
      <use x="644.921875" xlink:href="#ArialMT-20"/>
      <use x="672.705078" xlink:href="#ArialMT-46"/>
      <use x="733.789062" xlink:href="#ArialMT-6c"/>
      <use x="756.005859" xlink:href="#ArialMT-6f"/>
      <use x="811.621094" xlink:href="#ArialMT-77"/>
     </g>
    </g>
    <g id="line2d_37">
     <path d="M 53.466875 55.709062 
L 77.466875 55.709062 
" style="fill:none;stroke:#1f77b4;stroke-linecap:square;stroke-width:1.5;"/>
    </g>
    <g id="line2d_38"/>
    <g id="text_19">
     <!-- Pressurized Flow -->
     <g transform="translate(87.066875 59.909062)scale(0.12 -0.12)">
      <defs>
       <path d="M 494 0 
L 494 4581 
L 2222 4581 
Q 2678 4581 2919 4538 
Q 3256 4481 3484 4323 
Q 3713 4166 3852 3881 
Q 3991 3597 3991 3256 
Q 3991 2672 3619 2267 
Q 3247 1863 2275 1863 
L 1100 1863 
L 1100 0 
L 494 0 
z
M 1100 2403 
L 2284 2403 
Q 2872 2403 3119 2622 
Q 3366 2841 3366 3238 
Q 3366 3525 3220 3729 
Q 3075 3934 2838 4000 
Q 2684 4041 2272 4041 
L 1100 4041 
L 1100 2403 
z
" id="ArialMT-50" transform="scale(0.015625)"/>
       <path d="M 2597 0 
L 2597 488 
Q 2209 -75 1544 -75 
Q 1250 -75 995 37 
Q 741 150 617 320 
Q 494 491 444 738 
Q 409 903 409 1263 
L 409 3319 
L 972 3319 
L 972 1478 
Q 972 1038 1006 884 
Q 1059 663 1231 536 
Q 1403 409 1656 409 
Q 1909 409 2131 539 
Q 2353 669 2445 892 
Q 2538 1116 2538 1541 
L 2538 3319 
L 3100 3319 
L 3100 0 
L 2597 0 
z
" id="ArialMT-75" transform="scale(0.015625)"/>
       <path d="M 125 0 
L 125 456 
L 2238 2881 
Q 1878 2863 1603 2863 
L 250 2863 
L 250 3319 
L 2963 3319 
L 2963 2947 
L 1166 841 
L 819 456 
Q 1197 484 1528 484 
L 3063 484 
L 3063 0 
L 125 0 
z
" id="ArialMT-7a" transform="scale(0.015625)"/>
      </defs>
      <use xlink:href="#ArialMT-50"/>
      <use x="66.699219" xlink:href="#ArialMT-72"/>
      <use x="100" xlink:href="#ArialMT-65"/>
      <use x="155.615234" xlink:href="#ArialMT-73"/>
      <use x="205.615234" xlink:href="#ArialMT-73"/>
      <use x="255.615234" xlink:href="#ArialMT-75"/>
      <use x="311.230469" xlink:href="#ArialMT-72"/>
      <use x="344.53125" xlink:href="#ArialMT-69"/>
      <use x="366.748047" xlink:href="#ArialMT-7a"/>
      <use x="416.748047" xlink:href="#ArialMT-65"/>
      <use x="472.363281" xlink:href="#ArialMT-64"/>
      <use x="527.978516" xlink:href="#ArialMT-20"/>
      <use x="555.761719" xlink:href="#ArialMT-46"/>
      <use x="616.845703" xlink:href="#ArialMT-6c"/>
      <use x="639.0625" xlink:href="#ArialMT-6f"/>
      <use x="694.677734" xlink:href="#ArialMT-77"/>
     </g>
    </g>
    <g id="line2d_39">
     <path d="M 53.466875 72.683437 
L 77.466875 72.683437 
" style="fill:none;stroke:#2ca02c;stroke-linecap:square;stroke-width:1.5;"/>
    </g>
    <g id="line2d_40"/>
    <g id="text_20">
     <!-- Orifice Flow -->
     <g transform="translate(87.066875 76.883437)scale(0.12 -0.12)">
      <use xlink:href="#ArialMT-4f"/>
      <use x="77.783203" xlink:href="#ArialMT-72"/>
      <use x="111.083984" xlink:href="#ArialMT-69"/>
      <use x="133.300781" xlink:href="#ArialMT-66"/>
      <use x="161.083984" xlink:href="#ArialMT-69"/>
      <use x="183.300781" xlink:href="#ArialMT-63"/>
      <use x="233.300781" xlink:href="#ArialMT-65"/>
      <use x="288.916016" xlink:href="#ArialMT-20"/>
      <use x="316.699219" xlink:href="#ArialMT-46"/>
      <use x="377.783203" xlink:href="#ArialMT-6c"/>
      <use x="400" xlink:href="#ArialMT-6f"/>
      <use x="455.615234" xlink:href="#ArialMT-77"/>
     </g>
    </g>
    <g id="line2d_41">
     <path d="M 53.466875 89.657812 
L 77.466875 89.657812 
" style="fill:none;stroke:#808080;stroke-linecap:square;stroke-opacity:0.2;stroke-width:7.5;"/>
    </g>
    <g id="line2d_42"/>
    <g id="text_21">
     <!-- Consultant -->
     <g transform="translate(87.066875 93.857812)scale(0.12 -0.12)">
      <use xlink:href="#ArialMT-43"/>
      <use x="72.216797" xlink:href="#ArialMT-6f"/>
      <use x="127.832031" xlink:href="#ArialMT-6e"/>
      <use x="183.447266" xlink:href="#ArialMT-73"/>
      <use x="233.447266" xlink:href="#ArialMT-75"/>
      <use x="289.0625" xlink:href="#ArialMT-6c"/>
      <use x="311.279297" xlink:href="#ArialMT-74"/>
      <use x="339.0625" xlink:href="#ArialMT-61"/>
      <use x="394.677734" xlink:href="#ArialMT-6e"/>
      <use x="450.292969" xlink:href="#ArialMT-74"/>
     </g>
    </g>
    <g id="line2d_43">
     <path d="M 53.466875 106.785937 
L 77.466875 106.785937 
" style="fill:none;stroke:#000000;stroke-dasharray:1.5,2.475;stroke-dashoffset:0;stroke-width:1.5;"/>
    </g>
    <g id="line2d_44"/>
    <g id="text_22">
     <!-- Top of Outlet -->
     <g transform="translate(87.066875 110.985937)scale(0.12 -0.12)">
      <defs>
       <path d="M 1659 0 
L 1659 4041 
L 150 4041 
L 150 4581 
L 3781 4581 
L 3781 4041 
L 2266 4041 
L 2266 0 
L 1659 0 
z
" id="ArialMT-54" transform="scale(0.015625)"/>
      </defs>
      <use xlink:href="#ArialMT-54"/>
      <use x="49.958984" xlink:href="#ArialMT-6f"/>
      <use x="105.574219" xlink:href="#ArialMT-70"/>
      <use x="161.189453" xlink:href="#ArialMT-20"/>
      <use x="188.972656" xlink:href="#ArialMT-6f"/>
      <use x="244.587891" xlink:href="#ArialMT-66"/>
      <use x="272.371094" xlink:href="#ArialMT-20"/>
      <use x="300.154297" xlink:href="#ArialMT-4f"/>
      <use x="377.9375" xlink:href="#ArialMT-75"/>
      <use x="433.552734" xlink:href="#ArialMT-74"/>
      <use x="461.335938" xlink:href="#ArialMT-6c"/>
      <use x="483.552734" xlink:href="#ArialMT-65"/>
      <use x="539.167969" xlink:href="#ArialMT-74"/>
     </g>
    </g>
    <g id="line2d_45">
     <path d="M 53.466875 123.760312 
L 77.466875 123.760312 
" style="fill:none;stroke:#800080;stroke-dasharray:1.5,2.475;stroke-dashoffset:0;stroke-width:1.5;"/>
    </g>
    <g id="line2d_46"/>
    <g id="text_23">
     <!-- Max Flow -->
     <g transform="translate(87.066875 127.960312)scale(0.12 -0.12)">
      <defs>
       <path d="M 475 0 
L 475 4581 
L 1388 4581 
L 2472 1338 
Q 2622 884 2691 659 
Q 2769 909 2934 1394 
L 4031 4581 
L 4847 4581 
L 4847 0 
L 4263 0 
L 4263 3834 
L 2931 0 
L 2384 0 
L 1059 3900 
L 1059 0 
L 475 0 
z
" id="ArialMT-4d" transform="scale(0.015625)"/>
       <path d="M 47 0 
L 1259 1725 
L 138 3319 
L 841 3319 
L 1350 2541 
Q 1494 2319 1581 2169 
Q 1719 2375 1834 2534 
L 2394 3319 
L 3066 3319 
L 1919 1756 
L 3153 0 
L 2463 0 
L 1781 1031 
L 1600 1309 
L 728 0 
L 47 0 
z
" id="ArialMT-78" transform="scale(0.015625)"/>
      </defs>
      <use xlink:href="#ArialMT-4d"/>
      <use x="83.300781" xlink:href="#ArialMT-61"/>
      <use x="138.916016" xlink:href="#ArialMT-78"/>
      <use x="188.916016" xlink:href="#ArialMT-20"/>
      <use x="216.699219" xlink:href="#ArialMT-46"/>
      <use x="277.783203" xlink:href="#ArialMT-6c"/>
      <use x="300" xlink:href="#ArialMT-6f"/>
      <use x="355.615234" xlink:href="#ArialMT-77"/>
     </g>
    </g>
    <g id="line2d_47">
     <path d="M 53.466875 140.880937 
L 77.466875 140.880937 
" style="fill:none;stroke:#000000;stroke-dasharray:5.55,2.4;stroke-dashoffset:0;stroke-width:1.5;"/>
    </g>
    <g id="line2d_48"/>
    <g id="text_24">
     <!-- Top of Div. SD Pipe -->
     <g transform="translate(87.066875 145.080937)scale(0.12 -0.12)">
      <defs>
       <path d="M 1344 0 
L 81 3319 
L 675 3319 
L 1388 1331 
Q 1503 1009 1600 663 
Q 1675 925 1809 1294 
L 2547 3319 
L 3125 3319 
L 1869 0 
L 1344 0 
z
" id="ArialMT-76" transform="scale(0.015625)"/>
       <path d="M 581 0 
L 581 641 
L 1222 641 
L 1222 0 
L 581 0 
z
" id="ArialMT-2e" transform="scale(0.015625)"/>
       <path d="M 288 1472 
L 859 1522 
Q 900 1178 1048 958 
Q 1197 738 1509 602 
Q 1822 466 2213 466 
Q 2559 466 2825 569 
Q 3091 672 3220 851 
Q 3350 1031 3350 1244 
Q 3350 1459 3225 1620 
Q 3100 1781 2813 1891 
Q 2628 1963 1997 2114 
Q 1366 2266 1113 2400 
Q 784 2572 623 2826 
Q 463 3081 463 3397 
Q 463 3744 659 4045 
Q 856 4347 1234 4503 
Q 1613 4659 2075 4659 
Q 2584 4659 2973 4495 
Q 3363 4331 3572 4012 
Q 3781 3694 3797 3291 
L 3216 3247 
Q 3169 3681 2898 3903 
Q 2628 4125 2100 4125 
Q 1550 4125 1298 3923 
Q 1047 3722 1047 3438 
Q 1047 3191 1225 3031 
Q 1400 2872 2139 2705 
Q 2878 2538 3153 2413 
Q 3553 2228 3743 1945 
Q 3934 1663 3934 1294 
Q 3934 928 3725 604 
Q 3516 281 3123 101 
Q 2731 -78 2241 -78 
Q 1619 -78 1198 103 
Q 778 284 539 648 
Q 300 1013 288 1472 
z
" id="ArialMT-53" transform="scale(0.015625)"/>
      </defs>
      <use xlink:href="#ArialMT-54"/>
      <use x="49.958984" xlink:href="#ArialMT-6f"/>
      <use x="105.574219" xlink:href="#ArialMT-70"/>
      <use x="161.189453" xlink:href="#ArialMT-20"/>
      <use x="188.972656" xlink:href="#ArialMT-6f"/>
      <use x="244.587891" xlink:href="#ArialMT-66"/>
      <use x="272.371094" xlink:href="#ArialMT-20"/>
      <use x="300.154297" xlink:href="#ArialMT-44"/>
      <use x="372.371094" xlink:href="#ArialMT-69"/>
      <use x="394.587891" xlink:href="#ArialMT-76"/>
      <use x="437.212891" xlink:href="#ArialMT-2e"/>
      <use x="464.996094" xlink:href="#ArialMT-20"/>
      <use x="492.779297" xlink:href="#ArialMT-53"/>
      <use x="559.478516" xlink:href="#ArialMT-44"/>
      <use x="631.695312" xlink:href="#ArialMT-20"/>
      <use x="659.478516" xlink:href="#ArialMT-50"/>
      <use x="726.177734" xlink:href="#ArialMT-69"/>
      <use x="748.394531" xlink:href="#ArialMT-70"/>
      <use x="804.009766" xlink:href="#ArialMT-65"/>
     </g>
    </g>
   </g>
  </g>
  <g id="axes_2">
   <g id="patch_8">
    <path d="M 338.07864 295.191562 
L 584.25511 295.191562 
L 584.25511 23.391562 
L 338.07864 23.391562 
z
" style="fill:#ffffff;"/>
   </g>
   <g id="line2d_49">
    <path clip-path="url(#p4e7a85a77e)" d="M 514.927979 106.199962 
L 511.460345 124.319962 
L 507.992711 142.439962 
L 504.525077 160.559962 
L 501.057443 178.679962 
L 497.589809 196.799962 
L 494.122175 214.919962 
L 490.65454 233.039962 
L 483.719272 251.159962 
L 452.510565 269.279962 
L 355.41681 287.399962 
L 338.07864 295.191562 
" style="fill:none;stroke:#808080;stroke-linecap:square;stroke-opacity:0.2;stroke-width:7.5;"/>
   </g>
   <g id="matplotlib.axis_3">
    <g id="xtick_6">
     <g id="line2d_50">
      <path clip-path="url(#p4e7a85a77e)" d="M 338.07864 295.191562 
L 338.07864 23.391562 
" style="fill:none;stroke:#b0b0b0;stroke-linecap:square;stroke-opacity:0.2;stroke-width:0.8;"/>
     </g>
     <g id="line2d_51">
      <g>
       <use style="stroke:#000000;stroke-width:0.8;" x="338.07864" xlink:href="#me55c9e174e" y="295.191562"/>
      </g>
     </g>
     <g id="text_25">
      <!-- 0 -->
      <g transform="translate(334.742077 310.780937)scale(0.12 -0.12)">
       <use xlink:href="#ArialMT-30"/>
      </g>
     </g>
    </g>
    <g id="xtick_7">
     <g id="line2d_52">
      <path clip-path="url(#p4e7a85a77e)" d="M 407.431322 295.191562 
L 407.431322 23.391562 
" style="fill:none;stroke:#b0b0b0;stroke-linecap:square;stroke-opacity:0.2;stroke-width:0.8;"/>
     </g>
     <g id="line2d_53">
      <g>
       <use style="stroke:#000000;stroke-width:0.8;" x="407.431322" xlink:href="#me55c9e174e" y="295.191562"/>
      </g>
     </g>
     <g id="text_26">
      <!-- 20 -->
      <g transform="translate(400.758197 310.780937)scale(0.12 -0.12)">
       <use xlink:href="#ArialMT-32"/>
       <use x="55.615234" xlink:href="#ArialMT-30"/>
      </g>
     </g>
    </g>
    <g id="xtick_8">
     <g id="line2d_54">
      <path clip-path="url(#p4e7a85a77e)" d="M 476.784004 295.191562 
L 476.784004 23.391562 
" style="fill:none;stroke:#b0b0b0;stroke-linecap:square;stroke-opacity:0.2;stroke-width:0.8;"/>
     </g>
     <g id="line2d_55">
      <g>
       <use style="stroke:#000000;stroke-width:0.8;" x="476.784004" xlink:href="#me55c9e174e" y="295.191562"/>
      </g>
     </g>
     <g id="text_27">
      <!-- 40 -->
      <g transform="translate(470.110879 310.780937)scale(0.12 -0.12)">
       <use xlink:href="#ArialMT-34"/>
       <use x="55.615234" xlink:href="#ArialMT-30"/>
      </g>
     </g>
    </g>
    <g id="xtick_9">
     <g id="line2d_56">
      <path clip-path="url(#p4e7a85a77e)" d="M 546.136686 295.191562 
L 546.136686 23.391562 
" style="fill:none;stroke:#b0b0b0;stroke-linecap:square;stroke-opacity:0.2;stroke-width:0.8;"/>
     </g>
     <g id="line2d_57">
      <g>
       <use style="stroke:#000000;stroke-width:0.8;" x="546.136686" xlink:href="#me55c9e174e" y="295.191562"/>
      </g>
     </g>
     <g id="text_28">
      <!-- 60 -->
      <g transform="translate(539.463561 310.780937)scale(0.12 -0.12)">
       <use xlink:href="#ArialMT-36"/>
       <use x="55.615234" xlink:href="#ArialMT-30"/>
      </g>
     </g>
    </g>
    <g id="text_29">
     <!-- Discharge [cfs] -->
     <g transform="translate(421.489062 325.901562)scale(0.12 -0.12)">
      <use xlink:href="#ArialMT-44"/>
      <use x="72.216797" xlink:href="#ArialMT-69"/>
      <use x="94.433594" xlink:href="#ArialMT-73"/>
      <use x="144.433594" xlink:href="#ArialMT-63"/>
      <use x="194.433594" xlink:href="#ArialMT-68"/>
      <use x="250.048828" xlink:href="#ArialMT-61"/>
      <use x="305.664062" xlink:href="#ArialMT-72"/>
      <use x="338.964844" xlink:href="#ArialMT-67"/>
      <use x="394.580078" xlink:href="#ArialMT-65"/>
      <use x="450.195312" xlink:href="#ArialMT-20"/>
      <use x="477.978516" xlink:href="#ArialMT-5b"/>
      <use x="505.761719" xlink:href="#ArialMT-63"/>
      <use x="555.761719" xlink:href="#ArialMT-66"/>
      <use x="583.544922" xlink:href="#ArialMT-73"/>
      <use x="633.544922" xlink:href="#ArialMT-5d"/>
     </g>
    </g>
   </g>
   <g id="matplotlib.axis_4">
    <g id="ytick_9">
     <g id="line2d_58">
      <path clip-path="url(#p4e7a85a77e)" d="M 338.07864 295.191562 
L 584.25511 295.191562 
" style="fill:none;stroke:#b0b0b0;stroke-linecap:square;stroke-opacity:0.2;stroke-width:0.8;"/>
     </g>
     <g id="line2d_59">
      <g>
       <use style="stroke:#000000;stroke-width:0.8;" x="338.07864" xlink:href="#mbdda40d29e" y="295.191562"/>
      </g>
     </g>
     <g id="text_30">
      <!-- 0 -->
      <g transform="translate(324.405515 299.48625)scale(0.12 -0.12)">
       <use xlink:href="#ArialMT-30"/>
      </g>
     </g>
    </g>
    <g id="ytick_10">
     <g id="line2d_60">
      <path clip-path="url(#p4e7a85a77e)" d="M 338.07864 258.951562 
L 584.25511 258.951562 
" style="fill:none;stroke:#b0b0b0;stroke-linecap:square;stroke-opacity:0.2;stroke-width:0.8;"/>
     </g>
     <g id="line2d_61">
      <g>
       <use style="stroke:#000000;stroke-width:0.8;" x="338.07864" xlink:href="#mbdda40d29e" y="258.951562"/>
      </g>
     </g>
     <g id="text_31">
      <!-- 2 -->
      <g transform="translate(324.405515 263.24625)scale(0.12 -0.12)">
       <use xlink:href="#ArialMT-32"/>
      </g>
     </g>
    </g>
    <g id="ytick_11">
     <g id="line2d_62">
      <path clip-path="url(#p4e7a85a77e)" d="M 338.07864 222.711562 
L 584.25511 222.711562 
" style="fill:none;stroke:#b0b0b0;stroke-linecap:square;stroke-opacity:0.2;stroke-width:0.8;"/>
     </g>
     <g id="line2d_63">
      <g>
       <use style="stroke:#000000;stroke-width:0.8;" x="338.07864" xlink:href="#mbdda40d29e" y="222.711562"/>
      </g>
     </g>
     <g id="text_32">
      <!-- 4 -->
      <g transform="translate(324.405515 227.00625)scale(0.12 -0.12)">
       <use xlink:href="#ArialMT-34"/>
      </g>
     </g>
    </g>
    <g id="ytick_12">
     <g id="line2d_64">
      <path clip-path="url(#p4e7a85a77e)" d="M 338.07864 186.471562 
L 584.25511 186.471562 
" style="fill:none;stroke:#b0b0b0;stroke-linecap:square;stroke-opacity:0.2;stroke-width:0.8;"/>
     </g>
     <g id="line2d_65">
      <g>
       <use style="stroke:#000000;stroke-width:0.8;" x="338.07864" xlink:href="#mbdda40d29e" y="186.471562"/>
      </g>
     </g>
     <g id="text_33">
      <!-- 6 -->
      <g transform="translate(324.405515 190.76625)scale(0.12 -0.12)">
       <use xlink:href="#ArialMT-36"/>
      </g>
     </g>
    </g>
    <g id="ytick_13">
     <g id="line2d_66">
      <path clip-path="url(#p4e7a85a77e)" d="M 338.07864 150.231562 
L 584.25511 150.231562 
" style="fill:none;stroke:#b0b0b0;stroke-linecap:square;stroke-opacity:0.2;stroke-width:0.8;"/>
     </g>
     <g id="line2d_67">
      <g>
       <use style="stroke:#000000;stroke-width:0.8;" x="338.07864" xlink:href="#mbdda40d29e" y="150.231562"/>
      </g>
     </g>
     <g id="text_34">
      <!-- 8 -->
      <g transform="translate(324.405515 154.52625)scale(0.12 -0.12)">
       <use xlink:href="#ArialMT-38"/>
      </g>
     </g>
    </g>
    <g id="ytick_14">
     <g id="line2d_68">
      <path clip-path="url(#p4e7a85a77e)" d="M 338.07864 113.991562 
L 584.25511 113.991562 
" style="fill:none;stroke:#b0b0b0;stroke-linecap:square;stroke-opacity:0.2;stroke-width:0.8;"/>
     </g>
     <g id="line2d_69">
      <g>
       <use style="stroke:#000000;stroke-width:0.8;" x="338.07864" xlink:href="#mbdda40d29e" y="113.991562"/>
      </g>
     </g>
     <g id="text_35">
      <!-- 10 -->
      <g transform="translate(317.73239 118.28625)scale(0.12 -0.12)">
       <use xlink:href="#ArialMT-31"/>
       <use x="55.615234" xlink:href="#ArialMT-30"/>
      </g>
     </g>
    </g>
    <g id="ytick_15">
     <g id="line2d_70">
      <path clip-path="url(#p4e7a85a77e)" d="M 338.07864 77.751562 
L 584.25511 77.751562 
" style="fill:none;stroke:#b0b0b0;stroke-linecap:square;stroke-opacity:0.2;stroke-width:0.8;"/>
     </g>
     <g id="line2d_71">
      <g>
       <use style="stroke:#000000;stroke-width:0.8;" x="338.07864" xlink:href="#mbdda40d29e" y="77.751562"/>
      </g>
     </g>
     <g id="text_36">
      <!-- 12 -->
      <g transform="translate(317.73239 82.04625)scale(0.12 -0.12)">
       <use xlink:href="#ArialMT-31"/>
       <use x="55.615234" xlink:href="#ArialMT-32"/>
      </g>
     </g>
    </g>
    <g id="ytick_16">
     <g id="line2d_72">
      <path clip-path="url(#p4e7a85a77e)" d="M 338.07864 41.511562 
L 584.25511 41.511562 
" style="fill:none;stroke:#b0b0b0;stroke-linecap:square;stroke-opacity:0.2;stroke-width:0.8;"/>
     </g>
     <g id="line2d_73">
      <g>
       <use style="stroke:#000000;stroke-width:0.8;" x="338.07864" xlink:href="#mbdda40d29e" y="41.511562"/>
      </g>
     </g>
     <g id="text_37">
      <!-- 14 -->
      <g transform="translate(317.73239 45.80625)scale(0.12 -0.12)">
       <use xlink:href="#ArialMT-31"/>
       <use x="55.615234" xlink:href="#ArialMT-34"/>
      </g>
     </g>
    </g>
    <g id="text_38">
     <!-- Headwater Depth [ft] -->
     <g transform="translate(311.34739 214.31625)rotate(-90)scale(0.12 -0.12)">
      <use xlink:href="#ArialMT-48"/>
      <use x="72.216797" xlink:href="#ArialMT-65"/>
      <use x="127.832031" xlink:href="#ArialMT-61"/>
      <use x="183.447266" xlink:href="#ArialMT-64"/>
      <use x="239.0625" xlink:href="#ArialMT-77"/>
      <use x="311.279297" xlink:href="#ArialMT-61"/>
      <use x="366.894531" xlink:href="#ArialMT-74"/>
      <use x="394.677734" xlink:href="#ArialMT-65"/>
      <use x="450.292969" xlink:href="#ArialMT-72"/>
      <use x="483.59375" xlink:href="#ArialMT-20"/>
      <use x="511.376953" xlink:href="#ArialMT-44"/>
      <use x="583.59375" xlink:href="#ArialMT-65"/>
      <use x="639.208984" xlink:href="#ArialMT-70"/>
      <use x="694.824219" xlink:href="#ArialMT-74"/>
      <use x="722.607422" xlink:href="#ArialMT-68"/>
      <use x="778.222656" xlink:href="#ArialMT-20"/>
      <use x="806.005859" xlink:href="#ArialMT-5b"/>
      <use x="833.789062" xlink:href="#ArialMT-66"/>
      <use x="861.572266" xlink:href="#ArialMT-74"/>
      <use x="889.355469" xlink:href="#ArialMT-5d"/>
     </g>
    </g>
   </g>
   <g id="line2d_74">
    <path clip-path="url(#p4e7a85a77e)" d="M 338.078684 295.173442 
L 338.186988 294.521449 
L 338.518702 293.905677 
L 339.136744 293.253683 
L 340.157574 292.529245 
L 341.693041 291.732364 
L 343.962748 290.826817 
L 347.159181 289.812604 
L 351.483409 288.689726 
L 357.316674 287.42196 
L 364.935057 286.009307 
L 374.830092 284.415544 
L 387.558384 282.60445 
L 403.980958 280.503581 
L 426.218771 277.895606 
L 470.652545 272.96943 
L 498.267566 269.781905 
L 514.34241 267.717257 
L 525.402216 266.087273 
L 532.850064 264.783285 
L 537.848835 263.696629 
L 540.87423 262.827304 
L 542.525741 262.139088 
L 543.240998 261.631982 
L 543.451361 261.233541 
L 543.379186 260.943766 
L 543.03438 260.617769 
L 542.258881 260.25555 
L 540.784103 259.857109 
L 538.317669 259.458669 
L 534.760186 259.132672 
L 531.588113 258.987784 
L 531.588113 258.987784 
" style="fill:none;stroke:#d62728;stroke-linecap:square;stroke-width:1.5;"/>
   </g>
   <g id="line2d_75">
    <path clip-path="url(#p4e7a85a77e)" d="M 509.855298 258.933442 
L 516.41341 239.128246 
L 523.096229 218.234852 
L 529.892029 196.253261 
L 536.790423 173.183472 
L 543.84418 148.807846 
L 550.979268 123.344022 
L 558.246897 96.574361 
L 565.635598 68.498863 
L 572.532421 41.511562 
L 572.532421 41.511562 
" style="fill:none;stroke:#1f77b4;stroke-linecap:square;stroke-width:1.5;"/>
   </g>
   <g id="line2d_76">
    <path clip-path="url(#p4e7a85a77e)" d="M 339.875604 295.173442 
L 347.063101 294.738599 
L 352.112804 294.086333 
L 356.838722 293.216646 
L 361.438207 292.129536 
L 365.973869 290.825005 
L 370.472527 289.303052 
L 374.94773 287.563677 
L 379.407098 285.60688 
L 384.276524 283.215239 
L 389.060925 280.606177 
L 393.782212 277.779692 
L 398.775213 274.518364 
L 403.683561 271.039614 
L 408.524954 267.343442 
L 413.569382 263.212426 
L 418.77878 258.646567 
L 423.897745 253.863285 
L 429.154523 248.64516 
L 434.526582 242.992191 
L 439.995695 236.904379 
L 445.547046 230.381722 
L 451.168524 223.424222 
L 456.850172 216.031878 
L 462.583753 208.20469 
L 468.362412 199.942659 
L 474.322673 191.028362 
L 480.305582 181.679221 
L 486.439035 171.677815 
L 492.705119 161.024143 
L 498.967982 149.935627 
L 505.343849 138.194845 
L 511.820279 125.801798 
L 518.386436 112.756485 
L 525.032866 99.058907 
L 531.851308 84.491641 
L 534.827767 77.968984 
L 534.827767 77.968984 
" style="fill:none;stroke:#2ca02c;stroke-linecap:square;stroke-width:1.5;"/>
   </g>
   <g id="line2d_77">
    <path clip-path="url(#p4e7a85a77e)" d="M 338.07864 258.951562 
L 584.25511 258.951562 
" style="fill:none;stroke:#000000;stroke-dasharray:1.5,2.475;stroke-dashoffset:0;stroke-width:1.5;"/>
   </g>
   <g id="line2d_78">
    <path clip-path="url(#p4e7a85a77e)" d="M 338.07864 188.865124 
L 584.25511 188.865124 
" style="fill:none;stroke:#800080;stroke-dasharray:1.5,2.475;stroke-dashoffset:0;stroke-width:1.5;"/>
   </g>
   <g id="line2d_79">
    <path clip-path="url(#p4e7a85a77e)" d="M 338.07864 141.171562 
L 584.25511 141.171562 
" style="fill:none;stroke:#000000;stroke-dasharray:5.55,2.4;stroke-dashoffset:0;stroke-width:1.5;"/>
   </g>
   <g id="line2d_80">
    <g clip-path="url(#p4e7a85a77e)">
     <use style="fill:#ffffff;stroke:#800080;" x="532.129666" xlink:href="#m38a6999b79" y="188.853517"/>
    </g>
   </g>
   <g id="patch_9">
    <path d="M 338.07864 295.191562 
L 338.07864 23.391562 
" style="fill:none;stroke:#000000;stroke-linecap:square;stroke-linejoin:miter;stroke-width:0.8;"/>
   </g>
   <g id="patch_10">
    <path d="M 584.25511 295.191562 
L 584.25511 23.391562 
" style="fill:none;stroke:#000000;stroke-linecap:square;stroke-linejoin:miter;stroke-width:0.8;"/>
   </g>
   <g id="patch_11">
    <path d="M 338.07864 295.191562 
L 584.25511 295.191562 
" style="fill:none;stroke:#000000;stroke-linecap:square;stroke-linejoin:miter;stroke-width:0.8;"/>
   </g>
   <g id="patch_12">
    <path d="M 338.07864 23.391562 
L 584.25511 23.391562 
" style="fill:none;stroke:#000000;stroke-linecap:square;stroke-linejoin:miter;stroke-width:0.8;"/>
   </g>
   <g id="text_39">
    <!-- 56 cfs -->
    <g transform="translate(532.129666 199.487322)scale(0.12 -0.12)">
     <use xlink:href="#ArialMT-35"/>
     <use x="55.615234" xlink:href="#ArialMT-36"/>
     <use x="111.230469" xlink:href="#ArialMT-20"/>
     <use x="139.013672" xlink:href="#ArialMT-63"/>
     <use x="189.013672" xlink:href="#ArialMT-66"/>
     <use x="216.796875" xlink:href="#ArialMT-73"/>
    </g>
   </g>
   <g id="text_40">
    <!-- Los Coyotes Diversion -->
    <g transform="translate(385.320781 17.391562)scale(0.14 -0.14)">
     <defs>
      <path d="M 3397 1684 
L 4294 1400 
Q 4088 650 3608 286 
Q 3128 -78 2391 -78 
Q 1478 -78 890 545 
Q 303 1169 303 2250 
Q 303 3394 893 4026 
Q 1484 4659 2447 4659 
Q 3288 4659 3813 4163 
Q 4125 3869 4281 3319 
L 3366 3100 
Q 3284 3456 3026 3662 
Q 2769 3869 2400 3869 
Q 1891 3869 1573 3503 
Q 1256 3138 1256 2319 
Q 1256 1450 1568 1081 
Q 1881 713 2381 713 
Q 2750 713 3015 947 
Q 3281 1181 3397 1684 
z
" id="Arial-BoldMT-43" transform="scale(0.015625)"/>
      <path d="M 44 3319 
L 978 3319 
L 1772 963 
L 2547 3319 
L 3456 3319 
L 2284 125 
L 2075 -453 
Q 1959 -744 1854 -897 
Q 1750 -1050 1614 -1145 
Q 1478 -1241 1279 -1294 
Q 1081 -1347 831 -1347 
Q 578 -1347 334 -1294 
L 256 -606 
Q 463 -647 628 -647 
Q 934 -647 1081 -467 
Q 1228 -288 1306 -9 
L 44 3319 
z
" id="Arial-BoldMT-79" transform="scale(0.015625)"/>
      <path d="M 1981 3319 
L 1981 2619 
L 1381 2619 
L 1381 1281 
Q 1381 875 1398 808 
Q 1416 741 1477 697 
Q 1538 653 1625 653 
Q 1747 653 1978 738 
L 2053 56 
Q 1747 -75 1359 -75 
Q 1122 -75 931 4 
Q 741 84 652 211 
Q 563 338 528 553 
Q 500 706 500 1172 
L 500 2619 
L 97 2619 
L 97 3319 
L 500 3319 
L 500 3978 
L 1381 4491 
L 1381 3319 
L 1981 3319 
z
" id="Arial-BoldMT-74" transform="scale(0.015625)"/>
     </defs>
     <use xlink:href="#Arial-BoldMT-4c"/>
     <use x="61.083984" xlink:href="#Arial-BoldMT-6f"/>
     <use x="122.167969" xlink:href="#Arial-BoldMT-73"/>
     <use x="177.783203" xlink:href="#Arial-BoldMT-20"/>
     <use x="205.566406" xlink:href="#Arial-BoldMT-43"/>
     <use x="277.783203" xlink:href="#Arial-BoldMT-6f"/>
     <use x="338.867188" xlink:href="#Arial-BoldMT-79"/>
     <use x="394.482422" xlink:href="#Arial-BoldMT-6f"/>
     <use x="455.566406" xlink:href="#Arial-BoldMT-74"/>
     <use x="488.867188" xlink:href="#Arial-BoldMT-65"/>
     <use x="544.482422" xlink:href="#Arial-BoldMT-73"/>
     <use x="600.097656" xlink:href="#Arial-BoldMT-20"/>
     <use x="627.880859" xlink:href="#Arial-BoldMT-44"/>
     <use x="700.097656" xlink:href="#Arial-BoldMT-69"/>
     <use x="727.880859" xlink:href="#Arial-BoldMT-76"/>
     <use x="783.496094" xlink:href="#Arial-BoldMT-65"/>
     <use x="839.111328" xlink:href="#Arial-BoldMT-72"/>
     <use x="878.027344" xlink:href="#Arial-BoldMT-73"/>
     <use x="933.642578" xlink:href="#Arial-BoldMT-69"/>
     <use x="961.425781" xlink:href="#Arial-BoldMT-6f"/>
     <use x="1022.509766" xlink:href="#Arial-BoldMT-6e"/>
    </g>
   </g>
  </g>
  <g id="axes_3">
   <g id="patch_13">
    <path d="M 633.490404 295.191562 
L 879.666875 295.191562 
L 879.666875 23.391562 
L 633.490404 23.391562 
z
" style="fill:#ffffff;"/>
   </g>
   <g id="line2d_81">
    <path clip-path="url(#p0e4612be79)" d="M 780.41184 34.263563 
L 778.575322 52.383563 
L 776.738804 70.503563 
L 774.902286 88.623563 
L 773.065768 106.743563 
L 771.22925 124.863563 
L 769.392732 142.983563 
L 767.556214 161.103563 
L 765.719696 179.223563 
L 763.883178 197.343563 
L 762.04666 215.463563 
L 758.373624 233.583563 
L 738.171927 251.703563 
L 686.749425 269.823563 
L 638.999958 287.943563 
L 633.490404 295.191562 
" style="fill:none;stroke:#808080;stroke-linecap:square;stroke-opacity:0.2;stroke-width:7.5;"/>
   </g>
   <g id="matplotlib.axis_5">
    <g id="xtick_10">
     <g id="line2d_82">
      <path clip-path="url(#p0e4612be79)" d="M 633.490404 295.191562 
L 633.490404 23.391562 
" style="fill:none;stroke:#b0b0b0;stroke-linecap:square;stroke-opacity:0.2;stroke-width:0.8;"/>
     </g>
     <g id="line2d_83">
      <g>
       <use style="stroke:#000000;stroke-width:0.8;" x="633.490404" xlink:href="#me55c9e174e" y="295.191562"/>
      </g>
     </g>
     <g id="text_41">
      <!-- 0 -->
      <g transform="translate(630.153842 310.780937)scale(0.12 -0.12)">
       <use xlink:href="#ArialMT-30"/>
      </g>
     </g>
    </g>
    <g id="xtick_11">
     <g id="line2d_84">
      <path clip-path="url(#p0e4612be79)" d="M 679.403353 295.191562 
L 679.403353 23.391562 
" style="fill:none;stroke:#b0b0b0;stroke-linecap:square;stroke-opacity:0.2;stroke-width:0.8;"/>
     </g>
     <g id="line2d_85">
      <g>
       <use style="stroke:#000000;stroke-width:0.8;" x="679.403353" xlink:href="#me55c9e174e" y="295.191562"/>
      </g>
     </g>
     <g id="text_42">
      <!-- 25 -->
      <g transform="translate(672.730228 310.780937)scale(0.12 -0.12)">
       <use xlink:href="#ArialMT-32"/>
       <use x="55.615234" xlink:href="#ArialMT-35"/>
      </g>
     </g>
    </g>
    <g id="xtick_12">
     <g id="line2d_86">
      <path clip-path="url(#p0e4612be79)" d="M 725.316301 295.191562 
L 725.316301 23.391562 
" style="fill:none;stroke:#b0b0b0;stroke-linecap:square;stroke-opacity:0.2;stroke-width:0.8;"/>
     </g>
     <g id="line2d_87">
      <g>
       <use style="stroke:#000000;stroke-width:0.8;" x="725.316301" xlink:href="#me55c9e174e" y="295.191562"/>
      </g>
     </g>
     <g id="text_43">
      <!-- 50 -->
      <g transform="translate(718.643176 310.780937)scale(0.12 -0.12)">
       <use xlink:href="#ArialMT-35"/>
       <use x="55.615234" xlink:href="#ArialMT-30"/>
      </g>
     </g>
    </g>
    <g id="xtick_13">
     <g id="line2d_88">
      <path clip-path="url(#p0e4612be79)" d="M 771.22925 295.191562 
L 771.22925 23.391562 
" style="fill:none;stroke:#b0b0b0;stroke-linecap:square;stroke-opacity:0.2;stroke-width:0.8;"/>
     </g>
     <g id="line2d_89">
      <g>
       <use style="stroke:#000000;stroke-width:0.8;" x="771.22925" xlink:href="#me55c9e174e" y="295.191562"/>
      </g>
     </g>
     <g id="text_44">
      <!-- 75 -->
      <g transform="translate(764.556125 310.780937)scale(0.12 -0.12)">
       <defs>
        <path d="M 303 3981 
L 303 4522 
L 3269 4522 
L 3269 4084 
Q 2831 3619 2401 2847 
Q 1972 2075 1738 1259 
Q 1569 684 1522 0 
L 944 0 
Q 953 541 1156 1306 
Q 1359 2072 1739 2783 
Q 2119 3494 2547 3981 
L 303 3981 
z
" id="ArialMT-37" transform="scale(0.015625)"/>
       </defs>
       <use xlink:href="#ArialMT-37"/>
       <use x="55.615234" xlink:href="#ArialMT-35"/>
      </g>
     </g>
    </g>
    <g id="xtick_14">
     <g id="line2d_90">
      <path clip-path="url(#p0e4612be79)" d="M 817.142199 295.191562 
L 817.142199 23.391562 
" style="fill:none;stroke:#b0b0b0;stroke-linecap:square;stroke-opacity:0.2;stroke-width:0.8;"/>
     </g>
     <g id="line2d_91">
      <g>
       <use style="stroke:#000000;stroke-width:0.8;" x="817.142199" xlink:href="#me55c9e174e" y="295.191562"/>
      </g>
     </g>
     <g id="text_45">
      <!-- 100 -->
      <g transform="translate(807.132511 310.780937)scale(0.12 -0.12)">
       <use xlink:href="#ArialMT-31"/>
       <use x="55.615234" xlink:href="#ArialMT-30"/>
       <use x="111.230469" xlink:href="#ArialMT-30"/>
      </g>
     </g>
    </g>
    <g id="xtick_15">
     <g id="line2d_92">
      <path clip-path="url(#p0e4612be79)" d="M 863.055147 295.191562 
L 863.055147 23.391562 
" style="fill:none;stroke:#b0b0b0;stroke-linecap:square;stroke-opacity:0.2;stroke-width:0.8;"/>
     </g>
     <g id="line2d_93">
      <g>
       <use style="stroke:#000000;stroke-width:0.8;" x="863.055147" xlink:href="#me55c9e174e" y="295.191562"/>
      </g>
     </g>
     <g id="text_46">
      <!-- 125 -->
      <g transform="translate(853.04546 310.780937)scale(0.12 -0.12)">
       <use xlink:href="#ArialMT-31"/>
       <use x="55.615234" xlink:href="#ArialMT-32"/>
       <use x="111.230469" xlink:href="#ArialMT-35"/>
      </g>
     </g>
    </g>
    <g id="text_47">
     <!-- Discharge [cfs] -->
     <g transform="translate(716.900827 325.901562)scale(0.12 -0.12)">
      <use xlink:href="#ArialMT-44"/>
      <use x="72.216797" xlink:href="#ArialMT-69"/>
      <use x="94.433594" xlink:href="#ArialMT-73"/>
      <use x="144.433594" xlink:href="#ArialMT-63"/>
      <use x="194.433594" xlink:href="#ArialMT-68"/>
      <use x="250.048828" xlink:href="#ArialMT-61"/>
      <use x="305.664062" xlink:href="#ArialMT-72"/>
      <use x="338.964844" xlink:href="#ArialMT-67"/>
      <use x="394.580078" xlink:href="#ArialMT-65"/>
      <use x="450.195312" xlink:href="#ArialMT-20"/>
      <use x="477.978516" xlink:href="#ArialMT-5b"/>
      <use x="505.761719" xlink:href="#ArialMT-63"/>
      <use x="555.761719" xlink:href="#ArialMT-66"/>
      <use x="583.544922" xlink:href="#ArialMT-73"/>
      <use x="633.544922" xlink:href="#ArialMT-5d"/>
     </g>
    </g>
   </g>
   <g id="matplotlib.axis_6">
    <g id="ytick_17">
     <g id="line2d_94">
      <path clip-path="url(#p0e4612be79)" d="M 633.490404 295.191562 
L 879.666875 295.191562 
" style="fill:none;stroke:#b0b0b0;stroke-linecap:square;stroke-opacity:0.2;stroke-width:0.8;"/>
     </g>
     <g id="line2d_95">
      <g>
       <use style="stroke:#000000;stroke-width:0.8;" x="633.490404" xlink:href="#mbdda40d29e" y="295.191562"/>
      </g>
     </g>
     <g id="text_48">
      <!-- 0 -->
      <g transform="translate(619.817279 299.48625)scale(0.12 -0.12)">
       <use xlink:href="#ArialMT-30"/>
      </g>
     </g>
    </g>
    <g id="ytick_18">
     <g id="line2d_96">
      <path clip-path="url(#p0e4612be79)" d="M 633.490404 258.951562 
L 879.666875 258.951562 
" style="fill:none;stroke:#b0b0b0;stroke-linecap:square;stroke-opacity:0.2;stroke-width:0.8;"/>
     </g>
     <g id="line2d_97">
      <g>
       <use style="stroke:#000000;stroke-width:0.8;" x="633.490404" xlink:href="#mbdda40d29e" y="258.951562"/>
      </g>
     </g>
     <g id="text_49">
      <!-- 2 -->
      <g transform="translate(619.817279 263.24625)scale(0.12 -0.12)">
       <use xlink:href="#ArialMT-32"/>
      </g>
     </g>
    </g>
    <g id="ytick_19">
     <g id="line2d_98">
      <path clip-path="url(#p0e4612be79)" d="M 633.490404 222.711562 
L 879.666875 222.711562 
" style="fill:none;stroke:#b0b0b0;stroke-linecap:square;stroke-opacity:0.2;stroke-width:0.8;"/>
     </g>
     <g id="line2d_99">
      <g>
       <use style="stroke:#000000;stroke-width:0.8;" x="633.490404" xlink:href="#mbdda40d29e" y="222.711562"/>
      </g>
     </g>
     <g id="text_50">
      <!-- 4 -->
      <g transform="translate(619.817279 227.00625)scale(0.12 -0.12)">
       <use xlink:href="#ArialMT-34"/>
      </g>
     </g>
    </g>
    <g id="ytick_20">
     <g id="line2d_100">
      <path clip-path="url(#p0e4612be79)" d="M 633.490404 186.471562 
L 879.666875 186.471562 
" style="fill:none;stroke:#b0b0b0;stroke-linecap:square;stroke-opacity:0.2;stroke-width:0.8;"/>
     </g>
     <g id="line2d_101">
      <g>
       <use style="stroke:#000000;stroke-width:0.8;" x="633.490404" xlink:href="#mbdda40d29e" y="186.471562"/>
      </g>
     </g>
     <g id="text_51">
      <!-- 6 -->
      <g transform="translate(619.817279 190.76625)scale(0.12 -0.12)">
       <use xlink:href="#ArialMT-36"/>
      </g>
     </g>
    </g>
    <g id="ytick_21">
     <g id="line2d_102">
      <path clip-path="url(#p0e4612be79)" d="M 633.490404 150.231562 
L 879.666875 150.231562 
" style="fill:none;stroke:#b0b0b0;stroke-linecap:square;stroke-opacity:0.2;stroke-width:0.8;"/>
     </g>
     <g id="line2d_103">
      <g>
       <use style="stroke:#000000;stroke-width:0.8;" x="633.490404" xlink:href="#mbdda40d29e" y="150.231562"/>
      </g>
     </g>
     <g id="text_52">
      <!-- 8 -->
      <g transform="translate(619.817279 154.52625)scale(0.12 -0.12)">
       <use xlink:href="#ArialMT-38"/>
      </g>
     </g>
    </g>
    <g id="ytick_22">
     <g id="line2d_104">
      <path clip-path="url(#p0e4612be79)" d="M 633.490404 113.991562 
L 879.666875 113.991562 
" style="fill:none;stroke:#b0b0b0;stroke-linecap:square;stroke-opacity:0.2;stroke-width:0.8;"/>
     </g>
     <g id="line2d_105">
      <g>
       <use style="stroke:#000000;stroke-width:0.8;" x="633.490404" xlink:href="#mbdda40d29e" y="113.991562"/>
      </g>
     </g>
     <g id="text_53">
      <!-- 10 -->
      <g transform="translate(613.144154 118.28625)scale(0.12 -0.12)">
       <use xlink:href="#ArialMT-31"/>
       <use x="55.615234" xlink:href="#ArialMT-30"/>
      </g>
     </g>
    </g>
    <g id="ytick_23">
     <g id="line2d_106">
      <path clip-path="url(#p0e4612be79)" d="M 633.490404 77.751562 
L 879.666875 77.751562 
" style="fill:none;stroke:#b0b0b0;stroke-linecap:square;stroke-opacity:0.2;stroke-width:0.8;"/>
     </g>
     <g id="line2d_107">
      <g>
       <use style="stroke:#000000;stroke-width:0.8;" x="633.490404" xlink:href="#mbdda40d29e" y="77.751562"/>
      </g>
     </g>
     <g id="text_54">
      <!-- 12 -->
      <g transform="translate(613.144154 82.04625)scale(0.12 -0.12)">
       <use xlink:href="#ArialMT-31"/>
       <use x="55.615234" xlink:href="#ArialMT-32"/>
      </g>
     </g>
    </g>
    <g id="ytick_24">
     <g id="line2d_108">
      <path clip-path="url(#p0e4612be79)" d="M 633.490404 41.511562 
L 879.666875 41.511562 
" style="fill:none;stroke:#b0b0b0;stroke-linecap:square;stroke-opacity:0.2;stroke-width:0.8;"/>
     </g>
     <g id="line2d_109">
      <g>
       <use style="stroke:#000000;stroke-width:0.8;" x="633.490404" xlink:href="#mbdda40d29e" y="41.511562"/>
      </g>
     </g>
     <g id="text_55">
      <!-- 14 -->
      <g transform="translate(613.144154 45.80625)scale(0.12 -0.12)">
       <use xlink:href="#ArialMT-31"/>
       <use x="55.615234" xlink:href="#ArialMT-34"/>
      </g>
     </g>
    </g>
    <g id="text_56">
     <!-- Headwater Depth [ft] -->
     <g transform="translate(606.759154 214.31625)rotate(-90)scale(0.12 -0.12)">
      <use xlink:href="#ArialMT-48"/>
      <use x="72.216797" xlink:href="#ArialMT-65"/>
      <use x="127.832031" xlink:href="#ArialMT-61"/>
      <use x="183.447266" xlink:href="#ArialMT-64"/>
      <use x="239.0625" xlink:href="#ArialMT-77"/>
      <use x="311.279297" xlink:href="#ArialMT-61"/>
      <use x="366.894531" xlink:href="#ArialMT-74"/>
      <use x="394.677734" xlink:href="#ArialMT-65"/>
      <use x="450.292969" xlink:href="#ArialMT-72"/>
      <use x="483.59375" xlink:href="#ArialMT-20"/>
      <use x="511.376953" xlink:href="#ArialMT-44"/>
      <use x="583.59375" xlink:href="#ArialMT-65"/>
      <use x="639.208984" xlink:href="#ArialMT-70"/>
      <use x="694.824219" xlink:href="#ArialMT-74"/>
      <use x="722.607422" xlink:href="#ArialMT-68"/>
      <use x="778.222656" xlink:href="#ArialMT-20"/>
      <use x="806.005859" xlink:href="#ArialMT-5b"/>
      <use x="833.789062" xlink:href="#ArialMT-66"/>
      <use x="861.572266" xlink:href="#ArialMT-74"/>
      <use x="889.355469" xlink:href="#ArialMT-5d"/>
     </g>
    </g>
   </g>
   <g id="line2d_110">
    <path clip-path="url(#p0e4612be79)" d="M 633.490418 295.173442 
L 633.60147 294.032263 
L 633.926659 292.999767 
L 634.485195 291.967272 
L 635.333319 290.880434 
L 636.514193 289.739254 
L 638.147983 288.489391 
L 640.227339 287.185186 
L 642.9017 285.772297 
L 646.384759 284.196383 
L 650.664813 282.511784 
L 655.981169 280.664161 
L 662.633245 278.599169 
L 670.768194 276.31681 
L 680.930541 273.7084 
L 693.717613 270.665255 
L 711.881904 266.589614 
L 749.908639 258.11228 
L 761.43306 255.286503 
L 769.846125 253.004144 
L 776.035497 251.102178 
L 780.453384 249.526263 
L 783.635195 248.167716 
L 785.774813 247.026537 
L 787.152545 246.048383 
L 787.923912 245.233255 
L 788.253356 244.581152 
L 788.300859 244.037733 
L 788.138267 243.548656 
L 787.745702 243.05958 
L 787.071367 242.570503 
L 786.028177 242.081426 
L 784.439279 241.592349 
L 782.522035 241.211956 
L 780.17595 240.940246 
L 779.365915 240.885904 
L 779.365915 240.885904 
" style="fill:none;stroke:#d62728;stroke-linecap:square;stroke-width:1.5;"/>
   </g>
   <g id="line2d_111">
    <path clip-path="url(#p0e4612be79)" d="M 789.147969 240.813442 
L 795.476926 214.479061 
L 801.94088 186.621202 
L 808.52732 157.239867 
L 815.225182 126.335055 
L 822.024671 93.906767 
L 828.960585 59.737362 
L 836.021176 23.826842 
L 836.105413 23.391562 
L 836.105413 23.391562 
" style="fill:none;stroke:#1f77b4;stroke-linecap:square;stroke-width:1.5;"/>
   </g>
   <g id="line2d_112">
    <path clip-path="url(#p0e4612be79)" d="M 635.631736 295.173442 
L 644.196632 294.738599 
L 650.214051 294.086333 
L 655.845636 293.216646 
L 661.326558 292.129536 
L 666.731426 290.825005 
L 672.092199 289.303052 
L 677.425022 287.563677 
L 682.738975 285.60688 
L 688.039573 283.432661 
L 693.788331 280.823598 
L 699.453175 277.997114 
L 705.054035 274.953208 
L 710.604854 271.691879 
L 716.447993 267.995707 
L 722.216408 264.082114 
L 728.214656 259.733676 
L 734.128782 255.167817 
L 740.230838 250.167113 
L 746.246675 244.948988 
L 752.420933 239.296019 
L 758.730186 233.208207 
L 764.945926 226.902972 
L 771.28062 220.162894 
L 777.718595 212.987972 
L 784.246619 205.378206 
L 790.853486 197.333596 
L 797.529671 188.854143 
L 804.267043 179.939846 
L 811.213494 170.373283 
L 818.196579 160.371877 
L 825.212296 149.935627 
L 832.39554 138.847111 
L 839.595379 127.323751 
L 846.939052 115.148126 
L 854.412216 102.320235 
L 861.881749 89.0575 
L 867.944186 77.968984 
L 867.944186 77.968984 
" style="fill:none;stroke:#2ca02c;stroke-linecap:square;stroke-width:1.5;"/>
   </g>
   <g id="line2d_113">
    <path clip-path="url(#p0e4612be79)" d="M 633.490404 240.831562 
L 879.666875 240.831562 
" style="fill:none;stroke:#000000;stroke-dasharray:1.5,2.475;stroke-dashoffset:0;stroke-width:1.5;"/>
   </g>
   <g id="line2d_114">
    <path clip-path="url(#p0e4612be79)" d="M 633.490404 169.2466 
L 879.666875 169.2466 
" style="fill:none;stroke:#800080;stroke-dasharray:1.5,2.475;stroke-dashoffset:0;stroke-width:1.5;"/>
   </g>
   <g id="line2d_115">
    <path clip-path="url(#p0e4612be79)" d="M 633.490404 59.631562 
L 879.666875 59.631562 
" style="fill:none;stroke:#000000;stroke-dasharray:5.55,2.4;stroke-dashoffset:0;stroke-width:1.5;"/>
   </g>
   <g id="line2d_116">
    <g clip-path="url(#p0e4612be79)">
     <use style="fill:#ffffff;stroke:#800080;" x="805.871004" xlink:href="#m38a6999b79" y="169.210041"/>
    </g>
   </g>
   <g id="patch_14">
    <path d="M 633.490404 295.191562 
L 633.490404 23.391562 
" style="fill:none;stroke:#000000;stroke-linecap:square;stroke-linejoin:miter;stroke-width:0.8;"/>
   </g>
   <g id="patch_15">
    <path d="M 879.666875 295.191562 
L 879.666875 23.391562 
" style="fill:none;stroke:#000000;stroke-linecap:square;stroke-linejoin:miter;stroke-width:0.8;"/>
   </g>
   <g id="patch_16">
    <path d="M 633.490404 295.191562 
L 879.666875 295.191562 
" style="fill:none;stroke:#000000;stroke-linecap:square;stroke-linejoin:miter;stroke-width:0.8;"/>
   </g>
   <g id="patch_17">
    <path d="M 633.490404 23.391562 
L 879.666875 23.391562 
" style="fill:none;stroke:#000000;stroke-linecap:square;stroke-linejoin:miter;stroke-width:0.8;"/>
   </g>
   <g id="text_57">
    <!-- 94 cfs -->
    <g transform="translate(805.871004 181.808193)scale(0.12 -0.12)">
     <use xlink:href="#ArialMT-39"/>
     <use x="55.615234" xlink:href="#ArialMT-34"/>
     <use x="111.230469" xlink:href="#ArialMT-20"/>
     <use x="139.013672" xlink:href="#ArialMT-63"/>
     <use x="189.013672" xlink:href="#ArialMT-66"/>
     <use x="216.796875" xlink:href="#ArialMT-73"/>
    </g>
   </g>
   <g id="text_58">
    <!-- Gibby Road Diversion -->
    <g transform="translate(683.459265 17.391562)scale(0.14 -0.14)">
     <defs>
      <path d="M 2597 1684 
L 2597 2456 
L 4591 2456 
L 4591 631 
Q 4300 350 3748 136 
Q 3197 -78 2631 -78 
Q 1913 -78 1378 223 
Q 844 525 575 1086 
Q 306 1647 306 2306 
Q 306 3022 606 3578 
Q 906 4134 1484 4431 
Q 1925 4659 2581 4659 
Q 3434 4659 3914 4301 
Q 4394 3944 4531 3313 
L 3613 3141 
Q 3516 3478 3248 3673 
Q 2981 3869 2581 3869 
Q 1975 3869 1617 3484 
Q 1259 3100 1259 2344 
Q 1259 1528 1621 1120 
Q 1984 713 2572 713 
Q 2863 713 3155 827 
Q 3447 941 3656 1103 
L 3656 1684 
L 2597 1684 
z
" id="Arial-BoldMT-47" transform="scale(0.015625)"/>
      <path d="M 422 0 
L 422 4581 
L 1300 4581 
L 1300 2931 
Q 1706 3394 2263 3394 
Q 2869 3394 3266 2955 
Q 3663 2516 3663 1694 
Q 3663 844 3258 384 
Q 2853 -75 2275 -75 
Q 1991 -75 1714 67 
Q 1438 209 1238 488 
L 1238 0 
L 422 0 
z
M 1294 1731 
Q 1294 1216 1456 969 
Q 1684 619 2063 619 
Q 2353 619 2558 867 
Q 2763 1116 2763 1650 
Q 2763 2219 2556 2470 
Q 2350 2722 2028 2722 
Q 1713 2722 1503 2476 
Q 1294 2231 1294 1731 
z
" id="Arial-BoldMT-62" transform="scale(0.015625)"/>
      <path d="M 469 0 
L 469 4581 
L 2416 4581 
Q 3150 4581 3483 4457 
Q 3816 4334 4016 4018 
Q 4216 3703 4216 3297 
Q 4216 2781 3912 2445 
Q 3609 2109 3006 2022 
Q 3306 1847 3501 1637 
Q 3697 1428 4028 894 
L 4588 0 
L 3481 0 
L 2813 997 
Q 2456 1531 2325 1670 
Q 2194 1809 2047 1861 
Q 1900 1913 1581 1913 
L 1394 1913 
L 1394 0 
L 469 0 
z
M 1394 2644 
L 2078 2644 
Q 2744 2644 2909 2700 
Q 3075 2756 3169 2893 
Q 3263 3031 3263 3238 
Q 3263 3469 3139 3611 
Q 3016 3753 2791 3791 
Q 2678 3806 2116 3806 
L 1394 3806 
L 1394 2644 
z
" id="Arial-BoldMT-52" transform="scale(0.015625)"/>
     </defs>
     <use xlink:href="#Arial-BoldMT-47"/>
     <use x="77.783203" xlink:href="#Arial-BoldMT-69"/>
     <use x="105.566406" xlink:href="#Arial-BoldMT-62"/>
     <use x="166.650391" xlink:href="#Arial-BoldMT-62"/>
     <use x="227.734375" xlink:href="#Arial-BoldMT-79"/>
     <use x="283.349609" xlink:href="#Arial-BoldMT-20"/>
     <use x="311.132812" xlink:href="#Arial-BoldMT-52"/>
     <use x="383.349609" xlink:href="#Arial-BoldMT-6f"/>
     <use x="444.433594" xlink:href="#Arial-BoldMT-61"/>
     <use x="500.048828" xlink:href="#Arial-BoldMT-64"/>
     <use x="561.132812" xlink:href="#Arial-BoldMT-20"/>
     <use x="588.916016" xlink:href="#Arial-BoldMT-44"/>
     <use x="661.132812" xlink:href="#Arial-BoldMT-69"/>
     <use x="688.916016" xlink:href="#Arial-BoldMT-76"/>
     <use x="744.53125" xlink:href="#Arial-BoldMT-65"/>
     <use x="800.146484" xlink:href="#Arial-BoldMT-72"/>
     <use x="839.0625" xlink:href="#Arial-BoldMT-73"/>
     <use x="894.677734" xlink:href="#Arial-BoldMT-69"/>
     <use x="922.460938" xlink:href="#Arial-BoldMT-6f"/>
     <use x="983.544922" xlink:href="#Arial-BoldMT-6e"/>
    </g>
   </g>
  </g>
 </g>
 <defs>
  <clipPath id="pc1f2a09991">
   <rect height="271.8" width="246.176471" x="42.666875" y="23.391562"/>
  </clipPath>
  <clipPath id="p4e7a85a77e">
   <rect height="271.8" width="246.176471" x="338.07864" y="23.391562"/>
  </clipPath>
  <clipPath id="p0e4612be79">
   <rect height="271.8" width="246.176471" x="633.490404" y="23.391562"/>
  </clipPath>
 </defs>
</svg>
