<?xml version="1.0" encoding="utf-8" standalone="no"?>
<!DOCTYPE svg PUBLIC "-//W3C//DTD SVG 1.1//EN"
  "http://www.w3.org/Graphics/SVG/1.1/DTD/svg11.dtd">
<svg height="399.715625pt" version="1.1" viewBox="0 0 712.934375 399.715625" width="712.934375pt" xmlns="http://www.w3.org/2000/svg" xmlns:xlink="http://www.w3.org/1999/xlink">
 <metadata>
  <rdf:RDF xmlns:cc="http://creativecommons.org/ns#" xmlns:dc="http://purl.org/dc/elements/1.1/" xmlns:rdf="http://www.w3.org/1999/02/22-rdf-syntax-ns#">
   <cc:Work>
    <dc:type rdf:resource="http://purl.org/dc/dcmitype/StillImage"/>
    <dc:date>2022-12-05T12:41:06.257016</dc:date>
    <dc:format>image/svg+xml</dc:format>
    <dc:creator>
     <cc:Agent>
      <dc:title>Matplotlib v3.4.3, https://matplotlib.org/</dc:title>
     </cc:Agent>
    </dc:creator>
   </cc:Work>
  </rdf:RDF>
 </metadata>
 <defs>
  <style type="text/css">*{stroke-linecap:butt;stroke-linejoin:round;}</style>
 </defs>
 <g id="figure_1">
  <g id="patch_1">
   <path d="M 0 399.715625 
L 712.934375 399.715625 
L 712.934375 0 
L 0 0 
z
" style="fill:none;"/>
  </g>
  <g id="axes_1">
   <g id="patch_2">
    <path d="M 36.134375 359.28 
L 181.699592 359.28 
L 181.699592 33.12 
L 36.134375 33.12 
z
" style="fill:#ffffff;"/>
   </g>
   <g id="line2d_1">
    <path clip-path="url(#p50785c7438)" d="M 85.159785 359.28 
L 85.159785 33.12 
" style="fill:none;stroke:#000000;stroke-dasharray:5.55,2.4;stroke-dashoffset:0;stroke-width:1.5;"/>
   </g>
   <g id="matplotlib.axis_1">
    <g id="xtick_1">
     <g id="line2d_2">
      <path clip-path="url(#p50785c7438)" d="M 36.134375 359.28 
L 36.134375 33.12 
" style="fill:none;stroke:#b0b0b0;stroke-linecap:square;stroke-opacity:0.2;stroke-width:0.8;"/>
     </g>
     <g id="line2d_3">
      <defs>
       <path d="M 0 0 
L 0 3.5 
" id="mc9f09d5cd9" style="stroke:#000000;stroke-width:0.8;"/>
      </defs>
      <g>
       <use style="stroke:#000000;stroke-width:0.8;" x="36.134375" xlink:href="#mc9f09d5cd9" y="359.28"/>
      </g>
     </g>
     <g id="text_1">
      <!-- 0 -->
      <g transform="translate(32.797813 374.869375)scale(0.12 -0.12)">
       <defs>
        <path d="M 266 2259 
Q 266 3072 433 3567 
Q 600 4063 929 4331 
Q 1259 4600 1759 4600 
Q 2128 4600 2406 4451 
Q 2684 4303 2865 4023 
Q 3047 3744 3150 3342 
Q 3253 2941 3253 2259 
Q 3253 1453 3087 958 
Q 2922 463 2592 192 
Q 2263 -78 1759 -78 
Q 1097 -78 719 397 
Q 266 969 266 2259 
z
M 844 2259 
Q 844 1131 1108 757 
Q 1372 384 1759 384 
Q 2147 384 2411 759 
Q 2675 1134 2675 2259 
Q 2675 3391 2411 3762 
Q 2147 4134 1753 4134 
Q 1366 4134 1134 3806 
Q 844 3388 844 2259 
z
" id="ArialMT-30" transform="scale(0.015625)"/>
       </defs>
       <use xlink:href="#ArialMT-30"/>
      </g>
     </g>
    </g>
    <g id="xtick_2">
     <g id="line2d_4">
      <path clip-path="url(#p50785c7438)" d="M 106.170675 359.28 
L 106.170675 33.12 
" style="fill:none;stroke:#b0b0b0;stroke-linecap:square;stroke-opacity:0.2;stroke-width:0.8;"/>
     </g>
     <g id="line2d_5">
      <g>
       <use style="stroke:#000000;stroke-width:0.8;" x="106.170675" xlink:href="#mc9f09d5cd9" y="359.28"/>
      </g>
     </g>
     <g id="text_2">
      <!-- 500 -->
      <g transform="translate(96.160988 374.869375)scale(0.12 -0.12)">
       <defs>
        <path d="M 266 1200 
L 856 1250 
Q 922 819 1161 601 
Q 1400 384 1738 384 
Q 2144 384 2425 690 
Q 2706 997 2706 1503 
Q 2706 1984 2436 2262 
Q 2166 2541 1728 2541 
Q 1456 2541 1237 2417 
Q 1019 2294 894 2097 
L 366 2166 
L 809 4519 
L 3088 4519 
L 3088 3981 
L 1259 3981 
L 1013 2750 
Q 1425 3038 1878 3038 
Q 2478 3038 2890 2622 
Q 3303 2206 3303 1553 
Q 3303 931 2941 478 
Q 2500 -78 1738 -78 
Q 1113 -78 717 272 
Q 322 622 266 1200 
z
" id="ArialMT-35" transform="scale(0.015625)"/>
       </defs>
       <use xlink:href="#ArialMT-35"/>
       <use x="55.615234" xlink:href="#ArialMT-30"/>
       <use x="111.230469" xlink:href="#ArialMT-30"/>
      </g>
     </g>
    </g>
    <g id="xtick_3">
     <g id="line2d_6">
      <path clip-path="url(#p50785c7438)" d="M 176.206976 359.28 
L 176.206976 33.12 
" style="fill:none;stroke:#b0b0b0;stroke-linecap:square;stroke-opacity:0.2;stroke-width:0.8;"/>
     </g>
     <g id="line2d_7">
      <g>
       <use style="stroke:#000000;stroke-width:0.8;" x="176.206976" xlink:href="#mc9f09d5cd9" y="359.28"/>
      </g>
     </g>
     <g id="text_3">
      <!-- 1000 -->
      <g transform="translate(162.860726 374.869375)scale(0.12 -0.12)">
       <defs>
        <path d="M 2384 0 
L 1822 0 
L 1822 3584 
Q 1619 3391 1289 3197 
Q 959 3003 697 2906 
L 697 3450 
Q 1169 3672 1522 3987 
Q 1875 4303 2022 4600 
L 2384 4600 
L 2384 0 
z
" id="ArialMT-31" transform="scale(0.015625)"/>
       </defs>
       <use xlink:href="#ArialMT-31"/>
       <use x="55.615234" xlink:href="#ArialMT-30"/>
       <use x="111.230469" xlink:href="#ArialMT-30"/>
       <use x="166.845703" xlink:href="#ArialMT-30"/>
      </g>
     </g>
    </g>
    <g id="text_4">
     <!-- Discharge (cfs) -->
     <g transform="translate(68.577296 389.99)scale(0.12 -0.12)">
      <defs>
       <path d="M 494 0 
L 494 4581 
L 2072 4581 
Q 2606 4581 2888 4516 
Q 3281 4425 3559 4188 
Q 3922 3881 4101 3404 
Q 4281 2928 4281 2316 
Q 4281 1794 4159 1391 
Q 4038 988 3847 723 
Q 3656 459 3429 307 
Q 3203 156 2883 78 
Q 2563 0 2147 0 
L 494 0 
z
M 1100 541 
L 2078 541 
Q 2531 541 2789 625 
Q 3047 709 3200 863 
Q 3416 1078 3536 1442 
Q 3656 1806 3656 2325 
Q 3656 3044 3420 3430 
Q 3184 3816 2847 3947 
Q 2603 4041 2063 4041 
L 1100 4041 
L 1100 541 
z
" id="ArialMT-44" transform="scale(0.015625)"/>
       <path d="M 425 3934 
L 425 4581 
L 988 4581 
L 988 3934 
L 425 3934 
z
M 425 0 
L 425 3319 
L 988 3319 
L 988 0 
L 425 0 
z
" id="ArialMT-69" transform="scale(0.015625)"/>
       <path d="M 197 991 
L 753 1078 
Q 800 744 1014 566 
Q 1228 388 1613 388 
Q 2000 388 2187 545 
Q 2375 703 2375 916 
Q 2375 1106 2209 1216 
Q 2094 1291 1634 1406 
Q 1016 1563 777 1677 
Q 538 1791 414 1992 
Q 291 2194 291 2438 
Q 291 2659 392 2848 
Q 494 3038 669 3163 
Q 800 3259 1026 3326 
Q 1253 3394 1513 3394 
Q 1903 3394 2198 3281 
Q 2494 3169 2634 2976 
Q 2775 2784 2828 2463 
L 2278 2388 
Q 2241 2644 2061 2787 
Q 1881 2931 1553 2931 
Q 1166 2931 1000 2803 
Q 834 2675 834 2503 
Q 834 2394 903 2306 
Q 972 2216 1119 2156 
Q 1203 2125 1616 2013 
Q 2213 1853 2448 1751 
Q 2684 1650 2818 1456 
Q 2953 1263 2953 975 
Q 2953 694 2789 445 
Q 2625 197 2315 61 
Q 2006 -75 1616 -75 
Q 969 -75 630 194 
Q 291 463 197 991 
z
" id="ArialMT-73" transform="scale(0.015625)"/>
       <path d="M 2588 1216 
L 3141 1144 
Q 3050 572 2676 248 
Q 2303 -75 1759 -75 
Q 1078 -75 664 370 
Q 250 816 250 1647 
Q 250 2184 428 2587 
Q 606 2991 970 3192 
Q 1334 3394 1763 3394 
Q 2303 3394 2647 3120 
Q 2991 2847 3088 2344 
L 2541 2259 
Q 2463 2594 2264 2762 
Q 2066 2931 1784 2931 
Q 1359 2931 1093 2626 
Q 828 2322 828 1663 
Q 828 994 1084 691 
Q 1341 388 1753 388 
Q 2084 388 2306 591 
Q 2528 794 2588 1216 
z
" id="ArialMT-63" transform="scale(0.015625)"/>
       <path d="M 422 0 
L 422 4581 
L 984 4581 
L 984 2938 
Q 1378 3394 1978 3394 
Q 2347 3394 2619 3248 
Q 2891 3103 3008 2847 
Q 3125 2591 3125 2103 
L 3125 0 
L 2563 0 
L 2563 2103 
Q 2563 2525 2380 2717 
Q 2197 2909 1863 2909 
Q 1613 2909 1392 2779 
Q 1172 2650 1078 2428 
Q 984 2206 984 1816 
L 984 0 
L 422 0 
z
" id="ArialMT-68" transform="scale(0.015625)"/>
       <path d="M 2588 409 
Q 2275 144 1986 34 
Q 1697 -75 1366 -75 
Q 819 -75 525 192 
Q 231 459 231 875 
Q 231 1119 342 1320 
Q 453 1522 633 1644 
Q 813 1766 1038 1828 
Q 1203 1872 1538 1913 
Q 2219 1994 2541 2106 
Q 2544 2222 2544 2253 
Q 2544 2597 2384 2738 
Q 2169 2928 1744 2928 
Q 1347 2928 1158 2789 
Q 969 2650 878 2297 
L 328 2372 
Q 403 2725 575 2942 
Q 747 3159 1072 3276 
Q 1397 3394 1825 3394 
Q 2250 3394 2515 3294 
Q 2781 3194 2906 3042 
Q 3031 2891 3081 2659 
Q 3109 2516 3109 2141 
L 3109 1391 
Q 3109 606 3145 398 
Q 3181 191 3288 0 
L 2700 0 
Q 2613 175 2588 409 
z
M 2541 1666 
Q 2234 1541 1622 1453 
Q 1275 1403 1131 1340 
Q 988 1278 909 1158 
Q 831 1038 831 891 
Q 831 666 1001 516 
Q 1172 366 1500 366 
Q 1825 366 2078 508 
Q 2331 650 2450 897 
Q 2541 1088 2541 1459 
L 2541 1666 
z
" id="ArialMT-61" transform="scale(0.015625)"/>
       <path d="M 416 0 
L 416 3319 
L 922 3319 
L 922 2816 
Q 1116 3169 1280 3281 
Q 1444 3394 1641 3394 
Q 1925 3394 2219 3213 
L 2025 2691 
Q 1819 2813 1613 2813 
Q 1428 2813 1281 2702 
Q 1134 2591 1072 2394 
Q 978 2094 978 1738 
L 978 0 
L 416 0 
z
" id="ArialMT-72" transform="scale(0.015625)"/>
       <path d="M 319 -275 
L 866 -356 
Q 900 -609 1056 -725 
Q 1266 -881 1628 -881 
Q 2019 -881 2231 -725 
Q 2444 -569 2519 -288 
Q 2563 -116 2559 434 
Q 2191 0 1641 0 
Q 956 0 581 494 
Q 206 988 206 1678 
Q 206 2153 378 2554 
Q 550 2956 876 3175 
Q 1203 3394 1644 3394 
Q 2231 3394 2613 2919 
L 2613 3319 
L 3131 3319 
L 3131 450 
Q 3131 -325 2973 -648 
Q 2816 -972 2473 -1159 
Q 2131 -1347 1631 -1347 
Q 1038 -1347 672 -1080 
Q 306 -813 319 -275 
z
M 784 1719 
Q 784 1066 1043 766 
Q 1303 466 1694 466 
Q 2081 466 2343 764 
Q 2606 1063 2606 1700 
Q 2606 2309 2336 2618 
Q 2066 2928 1684 2928 
Q 1309 2928 1046 2623 
Q 784 2319 784 1719 
z
" id="ArialMT-67" transform="scale(0.015625)"/>
       <path d="M 2694 1069 
L 3275 997 
Q 3138 488 2766 206 
Q 2394 -75 1816 -75 
Q 1088 -75 661 373 
Q 234 822 234 1631 
Q 234 2469 665 2931 
Q 1097 3394 1784 3394 
Q 2450 3394 2872 2941 
Q 3294 2488 3294 1666 
Q 3294 1616 3291 1516 
L 816 1516 
Q 847 969 1125 678 
Q 1403 388 1819 388 
Q 2128 388 2347 550 
Q 2566 713 2694 1069 
z
M 847 1978 
L 2700 1978 
Q 2663 2397 2488 2606 
Q 2219 2931 1791 2931 
Q 1403 2931 1139 2672 
Q 875 2413 847 1978 
z
" id="ArialMT-65" transform="scale(0.015625)"/>
       <path id="ArialMT-20" transform="scale(0.015625)"/>
       <path d="M 1497 -1347 
Q 1031 -759 709 28 
Q 388 816 388 1659 
Q 388 2403 628 3084 
Q 909 3875 1497 4659 
L 1900 4659 
Q 1522 4009 1400 3731 
Q 1209 3300 1100 2831 
Q 966 2247 966 1656 
Q 966 153 1900 -1347 
L 1497 -1347 
z
" id="ArialMT-28" transform="scale(0.015625)"/>
       <path d="M 556 0 
L 556 2881 
L 59 2881 
L 59 3319 
L 556 3319 
L 556 3672 
Q 556 4006 616 4169 
Q 697 4388 901 4523 
Q 1106 4659 1475 4659 
Q 1713 4659 2000 4603 
L 1916 4113 
Q 1741 4144 1584 4144 
Q 1328 4144 1222 4034 
Q 1116 3925 1116 3625 
L 1116 3319 
L 1763 3319 
L 1763 2881 
L 1116 2881 
L 1116 0 
L 556 0 
z
" id="ArialMT-66" transform="scale(0.015625)"/>
       <path d="M 791 -1347 
L 388 -1347 
Q 1322 153 1322 1656 
Q 1322 2244 1188 2822 
Q 1081 3291 891 3722 
Q 769 4003 388 4659 
L 791 4659 
Q 1378 3875 1659 3084 
Q 1900 2403 1900 1659 
Q 1900 816 1576 28 
Q 1253 -759 791 -1347 
z
" id="ArialMT-29" transform="scale(0.015625)"/>
      </defs>
      <use xlink:href="#ArialMT-44"/>
      <use x="72.216797" xlink:href="#ArialMT-69"/>
      <use x="94.433594" xlink:href="#ArialMT-73"/>
      <use x="144.433594" xlink:href="#ArialMT-63"/>
      <use x="194.433594" xlink:href="#ArialMT-68"/>
      <use x="250.048828" xlink:href="#ArialMT-61"/>
      <use x="305.664062" xlink:href="#ArialMT-72"/>
      <use x="338.964844" xlink:href="#ArialMT-67"/>
      <use x="394.580078" xlink:href="#ArialMT-65"/>
      <use x="450.195312" xlink:href="#ArialMT-20"/>
      <use x="477.978516" xlink:href="#ArialMT-28"/>
      <use x="511.279297" xlink:href="#ArialMT-63"/>
      <use x="561.279297" xlink:href="#ArialMT-66"/>
      <use x="589.0625" xlink:href="#ArialMT-73"/>
      <use x="639.0625" xlink:href="#ArialMT-29"/>
     </g>
    </g>
   </g>
   <g id="matplotlib.axis_2">
    <g id="ytick_1">
     <g id="line2d_8">
      <path clip-path="url(#p50785c7438)" d="M 36.134375 359.28 
L 181.699592 359.28 
" style="fill:none;stroke:#b0b0b0;stroke-linecap:square;stroke-opacity:0.2;stroke-width:0.8;"/>
     </g>
     <g id="line2d_9">
      <defs>
       <path d="M 0 0 
L -3.5 0 
" id="m2913d3fed7" style="stroke:#000000;stroke-width:0.8;"/>
      </defs>
      <g>
       <use style="stroke:#000000;stroke-width:0.8;" x="36.134375" xlink:href="#m2913d3fed7" y="359.28"/>
      </g>
     </g>
     <g id="text_5">
      <!-- 0 -->
      <g transform="translate(22.46125 363.574687)scale(0.12 -0.12)">
       <use xlink:href="#ArialMT-30"/>
      </g>
     </g>
    </g>
    <g id="ytick_2">
     <g id="line2d_10">
      <path clip-path="url(#p50785c7438)" d="M 36.134375 304.92 
L 181.699592 304.92 
" style="fill:none;stroke:#b0b0b0;stroke-linecap:square;stroke-opacity:0.2;stroke-width:0.8;"/>
     </g>
     <g id="line2d_11">
      <g>
       <use style="stroke:#000000;stroke-width:0.8;" x="36.134375" xlink:href="#m2913d3fed7" y="304.92"/>
      </g>
     </g>
     <g id="text_6">
      <!-- 1 -->
      <g transform="translate(22.46125 309.214687)scale(0.12 -0.12)">
       <use xlink:href="#ArialMT-31"/>
      </g>
     </g>
    </g>
    <g id="ytick_3">
     <g id="line2d_12">
      <path clip-path="url(#p50785c7438)" d="M 36.134375 250.56 
L 181.699592 250.56 
" style="fill:none;stroke:#b0b0b0;stroke-linecap:square;stroke-opacity:0.2;stroke-width:0.8;"/>
     </g>
     <g id="line2d_13">
      <g>
       <use style="stroke:#000000;stroke-width:0.8;" x="36.134375" xlink:href="#m2913d3fed7" y="250.56"/>
      </g>
     </g>
     <g id="text_7">
      <!-- 2 -->
      <g transform="translate(22.46125 254.854688)scale(0.12 -0.12)">
       <defs>
        <path d="M 3222 541 
L 3222 0 
L 194 0 
Q 188 203 259 391 
Q 375 700 629 1000 
Q 884 1300 1366 1694 
Q 2113 2306 2375 2664 
Q 2638 3022 2638 3341 
Q 2638 3675 2398 3904 
Q 2159 4134 1775 4134 
Q 1369 4134 1125 3890 
Q 881 3647 878 3216 
L 300 3275 
Q 359 3922 746 4261 
Q 1134 4600 1788 4600 
Q 2447 4600 2831 4234 
Q 3216 3869 3216 3328 
Q 3216 3053 3103 2787 
Q 2991 2522 2730 2228 
Q 2469 1934 1863 1422 
Q 1356 997 1212 845 
Q 1069 694 975 541 
L 3222 541 
z
" id="ArialMT-32" transform="scale(0.015625)"/>
       </defs>
       <use xlink:href="#ArialMT-32"/>
      </g>
     </g>
    </g>
    <g id="ytick_4">
     <g id="line2d_14">
      <path clip-path="url(#p50785c7438)" d="M 36.134375 196.2 
L 181.699592 196.2 
" style="fill:none;stroke:#b0b0b0;stroke-linecap:square;stroke-opacity:0.2;stroke-width:0.8;"/>
     </g>
     <g id="line2d_15">
      <g>
       <use style="stroke:#000000;stroke-width:0.8;" x="36.134375" xlink:href="#m2913d3fed7" y="196.2"/>
      </g>
     </g>
     <g id="text_8">
      <!-- 3 -->
      <g transform="translate(22.46125 200.494687)scale(0.12 -0.12)">
       <defs>
        <path d="M 269 1209 
L 831 1284 
Q 928 806 1161 595 
Q 1394 384 1728 384 
Q 2125 384 2398 659 
Q 2672 934 2672 1341 
Q 2672 1728 2419 1979 
Q 2166 2231 1775 2231 
Q 1616 2231 1378 2169 
L 1441 2663 
Q 1497 2656 1531 2656 
Q 1891 2656 2178 2843 
Q 2466 3031 2466 3422 
Q 2466 3731 2256 3934 
Q 2047 4138 1716 4138 
Q 1388 4138 1169 3931 
Q 950 3725 888 3313 
L 325 3413 
Q 428 3978 793 4289 
Q 1159 4600 1703 4600 
Q 2078 4600 2393 4439 
Q 2709 4278 2876 4000 
Q 3044 3722 3044 3409 
Q 3044 3113 2884 2869 
Q 2725 2625 2413 2481 
Q 2819 2388 3044 2092 
Q 3269 1797 3269 1353 
Q 3269 753 2831 336 
Q 2394 -81 1725 -81 
Q 1122 -81 723 278 
Q 325 638 269 1209 
z
" id="ArialMT-33" transform="scale(0.015625)"/>
       </defs>
       <use xlink:href="#ArialMT-33"/>
      </g>
     </g>
    </g>
    <g id="ytick_5">
     <g id="line2d_16">
      <path clip-path="url(#p50785c7438)" d="M 36.134375 141.84 
L 181.699592 141.84 
" style="fill:none;stroke:#b0b0b0;stroke-linecap:square;stroke-opacity:0.2;stroke-width:0.8;"/>
     </g>
     <g id="line2d_17">
      <g>
       <use style="stroke:#000000;stroke-width:0.8;" x="36.134375" xlink:href="#m2913d3fed7" y="141.84"/>
      </g>
     </g>
     <g id="text_9">
      <!-- 4 -->
      <g transform="translate(22.46125 146.134687)scale(0.12 -0.12)">
       <defs>
        <path d="M 2069 0 
L 2069 1097 
L 81 1097 
L 81 1613 
L 2172 4581 
L 2631 4581 
L 2631 1613 
L 3250 1613 
L 3250 1097 
L 2631 1097 
L 2631 0 
L 2069 0 
z
M 2069 1613 
L 2069 3678 
L 634 1613 
L 2069 1613 
z
" id="ArialMT-34" transform="scale(0.015625)"/>
       </defs>
       <use xlink:href="#ArialMT-34"/>
      </g>
     </g>
    </g>
    <g id="ytick_6">
     <g id="line2d_18">
      <path clip-path="url(#p50785c7438)" d="M 36.134375 87.48 
L 181.699592 87.48 
" style="fill:none;stroke:#b0b0b0;stroke-linecap:square;stroke-opacity:0.2;stroke-width:0.8;"/>
     </g>
     <g id="line2d_19">
      <g>
       <use style="stroke:#000000;stroke-width:0.8;" x="36.134375" xlink:href="#m2913d3fed7" y="87.48"/>
      </g>
     </g>
     <g id="text_10">
      <!-- 5 -->
      <g transform="translate(22.46125 91.774687)scale(0.12 -0.12)">
       <use xlink:href="#ArialMT-35"/>
      </g>
     </g>
    </g>
    <g id="ytick_7">
     <g id="line2d_20">
      <path clip-path="url(#p50785c7438)" d="M 36.134375 33.12 
L 181.699592 33.12 
" style="fill:none;stroke:#b0b0b0;stroke-linecap:square;stroke-opacity:0.2;stroke-width:0.8;"/>
     </g>
     <g id="line2d_21">
      <g>
       <use style="stroke:#000000;stroke-width:0.8;" x="36.134375" xlink:href="#m2913d3fed7" y="33.12"/>
      </g>
     </g>
     <g id="text_11">
      <!-- 6 -->
      <g transform="translate(22.46125 37.414688)scale(0.12 -0.12)">
       <defs>
        <path d="M 3184 3459 
L 2625 3416 
Q 2550 3747 2413 3897 
Q 2184 4138 1850 4138 
Q 1581 4138 1378 3988 
Q 1113 3794 959 3422 
Q 806 3050 800 2363 
Q 1003 2672 1297 2822 
Q 1591 2972 1913 2972 
Q 2475 2972 2870 2558 
Q 3266 2144 3266 1488 
Q 3266 1056 3080 686 
Q 2894 316 2569 119 
Q 2244 -78 1831 -78 
Q 1128 -78 684 439 
Q 241 956 241 2144 
Q 241 3472 731 4075 
Q 1159 4600 1884 4600 
Q 2425 4600 2770 4297 
Q 3116 3994 3184 3459 
z
M 888 1484 
Q 888 1194 1011 928 
Q 1134 663 1356 523 
Q 1578 384 1822 384 
Q 2178 384 2434 671 
Q 2691 959 2691 1453 
Q 2691 1928 2437 2201 
Q 2184 2475 1800 2475 
Q 1419 2475 1153 2201 
Q 888 1928 888 1484 
z
" id="ArialMT-36" transform="scale(0.015625)"/>
       </defs>
       <use xlink:href="#ArialMT-36"/>
      </g>
     </g>
    </g>
    <g id="text_12">
     <!-- Depth (ft) -->
     <g transform="translate(15.935625 221.205937)rotate(-90)scale(0.12 -0.12)">
      <defs>
       <path d="M 422 -1272 
L 422 3319 
L 934 3319 
L 934 2888 
Q 1116 3141 1344 3267 
Q 1572 3394 1897 3394 
Q 2322 3394 2647 3175 
Q 2972 2956 3137 2557 
Q 3303 2159 3303 1684 
Q 3303 1175 3120 767 
Q 2938 359 2589 142 
Q 2241 -75 1856 -75 
Q 1575 -75 1351 44 
Q 1128 163 984 344 
L 984 -1272 
L 422 -1272 
z
M 931 1641 
Q 931 1000 1190 694 
Q 1450 388 1819 388 
Q 2194 388 2461 705 
Q 2728 1022 2728 1688 
Q 2728 2322 2467 2637 
Q 2206 2953 1844 2953 
Q 1484 2953 1207 2617 
Q 931 2281 931 1641 
z
" id="ArialMT-70" transform="scale(0.015625)"/>
       <path d="M 1650 503 
L 1731 6 
Q 1494 -44 1306 -44 
Q 1000 -44 831 53 
Q 663 150 594 308 
Q 525 466 525 972 
L 525 2881 
L 113 2881 
L 113 3319 
L 525 3319 
L 525 4141 
L 1084 4478 
L 1084 3319 
L 1650 3319 
L 1650 2881 
L 1084 2881 
L 1084 941 
Q 1084 700 1114 631 
Q 1144 563 1211 522 
Q 1278 481 1403 481 
Q 1497 481 1650 503 
z
" id="ArialMT-74" transform="scale(0.015625)"/>
      </defs>
      <use xlink:href="#ArialMT-44"/>
      <use x="72.216797" xlink:href="#ArialMT-65"/>
      <use x="127.832031" xlink:href="#ArialMT-70"/>
      <use x="183.447266" xlink:href="#ArialMT-74"/>
      <use x="211.230469" xlink:href="#ArialMT-68"/>
      <use x="266.845703" xlink:href="#ArialMT-20"/>
      <use x="294.628906" xlink:href="#ArialMT-28"/>
      <use x="327.929688" xlink:href="#ArialMT-66"/>
      <use x="355.712891" xlink:href="#ArialMT-74"/>
      <use x="383.496094" xlink:href="#ArialMT-29"/>
     </g>
    </g>
   </g>
   <g id="line2d_22">
    <path clip-path="url(#p50785c7438)" d="M 36.134378 359.22564 
L 36.24242 352.051316 
L 36.564171 345.529203 
L 37.085098 339.333196 
L 37.822086 333.137189 
L 38.777215 326.941182 
L 39.950095 320.745174 
L 41.417618 314.223062 
L 43.120084 307.700949 
L 45.052269 301.178836 
L 47.321463 294.330618 
L 49.828816 287.482399 
L 52.701072 280.308075 
L 55.813318 273.133751 
L 59.310355 265.633321 
L 63.208778 257.806786 
L 67.52143 249.654145 
L 72.256613 241.175398 
L 77.612737 232.04444 
L 83.610425 222.261271 
L 90.679374 211.173679 
L 99.062624 198.455559 
L 110.746834 181.171961 
L 130.831756 151.496347 
L 138.707997 139.430439 
L 145.048137 129.321164 
L 150.313453 120.516312 
L 154.745491 112.689776 
L 158.564473 105.515452 
L 161.957518 98.667234 
L 164.784687 92.471226 
L 167.222234 86.601325 
L 169.282387 81.057529 
L 170.980443 75.839839 
L 172.33443 70.948254 
L 173.364809 66.382775 
L 174.094218 62.143402 
L 174.547267 58.230134 
L 174.750401 54.642972 
L 174.731862 51.381916 
L 174.485693 48.120859 
L 174.029202 45.185909 
L 173.38971 42.577064 
L 172.595277 40.294324 
L 171.674988 38.33769 
L 170.659841 36.707162 
L 169.585234 35.402739 
L 168.498411 34.424423 
L 167.484273 33.772211 
L 166.758867 33.446106 
L 166.758867 33.446106 
" style="fill:none;stroke:#d62728;stroke-linecap:square;stroke-width:1.5;"/>
   </g>
   <g id="line2d_23">
    <defs>
     <path d="M 0 3 
C 0.795609 3 1.55874 2.683901 2.12132 2.12132 
C 2.683901 1.55874 3 0.795609 3 0 
C 3 -0.795609 2.683901 -1.55874 2.12132 -2.12132 
C 1.55874 -2.683901 0.795609 -3 0 -3 
C -0.795609 -3 -1.55874 -2.683901 -2.12132 -2.12132 
C -2.683901 -1.55874 -3 -0.795609 -3 0 
C -3 0.795609 -2.683901 1.55874 -2.12132 2.12132 
C -1.55874 2.683901 -0.795609 3 0 3 
z
" id="m972ba3f515" style="stroke:#000000;"/>
    </defs>
    <g clip-path="url(#p50785c7438)">
     <use style="fill:#ffffff;stroke:#000000;" x="39.429812" xlink:href="#m972ba3f515" y="323.35402"/>
    </g>
   </g>
   <g id="line2d_24">
    <path clip-path="url(#p50785c7438)" d="M 36.134376 359.22564 
L 36.243907 348.138048 
L 36.569498 338.028773 
L 37.103824 328.245604 
L 37.855315 318.462435 
L 38.856387 308.35316 
L 40.078653 298.243885 
L 41.562285 287.808505 
L 43.315303 277.047019 
L 45.404767 265.633321 
L 47.779838 253.893518 
L 50.58327 241.175398 
L 53.832916 227.478961 
L 57.783281 211.825891 
L 62.882222 192.585658 
L 77.993875 136.169382 
L 81.424274 122.14684 
L 84.075707 110.407037 
L 86.213376 99.971656 
L 87.930487 90.514593 
L 89.30188 81.70974 
L 90.301107 73.883205 
L 91.000336 66.708881 
L 91.420208 60.186768 
L 91.583727 54.316867 
L 91.515009 49.099176 
L 91.237496 44.533697 
L 90.820135 40.946535 
L 90.278 38.011585 
L 89.634318 35.728845 
L 89.07999 34.424423 
L 88.674334 33.772211 
L 88.384172 33.446106 
L 88.384172 33.446106 
" style="fill:none;stroke:#1f77b4;stroke-linecap:square;stroke-width:1.5;"/>
   </g>
   <g id="line2d_25">
    <g clip-path="url(#p50785c7438)">
     <use style="fill:#ffffff;stroke:#000000;" x="70.06649" xlink:href="#m972ba3f515" y="166.171101"/>
    </g>
   </g>
   <g id="patch_3">
    <path d="M 36.134375 359.28 
L 36.134375 33.12 
" style="fill:none;stroke:#000000;stroke-linecap:square;stroke-linejoin:miter;stroke-width:0.8;"/>
   </g>
   <g id="patch_4">
    <path d="M 181.699592 359.28 
L 181.699592 33.12 
" style="fill:none;stroke:#000000;stroke-linecap:square;stroke-linejoin:miter;stroke-width:0.8;"/>
   </g>
   <g id="patch_5">
    <path d="M 36.134375 359.28 
L 181.699592 359.28 
" style="fill:none;stroke:#000000;stroke-linecap:square;stroke-linejoin:miter;stroke-width:0.8;"/>
   </g>
   <g id="patch_6">
    <path d="M 36.134375 33.12 
L 181.699592 33.12 
" style="fill:none;stroke:#000000;stroke-linecap:square;stroke-linejoin:miter;stroke-width:0.8;"/>
   </g>
   <g id="legend_1">
    <g id="patch_7">
     <path d="M 70.187717 353.28 
L 173.299592 353.28 
Q 175.699592 353.28 175.699592 350.88 
L 175.699592 300.87 
Q 175.699592 298.47 173.299592 298.47 
L 70.187717 298.47 
Q 67.787717 298.47 67.787717 300.87 
L 67.787717 350.88 
Q 67.787717 353.28 70.187717 353.28 
z
" style="fill:#ffffff;opacity:0.8;stroke:#cccccc;stroke-linejoin:miter;"/>
    </g>
    <g id="line2d_26">
     <path d="M 72.587717 307.659375 
L 96.587717 307.659375 
" style="fill:none;stroke:#d62728;stroke-linecap:square;stroke-width:1.5;"/>
    </g>
    <g id="line2d_27"/>
    <g id="text_13">
     <!-- section 1 -->
     <g transform="translate(106.187717 311.859375)scale(0.12 -0.12)">
      <defs>
       <path d="M 213 1659 
Q 213 2581 725 3025 
Q 1153 3394 1769 3394 
Q 2453 3394 2887 2945 
Q 3322 2497 3322 1706 
Q 3322 1066 3130 698 
Q 2938 331 2570 128 
Q 2203 -75 1769 -75 
Q 1072 -75 642 372 
Q 213 819 213 1659 
z
M 791 1659 
Q 791 1022 1069 705 
Q 1347 388 1769 388 
Q 2188 388 2466 706 
Q 2744 1025 2744 1678 
Q 2744 2294 2464 2611 
Q 2184 2928 1769 2928 
Q 1347 2928 1069 2612 
Q 791 2297 791 1659 
z
" id="ArialMT-6f" transform="scale(0.015625)"/>
       <path d="M 422 0 
L 422 3319 
L 928 3319 
L 928 2847 
Q 1294 3394 1984 3394 
Q 2284 3394 2536 3286 
Q 2788 3178 2913 3003 
Q 3038 2828 3088 2588 
Q 3119 2431 3119 2041 
L 3119 0 
L 2556 0 
L 2556 2019 
Q 2556 2363 2490 2533 
Q 2425 2703 2258 2804 
Q 2091 2906 1866 2906 
Q 1506 2906 1245 2678 
Q 984 2450 984 1813 
L 984 0 
L 422 0 
z
" id="ArialMT-6e" transform="scale(0.015625)"/>
      </defs>
      <use xlink:href="#ArialMT-73"/>
      <use x="50" xlink:href="#ArialMT-65"/>
      <use x="105.615234" xlink:href="#ArialMT-63"/>
      <use x="155.615234" xlink:href="#ArialMT-74"/>
      <use x="183.398438" xlink:href="#ArialMT-69"/>
      <use x="205.615234" xlink:href="#ArialMT-6f"/>
      <use x="261.230469" xlink:href="#ArialMT-6e"/>
      <use x="316.845703" xlink:href="#ArialMT-20"/>
      <use x="344.628906" xlink:href="#ArialMT-31"/>
     </g>
    </g>
    <g id="line2d_28">
     <path d="M 72.587717 324.63375 
L 96.587717 324.63375 
" style="fill:none;stroke:#1f77b4;stroke-linecap:square;stroke-width:1.5;"/>
    </g>
    <g id="line2d_29"/>
    <g id="text_14">
     <!-- section 2 -->
     <g transform="translate(106.187717 328.83375)scale(0.12 -0.12)">
      <use xlink:href="#ArialMT-73"/>
      <use x="50" xlink:href="#ArialMT-65"/>
      <use x="105.615234" xlink:href="#ArialMT-63"/>
      <use x="155.615234" xlink:href="#ArialMT-74"/>
      <use x="183.398438" xlink:href="#ArialMT-69"/>
      <use x="205.615234" xlink:href="#ArialMT-6f"/>
      <use x="261.230469" xlink:href="#ArialMT-6e"/>
      <use x="316.845703" xlink:href="#ArialMT-20"/>
      <use x="344.628906" xlink:href="#ArialMT-32"/>
     </g>
    </g>
    <g id="line2d_30">
     <path d="M 72.587717 341.754375 
L 96.587717 341.754375 
" style="fill:none;stroke:#000000;stroke-dasharray:5.55,2.4;stroke-dashoffset:0;stroke-width:1.5;"/>
    </g>
    <g id="line2d_31"/>
    <g id="text_15">
     <!-- design flood -->
     <g transform="translate(106.187717 345.954375)scale(0.12 -0.12)">
      <defs>
       <path d="M 2575 0 
L 2575 419 
Q 2259 -75 1647 -75 
Q 1250 -75 917 144 
Q 584 363 401 755 
Q 219 1147 219 1656 
Q 219 2153 384 2558 
Q 550 2963 881 3178 
Q 1213 3394 1622 3394 
Q 1922 3394 2156 3267 
Q 2391 3141 2538 2938 
L 2538 4581 
L 3097 4581 
L 3097 0 
L 2575 0 
z
M 797 1656 
Q 797 1019 1065 703 
Q 1334 388 1700 388 
Q 2069 388 2326 689 
Q 2584 991 2584 1609 
Q 2584 2291 2321 2609 
Q 2059 2928 1675 2928 
Q 1300 2928 1048 2622 
Q 797 2316 797 1656 
z
" id="ArialMT-64" transform="scale(0.015625)"/>
       <path d="M 409 0 
L 409 4581 
L 972 4581 
L 972 0 
L 409 0 
z
" id="ArialMT-6c" transform="scale(0.015625)"/>
      </defs>
      <use xlink:href="#ArialMT-64"/>
      <use x="55.615234" xlink:href="#ArialMT-65"/>
      <use x="111.230469" xlink:href="#ArialMT-73"/>
      <use x="161.230469" xlink:href="#ArialMT-69"/>
      <use x="183.447266" xlink:href="#ArialMT-67"/>
      <use x="239.0625" xlink:href="#ArialMT-6e"/>
      <use x="294.677734" xlink:href="#ArialMT-20"/>
      <use x="322.460938" xlink:href="#ArialMT-66"/>
      <use x="350.244141" xlink:href="#ArialMT-6c"/>
      <use x="372.460938" xlink:href="#ArialMT-6f"/>
      <use x="428.076172" xlink:href="#ArialMT-6f"/>
      <use x="483.691406" xlink:href="#ArialMT-64"/>
     </g>
    </g>
   </g>
  </g>
  <g id="axes_2">
   <g id="patch_8">
    <path d="M 210.812636 359.28 
L 356.377853 359.28 
L 356.377853 33.12 
L 210.812636 33.12 
z
" style="fill:#ffffff;"/>
   </g>
   <g id="matplotlib.axis_3">
    <g id="xtick_4">
     <g id="line2d_32">
      <path clip-path="url(#p1397f224a6)" d="M 210.812636 359.28 
L 210.812636 33.12 
" style="fill:none;stroke:#b0b0b0;stroke-linecap:square;stroke-opacity:0.2;stroke-width:0.8;"/>
     </g>
     <g id="line2d_33">
      <g>
       <use style="stroke:#000000;stroke-width:0.8;" x="210.812636" xlink:href="#mc9f09d5cd9" y="359.28"/>
      </g>
     </g>
     <g id="text_16">
      <!-- 0 -->
      <g transform="translate(207.476073 374.869375)scale(0.12 -0.12)">
       <use xlink:href="#ArialMT-30"/>
      </g>
     </g>
    </g>
    <g id="xtick_5">
     <g id="line2d_34">
      <path clip-path="url(#p1397f224a6)" d="M 248.186281 359.28 
L 248.186281 33.12 
" style="fill:none;stroke:#b0b0b0;stroke-linecap:square;stroke-opacity:0.2;stroke-width:0.8;"/>
     </g>
     <g id="line2d_35">
      <g>
       <use style="stroke:#000000;stroke-width:0.8;" x="248.186281" xlink:href="#mc9f09d5cd9" y="359.28"/>
      </g>
     </g>
     <g id="text_17">
      <!-- 10 -->
      <g transform="translate(241.513156 374.869375)scale(0.12 -0.12)">
       <use xlink:href="#ArialMT-31"/>
       <use x="55.615234" xlink:href="#ArialMT-30"/>
      </g>
     </g>
    </g>
    <g id="xtick_6">
     <g id="line2d_36">
      <path clip-path="url(#p1397f224a6)" d="M 285.559926 359.28 
L 285.559926 33.12 
" style="fill:none;stroke:#b0b0b0;stroke-linecap:square;stroke-opacity:0.2;stroke-width:0.8;"/>
     </g>
     <g id="line2d_37">
      <g>
       <use style="stroke:#000000;stroke-width:0.8;" x="285.559926" xlink:href="#mc9f09d5cd9" y="359.28"/>
      </g>
     </g>
     <g id="text_18">
      <!-- 20 -->
      <g transform="translate(278.886801 374.869375)scale(0.12 -0.12)">
       <use xlink:href="#ArialMT-32"/>
       <use x="55.615234" xlink:href="#ArialMT-30"/>
      </g>
     </g>
    </g>
    <g id="xtick_7">
     <g id="line2d_38">
      <path clip-path="url(#p1397f224a6)" d="M 322.933571 359.28 
L 322.933571 33.12 
" style="fill:none;stroke:#b0b0b0;stroke-linecap:square;stroke-opacity:0.2;stroke-width:0.8;"/>
     </g>
     <g id="line2d_39">
      <g>
       <use style="stroke:#000000;stroke-width:0.8;" x="322.933571" xlink:href="#mc9f09d5cd9" y="359.28"/>
      </g>
     </g>
     <g id="text_19">
      <!-- 30 -->
      <g transform="translate(316.260446 374.869375)scale(0.12 -0.12)">
       <use xlink:href="#ArialMT-33"/>
       <use x="55.615234" xlink:href="#ArialMT-30"/>
      </g>
     </g>
    </g>
    <g id="text_20">
     <!-- Velocity (ft/s) -->
     <g transform="translate(249.253682 389.99)scale(0.12 -0.12)">
      <defs>
       <path d="M 1803 0 
L 28 4581 
L 684 4581 
L 1875 1253 
Q 2019 853 2116 503 
Q 2222 878 2363 1253 
L 3600 4581 
L 4219 4581 
L 2425 0 
L 1803 0 
z
" id="ArialMT-56" transform="scale(0.015625)"/>
       <path d="M 397 -1278 
L 334 -750 
Q 519 -800 656 -800 
Q 844 -800 956 -737 
Q 1069 -675 1141 -563 
Q 1194 -478 1313 -144 
Q 1328 -97 1363 -6 
L 103 3319 
L 709 3319 
L 1400 1397 
Q 1534 1031 1641 628 
Q 1738 1016 1872 1384 
L 2581 3319 
L 3144 3319 
L 1881 -56 
Q 1678 -603 1566 -809 
Q 1416 -1088 1222 -1217 
Q 1028 -1347 759 -1347 
Q 597 -1347 397 -1278 
z
" id="ArialMT-79" transform="scale(0.015625)"/>
       <path d="M 0 -78 
L 1328 4659 
L 1778 4659 
L 453 -78 
L 0 -78 
z
" id="ArialMT-2f" transform="scale(0.015625)"/>
      </defs>
      <use xlink:href="#ArialMT-56"/>
      <use x="61.199219" xlink:href="#ArialMT-65"/>
      <use x="116.814453" xlink:href="#ArialMT-6c"/>
      <use x="139.03125" xlink:href="#ArialMT-6f"/>
      <use x="194.646484" xlink:href="#ArialMT-63"/>
      <use x="244.646484" xlink:href="#ArialMT-69"/>
      <use x="266.863281" xlink:href="#ArialMT-74"/>
      <use x="294.646484" xlink:href="#ArialMT-79"/>
      <use x="344.646484" xlink:href="#ArialMT-20"/>
      <use x="372.429688" xlink:href="#ArialMT-28"/>
      <use x="405.730469" xlink:href="#ArialMT-66"/>
      <use x="433.513672" xlink:href="#ArialMT-74"/>
      <use x="461.296875" xlink:href="#ArialMT-2f"/>
      <use x="489.080078" xlink:href="#ArialMT-73"/>
      <use x="539.080078" xlink:href="#ArialMT-29"/>
     </g>
    </g>
   </g>
   <g id="matplotlib.axis_4">
    <g id="ytick_8">
     <g id="line2d_40">
      <path clip-path="url(#p1397f224a6)" d="M 210.812636 359.28 
L 356.377853 359.28 
" style="fill:none;stroke:#b0b0b0;stroke-linecap:square;stroke-opacity:0.2;stroke-width:0.8;"/>
     </g>
     <g id="line2d_41">
      <g>
       <use style="stroke:#000000;stroke-width:0.8;" x="210.812636" xlink:href="#m2913d3fed7" y="359.28"/>
      </g>
     </g>
     <g id="text_21">
      <!-- 0 -->
      <g transform="translate(197.139511 363.574687)scale(0.12 -0.12)">
       <use xlink:href="#ArialMT-30"/>
      </g>
     </g>
    </g>
    <g id="ytick_9">
     <g id="line2d_42">
      <path clip-path="url(#p1397f224a6)" d="M 210.812636 304.92 
L 356.377853 304.92 
" style="fill:none;stroke:#b0b0b0;stroke-linecap:square;stroke-opacity:0.2;stroke-width:0.8;"/>
     </g>
     <g id="line2d_43">
      <g>
       <use style="stroke:#000000;stroke-width:0.8;" x="210.812636" xlink:href="#m2913d3fed7" y="304.92"/>
      </g>
     </g>
     <g id="text_22">
      <!-- 1 -->
      <g transform="translate(197.139511 309.214687)scale(0.12 -0.12)">
       <use xlink:href="#ArialMT-31"/>
      </g>
     </g>
    </g>
    <g id="ytick_10">
     <g id="line2d_44">
      <path clip-path="url(#p1397f224a6)" d="M 210.812636 250.56 
L 356.377853 250.56 
" style="fill:none;stroke:#b0b0b0;stroke-linecap:square;stroke-opacity:0.2;stroke-width:0.8;"/>
     </g>
     <g id="line2d_45">
      <g>
       <use style="stroke:#000000;stroke-width:0.8;" x="210.812636" xlink:href="#m2913d3fed7" y="250.56"/>
      </g>
     </g>
     <g id="text_23">
      <!-- 2 -->
      <g transform="translate(197.139511 254.854688)scale(0.12 -0.12)">
       <use xlink:href="#ArialMT-32"/>
      </g>
     </g>
    </g>
    <g id="ytick_11">
     <g id="line2d_46">
      <path clip-path="url(#p1397f224a6)" d="M 210.812636 196.2 
L 356.377853 196.2 
" style="fill:none;stroke:#b0b0b0;stroke-linecap:square;stroke-opacity:0.2;stroke-width:0.8;"/>
     </g>
     <g id="line2d_47">
      <g>
       <use style="stroke:#000000;stroke-width:0.8;" x="210.812636" xlink:href="#m2913d3fed7" y="196.2"/>
      </g>
     </g>
     <g id="text_24">
      <!-- 3 -->
      <g transform="translate(197.139511 200.494687)scale(0.12 -0.12)">
       <use xlink:href="#ArialMT-33"/>
      </g>
     </g>
    </g>
    <g id="ytick_12">
     <g id="line2d_48">
      <path clip-path="url(#p1397f224a6)" d="M 210.812636 141.84 
L 356.377853 141.84 
" style="fill:none;stroke:#b0b0b0;stroke-linecap:square;stroke-opacity:0.2;stroke-width:0.8;"/>
     </g>
     <g id="line2d_49">
      <g>
       <use style="stroke:#000000;stroke-width:0.8;" x="210.812636" xlink:href="#m2913d3fed7" y="141.84"/>
      </g>
     </g>
     <g id="text_25">
      <!-- 4 -->
      <g transform="translate(197.139511 146.134687)scale(0.12 -0.12)">
       <use xlink:href="#ArialMT-34"/>
      </g>
     </g>
    </g>
    <g id="ytick_13">
     <g id="line2d_50">
      <path clip-path="url(#p1397f224a6)" d="M 210.812636 87.48 
L 356.377853 87.48 
" style="fill:none;stroke:#b0b0b0;stroke-linecap:square;stroke-opacity:0.2;stroke-width:0.8;"/>
     </g>
     <g id="line2d_51">
      <g>
       <use style="stroke:#000000;stroke-width:0.8;" x="210.812636" xlink:href="#m2913d3fed7" y="87.48"/>
      </g>
     </g>
     <g id="text_26">
      <!-- 5 -->
      <g transform="translate(197.139511 91.774687)scale(0.12 -0.12)">
       <use xlink:href="#ArialMT-35"/>
      </g>
     </g>
    </g>
    <g id="ytick_14">
     <g id="line2d_52">
      <path clip-path="url(#p1397f224a6)" d="M 210.812636 33.12 
L 356.377853 33.12 
" style="fill:none;stroke:#b0b0b0;stroke-linecap:square;stroke-opacity:0.2;stroke-width:0.8;"/>
     </g>
     <g id="line2d_53">
      <g>
       <use style="stroke:#000000;stroke-width:0.8;" x="210.812636" xlink:href="#m2913d3fed7" y="33.12"/>
      </g>
     </g>
     <g id="text_27">
      <!-- 6 -->
      <g transform="translate(197.139511 37.414688)scale(0.12 -0.12)">
       <use xlink:href="#ArialMT-36"/>
      </g>
     </g>
    </g>
   </g>
   <g id="line2d_54">
    <path clip-path="url(#p1397f224a6)" d="M 211.520881 359.22564 
L 214.725527 358.573429 
L 217.790163 357.595112 
L 221.025757 356.290689 
L 224.443229 354.660161 
L 228.028891 352.703527 
L 231.765602 350.420788 
L 235.636593 347.811943 
L 240.050097 344.550886 
L 244.503111 340.963724 
L 248.996154 337.050456 
L 253.525803 332.811083 
L 258.086349 328.245604 
L 262.67066 323.35402 
L 267.549242 317.810224 
L 272.402368 311.940322 
L 277.224568 305.744315 
L 282.008965 299.222202 
L 286.747547 292.373984 
L 291.431341 285.19966 
L 296.050503 277.69923 
L 300.410355 270.1988 
L 304.704692 262.372265 
L 308.920195 254.219624 
L 312.889048 246.066983 
L 316.769506 237.588236 
L 320.410139 229.10949 
L 323.947653 220.304637 
L 327.246264 211.499785 
L 330.312992 202.694933 
L 333.254055 193.563975 
L 335.955651 184.433017 
L 338.420321 175.302059 
L 340.648999 166.171101 
L 342.573943 157.366249 
L 344.276671 148.561397 
L 345.753397 139.756544 
L 346.956546 131.277798 
L 347.937825 122.799051 
L 348.663349 114.64641 
L 349.163911 106.493769 
L 349.419268 98.667234 
L 349.440992 91.166804 
L 349.23878 83.99248 
L 348.82013 77.144261 
L 348.227149 70.948254 
L 347.449419 65.078353 
L 346.487528 59.534557 
L 345.416314 54.642972 
L 344.27697 50.403599 
L 342.999632 46.490331 
L 341.710949 43.229275 
L 340.471249 40.62043 
L 339.156902 38.33769 
L 338.00844 36.707162 
L 336.871169 35.402739 
L 335.774119 34.424423 
L 334.782325 33.772211 
L 334.085588 33.446106 
L 334.085588 33.446106 
" style="fill:none;stroke:#d62728;stroke-linecap:square;stroke-width:1.5;"/>
   </g>
   <g id="line2d_55">
    <g clip-path="url(#p1397f224a6)">
     <use style="fill:#ffffff;stroke:#000000;" x="262.67066" xlink:href="#m972ba3f515" y="323.35402"/>
    </g>
   </g>
   <g id="line2d_56">
    <path clip-path="url(#p1397f224a6)" d="M 211.095934 359.22564 
L 212.377792 358.573429 
L 213.603647 357.595112 
L 215.188466 355.964584 
L 216.762908 354.00795 
L 218.572218 351.399105 
L 220.556181 348.138048 
L 222.675799 344.224781 
L 225.054081 339.333196 
L 227.490732 333.7894 
L 229.973363 327.593393 
L 232.604387 320.419069 
L 235.2386 312.592533 
L 237.963427 303.787681 
L 240.656216 294.330618 
L 243.389306 283.895237 
L 246.056369 272.807645 
L 248.646137 261.067842 
L 251.14557 248.675828 
L 253.482747 235.957708 
L 255.709095 222.587377 
L 257.759113 208.89094 
L 259.586192 195.194503 
L 261.232784 181.171961 
L 262.656184 167.149418 
L 263.856264 153.126876 
L 264.809055 139.430439 
L 265.522466 126.060107 
L 266.000329 113.015882 
L 266.238374 100.623867 
L 266.248113 88.884064 
L 266.035673 77.796473 
L 265.634234 68.013303 
L 265.056829 59.208451 
L 264.348184 51.708021 
L 263.542718 45.512014 
L 262.74325 40.946535 
L 261.977347 37.685479 
L 261.236049 35.402739 
L 260.615483 34.098317 
L 260.121817 33.446106 
L 260.121817 33.446106 
" style="fill:none;stroke:#1f77b4;stroke-linecap:square;stroke-width:1.5;"/>
   </g>
   <g id="line2d_57">
    <g clip-path="url(#p1397f224a6)">
     <use style="fill:#ffffff;stroke:#000000;" x="262.747181" xlink:href="#m972ba3f515" y="166.171101"/>
    </g>
   </g>
   <g id="patch_9">
    <path d="M 210.812636 359.28 
L 210.812636 33.12 
" style="fill:none;stroke:#000000;stroke-linecap:square;stroke-linejoin:miter;stroke-width:0.8;"/>
   </g>
   <g id="patch_10">
    <path d="M 356.377853 359.28 
L 356.377853 33.12 
" style="fill:none;stroke:#000000;stroke-linecap:square;stroke-linejoin:miter;stroke-width:0.8;"/>
   </g>
   <g id="patch_11">
    <path d="M 210.812636 359.28 
L 356.377853 359.28 
" style="fill:none;stroke:#000000;stroke-linecap:square;stroke-linejoin:miter;stroke-width:0.8;"/>
   </g>
   <g id="patch_12">
    <path d="M 210.812636 33.12 
L 356.377853 33.12 
" style="fill:none;stroke:#000000;stroke-linecap:square;stroke-linejoin:miter;stroke-width:0.8;"/>
   </g>
  </g>
  <g id="axes_3">
   <g id="patch_13">
    <path d="M 385.490897 359.28 
L 531.056114 359.28 
L 531.056114 33.12 
L 385.490897 33.12 
z
" style="fill:#ffffff;"/>
   </g>
   <g id="line2d_58">
    <path clip-path="url(#pad3fd2cba0)" d="M 437.438919 359.28 
L 437.438919 33.12 
" style="fill:none;stroke:#ff0000;stroke-dasharray:1.5,2.475;stroke-dashoffset:0;stroke-width:1.5;"/>
   </g>
   <g id="matplotlib.axis_5">
    <g id="xtick_8">
     <g id="line2d_59">
      <path clip-path="url(#pad3fd2cba0)" d="M 385.490897 359.28 
L 385.490897 33.12 
" style="fill:none;stroke:#b0b0b0;stroke-linecap:square;stroke-opacity:0.2;stroke-width:0.8;"/>
     </g>
     <g id="line2d_60">
      <g>
       <use style="stroke:#000000;stroke-width:0.8;" x="385.490897" xlink:href="#mc9f09d5cd9" y="359.28"/>
      </g>
     </g>
     <g id="text_28">
      <!-- 0 -->
      <g transform="translate(382.154334 374.869375)scale(0.12 -0.12)">
       <use xlink:href="#ArialMT-30"/>
      </g>
     </g>
    </g>
    <g id="xtick_9">
     <g id="line2d_61">
      <path clip-path="url(#pad3fd2cba0)" d="M 437.438919 359.28 
L 437.438919 33.12 
" style="fill:none;stroke:#b0b0b0;stroke-linecap:square;stroke-opacity:0.2;stroke-width:0.8;"/>
     </g>
     <g id="line2d_62">
      <g>
       <use style="stroke:#000000;stroke-width:0.8;" x="437.438919" xlink:href="#mc9f09d5cd9" y="359.28"/>
      </g>
     </g>
     <g id="text_29">
      <!-- 1 -->
      <g transform="translate(434.102356 374.869375)scale(0.12 -0.12)">
       <use xlink:href="#ArialMT-31"/>
      </g>
     </g>
    </g>
    <g id="xtick_10">
     <g id="line2d_63">
      <path clip-path="url(#pad3fd2cba0)" d="M 489.386941 359.28 
L 489.386941 33.12 
" style="fill:none;stroke:#b0b0b0;stroke-linecap:square;stroke-opacity:0.2;stroke-width:0.8;"/>
     </g>
     <g id="line2d_64">
      <g>
       <use style="stroke:#000000;stroke-width:0.8;" x="489.386941" xlink:href="#mc9f09d5cd9" y="359.28"/>
      </g>
     </g>
     <g id="text_30">
      <!-- 2 -->
      <g transform="translate(486.050379 374.869375)scale(0.12 -0.12)">
       <use xlink:href="#ArialMT-32"/>
      </g>
     </g>
    </g>
    <g id="text_31">
     <!-- Froude Number -->
     <g transform="translate(416.259443 389.84375)scale(0.12 -0.12)">
      <defs>
       <path d="M 525 0 
L 525 4581 
L 3616 4581 
L 3616 4041 
L 1131 4041 
L 1131 2622 
L 3281 2622 
L 3281 2081 
L 1131 2081 
L 1131 0 
L 525 0 
z
" id="ArialMT-46" transform="scale(0.015625)"/>
       <path d="M 2597 0 
L 2597 488 
Q 2209 -75 1544 -75 
Q 1250 -75 995 37 
Q 741 150 617 320 
Q 494 491 444 738 
Q 409 903 409 1263 
L 409 3319 
L 972 3319 
L 972 1478 
Q 972 1038 1006 884 
Q 1059 663 1231 536 
Q 1403 409 1656 409 
Q 1909 409 2131 539 
Q 2353 669 2445 892 
Q 2538 1116 2538 1541 
L 2538 3319 
L 3100 3319 
L 3100 0 
L 2597 0 
z
" id="ArialMT-75" transform="scale(0.015625)"/>
       <path d="M 488 0 
L 488 4581 
L 1109 4581 
L 3516 984 
L 3516 4581 
L 4097 4581 
L 4097 0 
L 3475 0 
L 1069 3600 
L 1069 0 
L 488 0 
z
" id="ArialMT-4e" transform="scale(0.015625)"/>
       <path d="M 422 0 
L 422 3319 
L 925 3319 
L 925 2853 
Q 1081 3097 1340 3245 
Q 1600 3394 1931 3394 
Q 2300 3394 2536 3241 
Q 2772 3088 2869 2813 
Q 3263 3394 3894 3394 
Q 4388 3394 4653 3120 
Q 4919 2847 4919 2278 
L 4919 0 
L 4359 0 
L 4359 2091 
Q 4359 2428 4304 2576 
Q 4250 2725 4106 2815 
Q 3963 2906 3769 2906 
Q 3419 2906 3187 2673 
Q 2956 2441 2956 1928 
L 2956 0 
L 2394 0 
L 2394 2156 
Q 2394 2531 2256 2718 
Q 2119 2906 1806 2906 
Q 1569 2906 1367 2781 
Q 1166 2656 1075 2415 
Q 984 2175 984 1722 
L 984 0 
L 422 0 
z
" id="ArialMT-6d" transform="scale(0.015625)"/>
       <path d="M 941 0 
L 419 0 
L 419 4581 
L 981 4581 
L 981 2947 
Q 1338 3394 1891 3394 
Q 2197 3394 2470 3270 
Q 2744 3147 2920 2923 
Q 3097 2700 3197 2384 
Q 3297 2069 3297 1709 
Q 3297 856 2875 390 
Q 2453 -75 1863 -75 
Q 1275 -75 941 416 
L 941 0 
z
M 934 1684 
Q 934 1088 1097 822 
Q 1363 388 1816 388 
Q 2184 388 2453 708 
Q 2722 1028 2722 1663 
Q 2722 2313 2464 2622 
Q 2206 2931 1841 2931 
Q 1472 2931 1203 2611 
Q 934 2291 934 1684 
z
" id="ArialMT-62" transform="scale(0.015625)"/>
      </defs>
      <use xlink:href="#ArialMT-46"/>
      <use x="61.083984" xlink:href="#ArialMT-72"/>
      <use x="94.384766" xlink:href="#ArialMT-6f"/>
      <use x="150" xlink:href="#ArialMT-75"/>
      <use x="205.615234" xlink:href="#ArialMT-64"/>
      <use x="261.230469" xlink:href="#ArialMT-65"/>
      <use x="316.845703" xlink:href="#ArialMT-20"/>
      <use x="344.628906" xlink:href="#ArialMT-4e"/>
      <use x="416.845703" xlink:href="#ArialMT-75"/>
      <use x="472.460938" xlink:href="#ArialMT-6d"/>
      <use x="555.761719" xlink:href="#ArialMT-62"/>
      <use x="611.376953" xlink:href="#ArialMT-65"/>
      <use x="666.992188" xlink:href="#ArialMT-72"/>
     </g>
    </g>
   </g>
   <g id="matplotlib.axis_6">
    <g id="ytick_15">
     <g id="line2d_65">
      <path clip-path="url(#pad3fd2cba0)" d="M 385.490897 359.28 
L 531.056114 359.28 
" style="fill:none;stroke:#b0b0b0;stroke-linecap:square;stroke-opacity:0.2;stroke-width:0.8;"/>
     </g>
     <g id="line2d_66">
      <g>
       <use style="stroke:#000000;stroke-width:0.8;" x="385.490897" xlink:href="#m2913d3fed7" y="359.28"/>
      </g>
     </g>
     <g id="text_32">
      <!-- 0 -->
      <g transform="translate(371.817772 363.574687)scale(0.12 -0.12)">
       <use xlink:href="#ArialMT-30"/>
      </g>
     </g>
    </g>
    <g id="ytick_16">
     <g id="line2d_67">
      <path clip-path="url(#pad3fd2cba0)" d="M 385.490897 304.92 
L 531.056114 304.92 
" style="fill:none;stroke:#b0b0b0;stroke-linecap:square;stroke-opacity:0.2;stroke-width:0.8;"/>
     </g>
     <g id="line2d_68">
      <g>
       <use style="stroke:#000000;stroke-width:0.8;" x="385.490897" xlink:href="#m2913d3fed7" y="304.92"/>
      </g>
     </g>
     <g id="text_33">
      <!-- 1 -->
      <g transform="translate(371.817772 309.214687)scale(0.12 -0.12)">
       <use xlink:href="#ArialMT-31"/>
      </g>
     </g>
    </g>
    <g id="ytick_17">
     <g id="line2d_69">
      <path clip-path="url(#pad3fd2cba0)" d="M 385.490897 250.56 
L 531.056114 250.56 
" style="fill:none;stroke:#b0b0b0;stroke-linecap:square;stroke-opacity:0.2;stroke-width:0.8;"/>
     </g>
     <g id="line2d_70">
      <g>
       <use style="stroke:#000000;stroke-width:0.8;" x="385.490897" xlink:href="#m2913d3fed7" y="250.56"/>
      </g>
     </g>
     <g id="text_34">
      <!-- 2 -->
      <g transform="translate(371.817772 254.854688)scale(0.12 -0.12)">
       <use xlink:href="#ArialMT-32"/>
      </g>
     </g>
    </g>
    <g id="ytick_18">
     <g id="line2d_71">
      <path clip-path="url(#pad3fd2cba0)" d="M 385.490897 196.2 
L 531.056114 196.2 
" style="fill:none;stroke:#b0b0b0;stroke-linecap:square;stroke-opacity:0.2;stroke-width:0.8;"/>
     </g>
     <g id="line2d_72">
      <g>
       <use style="stroke:#000000;stroke-width:0.8;" x="385.490897" xlink:href="#m2913d3fed7" y="196.2"/>
      </g>
     </g>
     <g id="text_35">
      <!-- 3 -->
      <g transform="translate(371.817772 200.494687)scale(0.12 -0.12)">
       <use xlink:href="#ArialMT-33"/>
      </g>
     </g>
    </g>
    <g id="ytick_19">
     <g id="line2d_73">
      <path clip-path="url(#pad3fd2cba0)" d="M 385.490897 141.84 
L 531.056114 141.84 
" style="fill:none;stroke:#b0b0b0;stroke-linecap:square;stroke-opacity:0.2;stroke-width:0.8;"/>
     </g>
     <g id="line2d_74">
      <g>
       <use style="stroke:#000000;stroke-width:0.8;" x="385.490897" xlink:href="#m2913d3fed7" y="141.84"/>
      </g>
     </g>
     <g id="text_36">
      <!-- 4 -->
      <g transform="translate(371.817772 146.134687)scale(0.12 -0.12)">
       <use xlink:href="#ArialMT-34"/>
      </g>
     </g>
    </g>
    <g id="ytick_20">
     <g id="line2d_75">
      <path clip-path="url(#pad3fd2cba0)" d="M 385.490897 87.48 
L 531.056114 87.48 
" style="fill:none;stroke:#b0b0b0;stroke-linecap:square;stroke-opacity:0.2;stroke-width:0.8;"/>
     </g>
     <g id="line2d_76">
      <g>
       <use style="stroke:#000000;stroke-width:0.8;" x="385.490897" xlink:href="#m2913d3fed7" y="87.48"/>
      </g>
     </g>
     <g id="text_37">
      <!-- 5 -->
      <g transform="translate(371.817772 91.774687)scale(0.12 -0.12)">
       <use xlink:href="#ArialMT-35"/>
      </g>
     </g>
    </g>
    <g id="ytick_21">
     <g id="line2d_77">
      <path clip-path="url(#pad3fd2cba0)" d="M 385.490897 33.12 
L 531.056114 33.12 
" style="fill:none;stroke:#b0b0b0;stroke-linecap:square;stroke-opacity:0.2;stroke-width:0.8;"/>
     </g>
     <g id="line2d_78">
      <g>
       <use style="stroke:#000000;stroke-width:0.8;" x="385.490897" xlink:href="#m2913d3fed7" y="33.12"/>
      </g>
     </g>
     <g id="text_38">
      <!-- 6 -->
      <g transform="translate(371.817772 37.414688)scale(0.12 -0.12)">
       <use xlink:href="#ArialMT-36"/>
      </g>
     </g>
    </g>
   </g>
   <g id="line2d_79">
    <path clip-path="url(#pad3fd2cba0)" d="M 386.199142 359.22564 
L 389.403788 358.573429 
L 392.468424 357.595112 
L 395.704018 356.290689 
L 399.12149 354.660161 
L 402.707152 352.703527 
L 406.443863 350.420788 
L 410.314854 347.811943 
L 414.728358 344.550886 
L 419.181371 340.963724 
L 423.674415 337.050456 
L 428.204064 332.811083 
L 432.76461 328.245604 
L 437.348921 323.35402 
L 442.227502 317.810224 
L 447.080628 311.940322 
L 451.902829 305.744315 
L 456.687225 299.222202 
L 461.425807 292.373984 
L 466.109602 285.19966 
L 470.728764 277.69923 
L 475.088616 270.1988 
L 479.382952 262.372265 
L 483.598456 254.219624 
L 487.567309 246.066983 
L 491.447767 237.588236 
L 495.0884 229.10949 
L 498.625914 220.304637 
L 501.924525 211.499785 
L 504.991253 202.694933 
L 507.932316 193.563975 
L 510.633911 184.433017 
L 513.098582 175.302059 
L 515.32726 166.171101 
L 517.252204 157.366249 
L 518.954932 148.561397 
L 520.431658 139.756544 
L 521.634807 131.277798 
L 522.616086 122.799051 
L 523.34161 114.64641 
L 523.842172 106.493769 
L 524.097529 98.667234 
L 524.119253 91.166804 
L 523.91704 83.99248 
L 523.498391 77.144261 
L 522.90541 70.948254 
L 522.12768 65.078353 
L 521.165789 59.534557 
L 520.094575 54.642972 
L 518.955231 50.403599 
L 517.677893 46.490331 
L 516.38921 43.229275 
L 515.14951 40.62043 
L 513.835162 38.33769 
L 512.686701 36.707162 
L 511.54943 35.402739 
L 510.45238 34.424423 
L 509.460586 33.772211 
L 508.763849 33.446106 
L 508.763849 33.446106 
" style="fill:none;stroke:#d62728;stroke-linecap:square;stroke-width:1.5;"/>
   </g>
   <g id="line2d_80">
    <g clip-path="url(#pad3fd2cba0)">
     <use style="fill:#ffffff;stroke:#000000;" x="437.348921" xlink:href="#m972ba3f515" y="323.35402"/>
    </g>
   </g>
   <g id="line2d_81">
    <path clip-path="url(#pad3fd2cba0)" d="M 385.774195 359.22564 
L 387.056053 358.573429 
L 388.281907 357.595112 
L 389.866727 355.964584 
L 391.441169 354.00795 
L 393.250479 351.399105 
L 395.234442 348.138048 
L 397.35406 344.224781 
L 399.732342 339.333196 
L 402.168992 333.7894 
L 404.651624 327.593393 
L 407.282648 320.419069 
L 409.916861 312.592533 
L 412.641688 303.787681 
L 415.334477 294.330618 
L 418.067567 283.895237 
L 420.73463 272.807645 
L 423.324398 261.067842 
L 425.823831 248.675828 
L 428.161008 235.957708 
L 430.387356 222.587377 
L 432.437374 208.89094 
L 434.264453 195.194503 
L 435.911045 181.171961 
L 437.334445 167.149418 
L 438.534525 153.126876 
L 439.487315 139.430439 
L 440.200726 126.060107 
L 440.67859 113.015882 
L 440.916635 100.623867 
L 440.926374 88.884064 
L 440.713934 77.796473 
L 440.312495 68.013303 
L 439.73509 59.208451 
L 439.026445 51.708021 
L 438.220979 45.512014 
L 437.42151 40.946535 
L 436.655608 37.685479 
L 435.91431 35.402739 
L 435.293744 34.098317 
L 434.800078 33.446106 
L 434.800078 33.446106 
" style="fill:none;stroke:#1f77b4;stroke-linecap:square;stroke-width:1.5;"/>
   </g>
   <g id="line2d_82">
    <g clip-path="url(#pad3fd2cba0)">
     <use style="fill:#ffffff;stroke:#000000;" x="437.425442" xlink:href="#m972ba3f515" y="166.171101"/>
    </g>
   </g>
   <g id="patch_14">
    <path d="M 385.490897 359.28 
L 385.490897 33.12 
" style="fill:none;stroke:#000000;stroke-linecap:square;stroke-linejoin:miter;stroke-width:0.8;"/>
   </g>
   <g id="patch_15">
    <path d="M 531.056114 359.28 
L 531.056114 33.12 
" style="fill:none;stroke:#000000;stroke-linecap:square;stroke-linejoin:miter;stroke-width:0.8;"/>
   </g>
   <g id="patch_16">
    <path d="M 385.490897 359.28 
L 531.056114 359.28 
" style="fill:none;stroke:#000000;stroke-linecap:square;stroke-linejoin:miter;stroke-width:0.8;"/>
   </g>
   <g id="patch_17">
    <path d="M 385.490897 33.12 
L 531.056114 33.12 
" style="fill:none;stroke:#000000;stroke-linecap:square;stroke-linejoin:miter;stroke-width:0.8;"/>
   </g>
  </g>
  <g id="axes_4">
   <g id="patch_18">
    <path d="M 560.169158 359.28 
L 705.734375 359.28 
L 705.734375 33.12 
L 560.169158 33.12 
z
" style="fill:#ffffff;"/>
   </g>
   <g id="matplotlib.axis_7">
    <g id="xtick_11">
     <g id="line2d_83">
      <path clip-path="url(#pcdb36e8545)" d="M 560.169158 359.28 
L 560.169158 33.12 
" style="fill:none;stroke:#b0b0b0;stroke-linecap:square;stroke-opacity:0.2;stroke-width:0.8;"/>
     </g>
     <g id="line2d_84">
      <g>
       <use style="stroke:#000000;stroke-width:0.8;" x="560.169158" xlink:href="#mc9f09d5cd9" y="359.28"/>
      </g>
     </g>
     <g id="text_39">
      <!-- 0 -->
      <g transform="translate(556.832595 374.869375)scale(0.12 -0.12)">
       <use xlink:href="#ArialMT-30"/>
      </g>
     </g>
    </g>
    <g id="xtick_12">
     <g id="line2d_85">
      <path clip-path="url(#pcdb36e8545)" d="M 606.437221 359.28 
L 606.437221 33.12 
" style="fill:none;stroke:#b0b0b0;stroke-linecap:square;stroke-opacity:0.2;stroke-width:0.8;"/>
     </g>
     <g id="line2d_86">
      <g>
       <use style="stroke:#000000;stroke-width:0.8;" x="606.437221" xlink:href="#mc9f09d5cd9" y="359.28"/>
      </g>
     </g>
     <g id="text_40">
      <!-- 2 -->
      <g transform="translate(603.100659 374.869375)scale(0.12 -0.12)">
       <use xlink:href="#ArialMT-32"/>
      </g>
     </g>
    </g>
    <g id="xtick_13">
     <g id="line2d_87">
      <path clip-path="url(#pcdb36e8545)" d="M 652.705285 359.28 
L 652.705285 33.12 
" style="fill:none;stroke:#b0b0b0;stroke-linecap:square;stroke-opacity:0.2;stroke-width:0.8;"/>
     </g>
     <g id="line2d_88">
      <g>
       <use style="stroke:#000000;stroke-width:0.8;" x="652.705285" xlink:href="#mc9f09d5cd9" y="359.28"/>
      </g>
     </g>
     <g id="text_41">
      <!-- 4 -->
      <g transform="translate(649.368722 374.869375)scale(0.12 -0.12)">
       <use xlink:href="#ArialMT-34"/>
      </g>
     </g>
    </g>
    <g id="xtick_14">
     <g id="line2d_89">
      <path clip-path="url(#pcdb36e8545)" d="M 698.973348 359.28 
L 698.973348 33.12 
" style="fill:none;stroke:#b0b0b0;stroke-linecap:square;stroke-opacity:0.2;stroke-width:0.8;"/>
     </g>
     <g id="line2d_90">
      <g>
       <use style="stroke:#000000;stroke-width:0.8;" x="698.973348" xlink:href="#mc9f09d5cd9" y="359.28"/>
      </g>
     </g>
     <g id="text_42">
      <!-- 6 -->
      <g transform="translate(695.636786 374.869375)scale(0.12 -0.12)">
       <use xlink:href="#ArialMT-36"/>
      </g>
     </g>
    </g>
    <g id="text_43">
     <!-- Chord (ft) -->
     <g transform="translate(607.614891 389.99)scale(0.12 -0.12)">
      <defs>
       <path d="M 3763 1606 
L 4369 1453 
Q 4178 706 3683 314 
Q 3188 -78 2472 -78 
Q 1731 -78 1267 223 
Q 803 525 561 1097 
Q 319 1669 319 2325 
Q 319 3041 592 3573 
Q 866 4106 1370 4382 
Q 1875 4659 2481 4659 
Q 3169 4659 3637 4309 
Q 4106 3959 4291 3325 
L 3694 3184 
Q 3534 3684 3231 3912 
Q 2928 4141 2469 4141 
Q 1941 4141 1586 3887 
Q 1231 3634 1087 3207 
Q 944 2781 944 2328 
Q 944 1744 1114 1308 
Q 1284 872 1643 656 
Q 2003 441 2422 441 
Q 2931 441 3284 734 
Q 3638 1028 3763 1606 
z
" id="ArialMT-43" transform="scale(0.015625)"/>
      </defs>
      <use xlink:href="#ArialMT-43"/>
      <use x="72.216797" xlink:href="#ArialMT-68"/>
      <use x="127.832031" xlink:href="#ArialMT-6f"/>
      <use x="183.447266" xlink:href="#ArialMT-72"/>
      <use x="216.748047" xlink:href="#ArialMT-64"/>
      <use x="272.363281" xlink:href="#ArialMT-20"/>
      <use x="300.146484" xlink:href="#ArialMT-28"/>
      <use x="333.447266" xlink:href="#ArialMT-66"/>
      <use x="361.230469" xlink:href="#ArialMT-74"/>
      <use x="389.013672" xlink:href="#ArialMT-29"/>
     </g>
    </g>
   </g>
   <g id="matplotlib.axis_8">
    <g id="ytick_22">
     <g id="line2d_91">
      <path clip-path="url(#pcdb36e8545)" d="M 560.169158 359.28 
L 705.734375 359.28 
" style="fill:none;stroke:#b0b0b0;stroke-linecap:square;stroke-opacity:0.2;stroke-width:0.8;"/>
     </g>
     <g id="line2d_92">
      <g>
       <use style="stroke:#000000;stroke-width:0.8;" x="560.169158" xlink:href="#m2913d3fed7" y="359.28"/>
      </g>
     </g>
     <g id="text_44">
      <!-- 0 -->
      <g transform="translate(546.496033 363.574687)scale(0.12 -0.12)">
       <use xlink:href="#ArialMT-30"/>
      </g>
     </g>
    </g>
    <g id="ytick_23">
     <g id="line2d_93">
      <path clip-path="url(#pcdb36e8545)" d="M 560.169158 304.92 
L 705.734375 304.92 
" style="fill:none;stroke:#b0b0b0;stroke-linecap:square;stroke-opacity:0.2;stroke-width:0.8;"/>
     </g>
     <g id="line2d_94">
      <g>
       <use style="stroke:#000000;stroke-width:0.8;" x="560.169158" xlink:href="#m2913d3fed7" y="304.92"/>
      </g>
     </g>
     <g id="text_45">
      <!-- 1 -->
      <g transform="translate(546.496033 309.214687)scale(0.12 -0.12)">
       <use xlink:href="#ArialMT-31"/>
      </g>
     </g>
    </g>
    <g id="ytick_24">
     <g id="line2d_95">
      <path clip-path="url(#pcdb36e8545)" d="M 560.169158 250.56 
L 705.734375 250.56 
" style="fill:none;stroke:#b0b0b0;stroke-linecap:square;stroke-opacity:0.2;stroke-width:0.8;"/>
     </g>
     <g id="line2d_96">
      <g>
       <use style="stroke:#000000;stroke-width:0.8;" x="560.169158" xlink:href="#m2913d3fed7" y="250.56"/>
      </g>
     </g>
     <g id="text_46">
      <!-- 2 -->
      <g transform="translate(546.496033 254.854688)scale(0.12 -0.12)">
       <use xlink:href="#ArialMT-32"/>
      </g>
     </g>
    </g>
    <g id="ytick_25">
     <g id="line2d_97">
      <path clip-path="url(#pcdb36e8545)" d="M 560.169158 196.2 
L 705.734375 196.2 
" style="fill:none;stroke:#b0b0b0;stroke-linecap:square;stroke-opacity:0.2;stroke-width:0.8;"/>
     </g>
     <g id="line2d_98">
      <g>
       <use style="stroke:#000000;stroke-width:0.8;" x="560.169158" xlink:href="#m2913d3fed7" y="196.2"/>
      </g>
     </g>
     <g id="text_47">
      <!-- 3 -->
      <g transform="translate(546.496033 200.494687)scale(0.12 -0.12)">
       <use xlink:href="#ArialMT-33"/>
      </g>
     </g>
    </g>
    <g id="ytick_26">
     <g id="line2d_99">
      <path clip-path="url(#pcdb36e8545)" d="M 560.169158 141.84 
L 705.734375 141.84 
" style="fill:none;stroke:#b0b0b0;stroke-linecap:square;stroke-opacity:0.2;stroke-width:0.8;"/>
     </g>
     <g id="line2d_100">
      <g>
       <use style="stroke:#000000;stroke-width:0.8;" x="560.169158" xlink:href="#m2913d3fed7" y="141.84"/>
      </g>
     </g>
     <g id="text_48">
      <!-- 4 -->
      <g transform="translate(546.496033 146.134687)scale(0.12 -0.12)">
       <use xlink:href="#ArialMT-34"/>
      </g>
     </g>
    </g>
    <g id="ytick_27">
     <g id="line2d_101">
      <path clip-path="url(#pcdb36e8545)" d="M 560.169158 87.48 
L 705.734375 87.48 
" style="fill:none;stroke:#b0b0b0;stroke-linecap:square;stroke-opacity:0.2;stroke-width:0.8;"/>
     </g>
     <g id="line2d_102">
      <g>
       <use style="stroke:#000000;stroke-width:0.8;" x="560.169158" xlink:href="#m2913d3fed7" y="87.48"/>
      </g>
     </g>
     <g id="text_49">
      <!-- 5 -->
      <g transform="translate(546.496033 91.774687)scale(0.12 -0.12)">
       <use xlink:href="#ArialMT-35"/>
      </g>
     </g>
    </g>
    <g id="ytick_28">
     <g id="line2d_103">
      <path clip-path="url(#pcdb36e8545)" d="M 560.169158 33.12 
L 705.734375 33.12 
" style="fill:none;stroke:#b0b0b0;stroke-linecap:square;stroke-opacity:0.2;stroke-width:0.8;"/>
     </g>
     <g id="line2d_104">
      <g>
       <use style="stroke:#000000;stroke-width:0.8;" x="560.169158" xlink:href="#m2913d3fed7" y="33.12"/>
      </g>
     </g>
     <g id="text_50">
      <!-- 6 -->
      <g transform="translate(546.496033 37.414688)scale(0.12 -0.12)">
       <use xlink:href="#ArialMT-36"/>
      </g>
     </g>
    </g>
   </g>
   <g id="line2d_105">
    <path clip-path="url(#pcdb36e8545)" d="M 563.752768 359.22564 
L 569.64508 358.899534 
L 575.765072 358.247323 
L 581.900152 357.269006 
L 586.623891 356.290689 
L 591.810663 354.986267 
L 597.241829 353.355738 
L 601.92714 351.72521 
L 606.879538 349.768576 
L 611.995804 347.485837 
L 616.583633 345.203097 
L 621.331903 342.594252 
L 626.178011 339.659302 
L 630.603349 336.724351 
L 635.117366 333.463294 
L 639.675899 329.876132 
L 643.875586 326.28897 
L 648.108114 322.375703 
L 652.025385 318.462435 
L 655.958127 314.223062 
L 659.874382 309.657583 
L 663.496486 305.092104 
L 667.084816 300.200519 
L 670.399421 295.308935 
L 673.660282 290.091244 
L 676.660851 284.873554 
L 679.585674 279.329758 
L 682.258323 273.785962 
L 684.831329 267.916061 
L 687.155878 262.046159 
L 689.245394 256.176258 
L 691.208419 249.980251 
L 692.93315 243.784243 
L 694.428771 237.588236 
L 695.702868 231.392229 
L 696.811499 224.870116 
L 697.687301 218.348004 
L 698.334701 211.825891 
L 698.7569 205.303778 
L 698.955954 198.781665 
L 698.932823 192.259552 
L 698.687395 185.73744 
L 698.218485 179.215327 
L 697.523804 172.693214 
L 696.599904 166.171101 
L 695.442087 159.648988 
L 694.119986 153.452981 
L 692.574822 147.256974 
L 690.79868 141.060967 
L 688.781991 134.86496 
L 686.639142 128.995058 
L 684.258362 123.125157 
L 681.778801 117.581361 
L 679.060497 112.037565 
L 676.086655 106.493769 
L 673.036247 101.276079 
L 669.721194 96.058389 
L 666.350968 91.166804 
L 662.701283 86.275219 
L 659.015506 81.70974 
L 655.323454 77.470367 
L 651.339546 73.230994 
L 647.368512 69.317726 
L 643.074086 65.404458 
L 638.808274 61.817296 
L 634.610158 58.55624 
L 630.050531 55.295184 
L 625.57544 52.360233 
L 620.667725 49.425282 
L 615.849945 46.816437 
L 611.183862 44.533697 
L 605.963262 42.250958 
L 600.886363 40.294324 
L 596.052941 38.663796 
L 591.612384 37.359373 
L 586.384455 36.054951 
L 581.606227 35.076634 
L 577.690049 34.424423 
L 572.570729 33.772211 
L 568.942784 33.446106 
L 568.942784 33.446106 
" style="fill:none;stroke:#d62728;stroke-linecap:square;stroke-width:1.5;"/>
   </g>
   <g id="line2d_106">
    <g clip-path="url(#pcdb36e8545)">
     <use style="fill:#ffffff;stroke:#000000;" x="647.081278" xlink:href="#m972ba3f515" y="323.35402"/>
    </g>
   </g>
   <g id="line2d_107">
    <path clip-path="url(#pcdb36e8545)" d="M 563.752768 359.22564 
L 569.64508 358.899534 
L 575.765072 358.247323 
L 581.900152 357.269006 
L 586.623891 356.290689 
L 591.810663 354.986267 
L 597.241829 353.355738 
L 601.92714 351.72521 
L 606.879538 349.768576 
L 611.995804 347.485837 
L 616.583633 345.203097 
L 621.331903 342.594252 
L 626.178011 339.659302 
L 630.603349 336.724351 
L 635.117366 333.463294 
L 639.675899 329.876132 
L 643.875586 326.28897 
L 648.108114 322.375703 
L 652.025385 318.462435 
L 655.958127 314.223062 
L 659.874382 309.657583 
L 663.496486 305.092104 
L 667.084816 300.200519 
L 670.399421 295.308935 
L 673.660282 290.091244 
L 676.660851 284.873554 
L 679.585674 279.329758 
L 682.258323 273.785962 
L 684.831329 267.916061 
L 687.155878 262.046159 
L 689.245394 256.176258 
L 691.208419 249.980251 
L 692.93315 243.784243 
L 694.428771 237.588236 
L 695.702868 231.392229 
L 696.811499 224.870116 
L 697.687301 218.348004 
L 698.334701 211.825891 
L 698.7569 205.303778 
L 698.955954 198.781665 
L 698.932823 192.259552 
L 698.687395 185.73744 
L 698.218485 179.215327 
L 697.523804 172.693214 
L 696.599904 166.171101 
L 695.442087 159.648988 
L 694.119986 153.452981 
L 692.574822 147.256974 
L 690.79868 141.060967 
L 688.781991 134.86496 
L 686.639142 128.995058 
L 684.258362 123.125157 
L 681.778801 117.581361 
L 679.060497 112.037565 
L 676.086655 106.493769 
L 673.036247 101.276079 
L 669.721194 96.058389 
L 666.350968 91.166804 
L 662.701283 86.275219 
L 659.015506 81.70974 
L 655.323454 77.470367 
L 651.339546 73.230994 
L 647.368512 69.317726 
L 643.074086 65.404458 
L 638.808274 61.817296 
L 634.610158 58.55624 
L 630.050531 55.295184 
L 625.57544 52.360233 
L 620.667725 49.425282 
L 615.849945 46.816437 
L 611.183862 44.533697 
L 605.963262 42.250958 
L 600.886363 40.294324 
L 596.052941 38.663796 
L 591.612384 37.359373 
L 586.384455 36.054951 
L 581.606227 35.076634 
L 577.690049 34.424423 
L 572.570729 33.772211 
L 568.942784 33.446106 
L 568.942784 33.446106 
" style="fill:none;stroke:#1f77b4;stroke-linecap:square;stroke-width:1.5;"/>
   </g>
   <g id="line2d_108">
    <g clip-path="url(#pcdb36e8545)">
     <use style="fill:#ffffff;stroke:#000000;" x="696.599904" xlink:href="#m972ba3f515" y="166.171101"/>
    </g>
   </g>
   <g id="patch_19">
    <path d="M 560.169158 359.28 
L 560.169158 33.12 
" style="fill:none;stroke:#000000;stroke-linecap:square;stroke-linejoin:miter;stroke-width:0.8;"/>
   </g>
   <g id="patch_20">
    <path d="M 705.734375 359.28 
L 705.734375 33.12 
" style="fill:none;stroke:#000000;stroke-linecap:square;stroke-linejoin:miter;stroke-width:0.8;"/>
   </g>
   <g id="patch_21">
    <path d="M 560.169158 359.28 
L 705.734375 359.28 
" style="fill:none;stroke:#000000;stroke-linecap:square;stroke-linejoin:miter;stroke-width:0.8;"/>
   </g>
   <g id="patch_22">
    <path d="M 560.169158 33.12 
L 705.734375 33.12 
" style="fill:none;stroke:#000000;stroke-linecap:square;stroke-linejoin:miter;stroke-width:0.8;"/>
   </g>
  </g>
  <g id="text_51">
   <!-- Open Channel Flow in Horizontal Culvert Sections -->
   <g transform="translate(188.53025 17.68275)scale(0.144 -0.144)">
    <defs>
     <path d="M 278 2263 
Q 278 2963 488 3438 
Q 644 3788 914 4066 
Q 1184 4344 1506 4478 
Q 1934 4659 2494 4659 
Q 3506 4659 4114 4031 
Q 4722 3403 4722 2284 
Q 4722 1175 4119 548 
Q 3516 -78 2506 -78 
Q 1484 -78 881 545 
Q 278 1169 278 2263 
z
M 1231 2294 
Q 1231 1516 1590 1114 
Q 1950 713 2503 713 
Q 3056 713 3411 1111 
Q 3766 1509 3766 2306 
Q 3766 3094 3420 3481 
Q 3075 3869 2503 3869 
Q 1931 3869 1581 3476 
Q 1231 3084 1231 2294 
z
" id="Arial-BoldMT-4f" transform="scale(0.015625)"/>
     <path d="M 434 3319 
L 1253 3319 
L 1253 2831 
Q 1413 3081 1684 3237 
Q 1956 3394 2288 3394 
Q 2866 3394 3269 2941 
Q 3672 2488 3672 1678 
Q 3672 847 3265 386 
Q 2859 -75 2281 -75 
Q 2006 -75 1782 34 
Q 1559 144 1313 409 
L 1313 -1263 
L 434 -1263 
L 434 3319 
z
M 1303 1716 
Q 1303 1156 1525 889 
Q 1747 622 2066 622 
Q 2372 622 2575 867 
Q 2778 1113 2778 1672 
Q 2778 2194 2568 2447 
Q 2359 2700 2050 2700 
Q 1728 2700 1515 2451 
Q 1303 2203 1303 1716 
z
" id="Arial-BoldMT-70" transform="scale(0.015625)"/>
     <path d="M 2381 1056 
L 3256 909 
Q 3088 428 2723 176 
Q 2359 -75 1813 -75 
Q 947 -75 531 491 
Q 203 944 203 1634 
Q 203 2459 634 2926 
Q 1066 3394 1725 3394 
Q 2466 3394 2894 2905 
Q 3322 2416 3303 1406 
L 1103 1406 
Q 1113 1016 1316 798 
Q 1519 581 1822 581 
Q 2028 581 2168 693 
Q 2309 806 2381 1056 
z
M 2431 1944 
Q 2422 2325 2234 2523 
Q 2047 2722 1778 2722 
Q 1491 2722 1303 2513 
Q 1116 2303 1119 1944 
L 2431 1944 
z
" id="Arial-BoldMT-65" transform="scale(0.015625)"/>
     <path d="M 3478 0 
L 2600 0 
L 2600 1694 
Q 2600 2231 2544 2389 
Q 2488 2547 2361 2634 
Q 2234 2722 2056 2722 
Q 1828 2722 1647 2597 
Q 1466 2472 1398 2265 
Q 1331 2059 1331 1503 
L 1331 0 
L 453 0 
L 453 3319 
L 1269 3319 
L 1269 2831 
Q 1703 3394 2363 3394 
Q 2653 3394 2893 3289 
Q 3134 3184 3257 3021 
Q 3381 2859 3429 2653 
Q 3478 2447 3478 2063 
L 3478 0 
z
" id="Arial-BoldMT-6e" transform="scale(0.015625)"/>
     <path id="Arial-BoldMT-20" transform="scale(0.015625)"/>
     <path d="M 3397 1684 
L 4294 1400 
Q 4088 650 3608 286 
Q 3128 -78 2391 -78 
Q 1478 -78 890 545 
Q 303 1169 303 2250 
Q 303 3394 893 4026 
Q 1484 4659 2447 4659 
Q 3288 4659 3813 4163 
Q 4125 3869 4281 3319 
L 3366 3100 
Q 3284 3456 3026 3662 
Q 2769 3869 2400 3869 
Q 1891 3869 1573 3503 
Q 1256 3138 1256 2319 
Q 1256 1450 1568 1081 
Q 1881 713 2381 713 
Q 2750 713 3015 947 
Q 3281 1181 3397 1684 
z
" id="Arial-BoldMT-43" transform="scale(0.015625)"/>
     <path d="M 1334 4581 
L 1334 2897 
Q 1759 3394 2350 3394 
Q 2653 3394 2897 3281 
Q 3141 3169 3264 2994 
Q 3388 2819 3433 2606 
Q 3478 2394 3478 1947 
L 3478 0 
L 2600 0 
L 2600 1753 
Q 2600 2275 2550 2415 
Q 2500 2556 2373 2639 
Q 2247 2722 2056 2722 
Q 1838 2722 1666 2615 
Q 1494 2509 1414 2295 
Q 1334 2081 1334 1663 
L 1334 0 
L 456 0 
L 456 4581 
L 1334 4581 
z
" id="Arial-BoldMT-68" transform="scale(0.015625)"/>
     <path d="M 1116 2306 
L 319 2450 
Q 453 2931 781 3162 
Q 1109 3394 1756 3394 
Q 2344 3394 2631 3255 
Q 2919 3116 3036 2902 
Q 3153 2688 3153 2116 
L 3144 1091 
Q 3144 653 3186 445 
Q 3228 238 3344 0 
L 2475 0 
Q 2441 88 2391 259 
Q 2369 338 2359 363 
Q 2134 144 1878 34 
Q 1622 -75 1331 -75 
Q 819 -75 523 203 
Q 228 481 228 906 
Q 228 1188 362 1408 
Q 497 1628 739 1745 
Q 981 1863 1438 1950 
Q 2053 2066 2291 2166 
L 2291 2253 
Q 2291 2506 2166 2614 
Q 2041 2722 1694 2722 
Q 1459 2722 1328 2630 
Q 1197 2538 1116 2306 
z
M 2291 1594 
Q 2122 1538 1756 1459 
Q 1391 1381 1278 1306 
Q 1106 1184 1106 997 
Q 1106 813 1243 678 
Q 1381 544 1594 544 
Q 1831 544 2047 700 
Q 2206 819 2256 991 
Q 2291 1103 2291 1419 
L 2291 1594 
z
" id="Arial-BoldMT-61" transform="scale(0.015625)"/>
     <path d="M 459 0 
L 459 4581 
L 1338 4581 
L 1338 0 
L 459 0 
z
" id="Arial-BoldMT-6c" transform="scale(0.015625)"/>
     <path d="M 472 0 
L 472 4581 
L 3613 4581 
L 3613 3806 
L 1397 3806 
L 1397 2722 
L 3309 2722 
L 3309 1947 
L 1397 1947 
L 1397 0 
L 472 0 
z
" id="Arial-BoldMT-46" transform="scale(0.015625)"/>
     <path d="M 256 1706 
Q 256 2144 472 2553 
Q 688 2963 1083 3178 
Q 1478 3394 1966 3394 
Q 2719 3394 3200 2905 
Q 3681 2416 3681 1669 
Q 3681 916 3195 420 
Q 2709 -75 1972 -75 
Q 1516 -75 1102 131 
Q 688 338 472 736 
Q 256 1134 256 1706 
z
M 1156 1659 
Q 1156 1166 1390 903 
Q 1625 641 1969 641 
Q 2313 641 2545 903 
Q 2778 1166 2778 1666 
Q 2778 2153 2545 2415 
Q 2313 2678 1969 2678 
Q 1625 2678 1390 2415 
Q 1156 2153 1156 1659 
z
" id="Arial-BoldMT-6f" transform="scale(0.015625)"/>
     <path d="M 1078 0 
L 28 3319 
L 881 3319 
L 1503 1144 
L 2075 3319 
L 2922 3319 
L 3475 1144 
L 4109 3319 
L 4975 3319 
L 3909 0 
L 3066 0 
L 2494 2134 
L 1931 0 
L 1078 0 
z
" id="Arial-BoldMT-77" transform="scale(0.015625)"/>
     <path d="M 459 3769 
L 459 4581 
L 1338 4581 
L 1338 3769 
L 459 3769 
z
M 459 0 
L 459 3319 
L 1338 3319 
L 1338 0 
L 459 0 
z
" id="Arial-BoldMT-69" transform="scale(0.015625)"/>
     <path d="M 469 0 
L 469 4581 
L 1394 4581 
L 1394 2778 
L 3206 2778 
L 3206 4581 
L 4131 4581 
L 4131 0 
L 3206 0 
L 3206 2003 
L 1394 2003 
L 1394 0 
L 469 0 
z
" id="Arial-BoldMT-48" transform="scale(0.015625)"/>
     <path d="M 1300 0 
L 422 0 
L 422 3319 
L 1238 3319 
L 1238 2847 
Q 1447 3181 1614 3287 
Q 1781 3394 1994 3394 
Q 2294 3394 2572 3228 
L 2300 2463 
Q 2078 2606 1888 2606 
Q 1703 2606 1575 2504 
Q 1447 2403 1373 2137 
Q 1300 1872 1300 1025 
L 1300 0 
z
" id="Arial-BoldMT-72" transform="scale(0.015625)"/>
     <path d="M 106 0 
L 106 684 
L 1350 2113 
Q 1656 2463 1803 2609 
Q 1650 2600 1400 2597 
L 228 2591 
L 228 3319 
L 2972 3319 
L 2972 2697 
L 1703 1234 
L 1256 750 
Q 1622 772 1709 772 
L 3069 772 
L 3069 0 
L 106 0 
z
" id="Arial-BoldMT-7a" transform="scale(0.015625)"/>
     <path d="M 1981 3319 
L 1981 2619 
L 1381 2619 
L 1381 1281 
Q 1381 875 1398 808 
Q 1416 741 1477 697 
Q 1538 653 1625 653 
Q 1747 653 1978 738 
L 2053 56 
Q 1747 -75 1359 -75 
Q 1122 -75 931 4 
Q 741 84 652 211 
Q 563 338 528 553 
Q 500 706 500 1172 
L 500 2619 
L 97 2619 
L 97 3319 
L 500 3319 
L 500 3978 
L 1381 4491 
L 1381 3319 
L 1981 3319 
z
" id="Arial-BoldMT-74" transform="scale(0.015625)"/>
     <path d="M 2644 0 
L 2644 497 
Q 2463 231 2167 78 
Q 1872 -75 1544 -75 
Q 1209 -75 943 72 
Q 678 219 559 484 
Q 441 750 441 1219 
L 441 3319 
L 1319 3319 
L 1319 1794 
Q 1319 1094 1367 936 
Q 1416 778 1544 686 
Q 1672 594 1869 594 
Q 2094 594 2272 717 
Q 2450 841 2515 1023 
Q 2581 1206 2581 1919 
L 2581 3319 
L 3459 3319 
L 3459 0 
L 2644 0 
z
" id="Arial-BoldMT-75" transform="scale(0.015625)"/>
     <path d="M 1372 0 
L 34 3319 
L 956 3319 
L 1581 1625 
L 1763 1059 
Q 1834 1275 1853 1344 
Q 1897 1484 1947 1625 
L 2578 3319 
L 3481 3319 
L 2163 0 
L 1372 0 
z
" id="Arial-BoldMT-76" transform="scale(0.015625)"/>
     <path d="M 231 1491 
L 1131 1578 
Q 1213 1125 1461 912 
Q 1709 700 2131 700 
Q 2578 700 2804 889 
Q 3031 1078 3031 1331 
Q 3031 1494 2936 1608 
Q 2841 1722 2603 1806 
Q 2441 1863 1863 2006 
Q 1119 2191 819 2459 
Q 397 2838 397 3381 
Q 397 3731 595 4036 
Q 794 4341 1167 4500 
Q 1541 4659 2069 4659 
Q 2931 4659 3367 4281 
Q 3803 3903 3825 3272 
L 2900 3231 
Q 2841 3584 2645 3739 
Q 2450 3894 2059 3894 
Q 1656 3894 1428 3728 
Q 1281 3622 1281 3444 
Q 1281 3281 1419 3166 
Q 1594 3019 2269 2859 
Q 2944 2700 3267 2529 
Q 3591 2359 3773 2064 
Q 3956 1769 3956 1334 
Q 3956 941 3737 597 
Q 3519 253 3119 86 
Q 2719 -81 2122 -81 
Q 1253 -81 787 320 
Q 322 722 231 1491 
z
" id="Arial-BoldMT-53" transform="scale(0.015625)"/>
     <path d="M 3353 2338 
L 2488 2181 
Q 2444 2441 2289 2572 
Q 2134 2703 1888 2703 
Q 1559 2703 1364 2476 
Q 1169 2250 1169 1719 
Q 1169 1128 1367 884 
Q 1566 641 1900 641 
Q 2150 641 2309 783 
Q 2469 925 2534 1272 
L 3397 1125 
Q 3263 531 2881 228 
Q 2500 -75 1859 -75 
Q 1131 -75 698 384 
Q 266 844 266 1656 
Q 266 2478 700 2936 
Q 1134 3394 1875 3394 
Q 2481 3394 2839 3133 
Q 3197 2872 3353 2338 
z
" id="Arial-BoldMT-63" transform="scale(0.015625)"/>
     <path d="M 150 947 
L 1031 1081 
Q 1088 825 1259 692 
Q 1431 559 1741 559 
Q 2081 559 2253 684 
Q 2369 772 2369 919 
Q 2369 1019 2306 1084 
Q 2241 1147 2013 1200 
Q 950 1434 666 1628 
Q 272 1897 272 2375 
Q 272 2806 612 3100 
Q 953 3394 1669 3394 
Q 2350 3394 2681 3172 
Q 3013 2950 3138 2516 
L 2309 2363 
Q 2256 2556 2107 2659 
Q 1959 2763 1684 2763 
Q 1338 2763 1188 2666 
Q 1088 2597 1088 2488 
Q 1088 2394 1175 2328 
Q 1294 2241 1995 2081 
Q 2697 1922 2975 1691 
Q 3250 1456 3250 1038 
Q 3250 581 2869 253 
Q 2488 -75 1741 -75 
Q 1063 -75 667 200 
Q 272 475 150 947 
z
" id="Arial-BoldMT-73" transform="scale(0.015625)"/>
    </defs>
    <use xlink:href="#Arial-BoldMT-4f"/>
    <use x="77.783203" xlink:href="#Arial-BoldMT-70"/>
    <use x="138.867188" xlink:href="#Arial-BoldMT-65"/>
    <use x="194.482422" xlink:href="#Arial-BoldMT-6e"/>
    <use x="255.566406" xlink:href="#Arial-BoldMT-20"/>
    <use x="283.349609" xlink:href="#Arial-BoldMT-43"/>
    <use x="355.566406" xlink:href="#Arial-BoldMT-68"/>
    <use x="416.650391" xlink:href="#Arial-BoldMT-61"/>
    <use x="472.265625" xlink:href="#Arial-BoldMT-6e"/>
    <use x="533.349609" xlink:href="#Arial-BoldMT-6e"/>
    <use x="594.433594" xlink:href="#Arial-BoldMT-65"/>
    <use x="650.048828" xlink:href="#Arial-BoldMT-6c"/>
    <use x="677.832031" xlink:href="#Arial-BoldMT-20"/>
    <use x="705.615234" xlink:href="#Arial-BoldMT-46"/>
    <use x="766.699219" xlink:href="#Arial-BoldMT-6c"/>
    <use x="794.482422" xlink:href="#Arial-BoldMT-6f"/>
    <use x="855.566406" xlink:href="#Arial-BoldMT-77"/>
    <use x="933.349609" xlink:href="#Arial-BoldMT-20"/>
    <use x="961.132812" xlink:href="#Arial-BoldMT-69"/>
    <use x="988.916016" xlink:href="#Arial-BoldMT-6e"/>
    <use x="1050" xlink:href="#Arial-BoldMT-20"/>
    <use x="1077.783203" xlink:href="#Arial-BoldMT-48"/>
    <use x="1150" xlink:href="#Arial-BoldMT-6f"/>
    <use x="1211.083984" xlink:href="#Arial-BoldMT-72"/>
    <use x="1250" xlink:href="#Arial-BoldMT-69"/>
    <use x="1277.783203" xlink:href="#Arial-BoldMT-7a"/>
    <use x="1327.783203" xlink:href="#Arial-BoldMT-6f"/>
    <use x="1388.867188" xlink:href="#Arial-BoldMT-6e"/>
    <use x="1449.951172" xlink:href="#Arial-BoldMT-74"/>
    <use x="1483.251953" xlink:href="#Arial-BoldMT-61"/>
    <use x="1538.867188" xlink:href="#Arial-BoldMT-6c"/>
    <use x="1566.650391" xlink:href="#Arial-BoldMT-20"/>
    <use x="1594.433594" xlink:href="#Arial-BoldMT-43"/>
    <use x="1666.650391" xlink:href="#Arial-BoldMT-75"/>
    <use x="1727.734375" xlink:href="#Arial-BoldMT-6c"/>
    <use x="1755.517578" xlink:href="#Arial-BoldMT-76"/>
    <use x="1811.132812" xlink:href="#Arial-BoldMT-65"/>
    <use x="1866.748047" xlink:href="#Arial-BoldMT-72"/>
    <use x="1905.664062" xlink:href="#Arial-BoldMT-74"/>
    <use x="1938.964844" xlink:href="#Arial-BoldMT-20"/>
    <use x="1966.748047" xlink:href="#Arial-BoldMT-53"/>
    <use x="2033.447266" xlink:href="#Arial-BoldMT-65"/>
    <use x="2089.0625" xlink:href="#Arial-BoldMT-63"/>
    <use x="2144.677734" xlink:href="#Arial-BoldMT-74"/>
    <use x="2177.978516" xlink:href="#Arial-BoldMT-69"/>
    <use x="2205.761719" xlink:href="#Arial-BoldMT-6f"/>
    <use x="2266.845703" xlink:href="#Arial-BoldMT-6e"/>
    <use x="2327.929688" xlink:href="#Arial-BoldMT-73"/>
   </g>
  </g>
 </g>
 <defs>
  <clipPath id="p50785c7438">
   <rect height="326.16" width="145.565217" x="36.134375" y="33.12"/>
  </clipPath>
  <clipPath id="p1397f224a6">
   <rect height="326.16" width="145.565217" x="210.812636" y="33.12"/>
  </clipPath>
  <clipPath id="pad3fd2cba0">
   <rect height="326.16" width="145.565217" x="385.490897" y="33.12"/>
  </clipPath>
  <clipPath id="pcdb36e8545">
   <rect height="326.16" width="145.565217" x="560.169158" y="33.12"/>
  </clipPath>
 </defs>
</svg>
